{
.appVersion = "1141";
DisplayStrings = (
"/one.tosf",
"",
"/one.tosf",
"",
"/Delta",
"®",
"/published",
"/emptyset",
"/uni2215",
"/uni20B2",
"|",
"/uni20B5",
"/uni20BC",
"/kip",
"/franc",
"¤",
"/uni20BD",
"/lira",
"/upArrow",
"/northEastArrow",
"/rightArrow",
"/southEastArrow",
"/downArrow",
"/southWestArrow",
"/leftArrow",
"/northWestArrow",
"/upDownArrow",
"/leftRightArrow",
"",
"/one.tf"
);
classes = (
{
code = "o ograve oacute ocircumflex otilde odieresis oslash oe";
name = .oL;
},
{
code = "Y Yacute";
name = .Y;
},
{
code = "O Ograve Oacute Ocircumflex Otilde Odieresis Oslash";
name = .OR;
},
{
code = "I Igrave Iacute Itilde Icircumflex Idieresis";
name = .I;
},
{
code = "A Agrave Aacute Acircumflex Atilde Adieresis Aring";
name = .A;
},
{
code = "r rcaron rcommaaccent";
name = .r;
},
{
code = "e ae egrave eacute ecircumflex edieresis";
name = .eR;
},
{
code = "a a agrave aacute acircumflex adieresis atilde aring ae";
name = .aL;
},
{
code = "R Racute Rcaron Rcommaaccent";
name = .R;
},
{
code = "j ij jcircumflex";
name = .jR;
},
{
code = "c ccedilla";
name = .c;
},
{
code = "k kcommaaccent kgreenlandic";
name = .k;
},
{
code = "o ograve oacute ocircumflex otilde odieresis oslash";
name = .oR;
},
{
code = "u ugrave uacute ucircumflex udieresis";
name = .u;
},
{
code = "a a agrave aacute acircumflex adieresis atilde aring";
name = .aR;
},
{
code = "i dotlessi itilde ij igrave iacute icircumflex idieresis";
name = .iL;
},
{
code = "U Ugrave Uacute Ucircumflex Udieresis";
name = .U;
},
{
code = "E Egrave Eacute Ecircumflex Edieresis";
name = .EL;
},
{
code = "n nacute ntilde";
name = .n;
},
{
code = "N Nacute Ntilde";
name = .N;
},
{
code = "O Ograve Oacute Ocircumflex Otilde Odieresis Oslash OE";
name = .OL;
},
{
code = "i dotlessi itilde igrave iacute icircumflex idieresis";
name = .iR;
},
{
code = "e egrave eacute ecircumflex edieresis";
name = .eL;
},
{
code = "h hbar";
name = .h;
},
{
code = "E Egrave Eacute Ecircumflex Edieresis AE";
name = .ER;
},
{

glyphs = (
{
glyphname = A;
layers = (
{
anchors = (
{
name = top;
position = "{601, 1700}";
}
);
layerId = "B61D43DE-5272-4FF4-A680-608B6BF5ED9E";
paths = (
{
closed = 1;
nodes = (
"283 0 LINE",
"565 782 LINE",
"633 1061 LINE",
"561 1061 LINE",
"633 782 LINE",
"927 0 LINE",
"1216 0 LINE",
"600 1482 LINE",
"-15 0 LINE"
);
},
{
closed = 1;
nodes = (
"919 206 LINE",
"910 406 LINE",
"297 406 LINE",
"289 206 LINE"
);
}
);
width = 1201;
}
);
unicode = 0041;
userData = {
com.typemytype.robofont.mark = (
0.656,
1,
0.6,
1
);
};
},
{
glyphname = Aogonek;
layers = (
{
components = (
{
name = A;
transform = "{1, 0, 0, 1, 3, 0}";
}
);
layerId = "B61D43DE-5272-4FF4-A680-608B6BF5ED9E";
paths = (
{
closed = 1;
nodes = (
"738 -412 OFFCURVE",
"843 -508 OFFCURVE",
"1041 -511 CURVE SMOOTH",
"1126 -512 OFFCURVE",
"1231 -489 OFFCURVE",
"1265 -460 CURVE",
"1232 -312 LINE",
"1179 -341 OFFCURVE",
"1099 -354 OFFCURVE",
"1054 -353 CURVE SMOOTH",
"971 -352 OFFCURVE",
"921 -304 OFFCURVE",
"927 -234 CURVE SMOOTH",
"936 -119 OFFCURVE",
"1068 -36 OFFCURVE",
"1214 0 CURVE",
"1105 67 LINE",
"960 20 LINE",
"801 -64 OFFCURVE",
"742 -164 OFFCURVE",
"739 -265 CURVE"
);
}
);
width = 1207;
}
);
unicode = 0104;
userData = {
com.typemytype.robofont.mark = (
0.6,
0.986,
1,
1
);
};
},
{
glyphname = AE;
layers = (
{
anchors = (
{
name = top;
position = "{1043, 1700}";
}
);
layerId = "B61D43DE-5272-4FF4-A680-608B6BF5ED9E";
paths = (
{
closed = 1;
nodes = (
"302 0 LINE",
"854 1050 LINE",
"882 1428 LINE",
"807 1428 LINE",
"10 0 LINE"
);
},
{
closed = 1;
nodes = (
"1641 0 LINE",
"1641 225 LINE",
"1085 225 LINE",
"1119 187 LINE",
"1119 738 LINE",
"1081 703 LINE",
"1528 703 LINE",
"1528 920 LINE",
"1081 920 LINE",
"1119 886 LINE",
"1119 1250 LINE",
"1085 1221 LINE",
"1600 1221 LINE",
"1600 1428 LINE",
"848 1428 LINE",
"848 0 LINE"
);
},
{
closed = 1;
nodes = (
"1080 257 LINE",
"1080 427 LINE",
"298 427 LINE",
"298 257 LINE"
);
}
);
width = 1722;
}
);
unicode = 00C6;
userData = {
com.typemytype.robofont.mark = (
0.656,
1,
0.6,
1
);
};
},
{
glyphname = B;
layers = (
{
anchors = (
{
name = top;
position = "{625, 1700}";
}
);
layerId = "B61D43DE-5272-4FF4-A680-608B6BF5ED9E";
paths = (
{
closed = 1;
nodes = (
"566 0 LINE",
"923 0 OFFCURVE",
"1100 117 OFFCURVE",
"1100 412 CURVE SMOOTH",
"1100 633 OFFCURVE",
"971 768 OFFCURVE",
"741 768 CURVE",
"717 725 LINE",
"942 725 OFFCURVE",
"1028 904 OFFCURVE",
"1028 1037 CURVE SMOOTH",
"1028 1288 OFFCURVE",
"855 1427 OFFCURVE",
"546 1427 CURVE",
"165 1427 LINE",
"165 0 LINE"
);
},
{
closed = 1;
nodes = (
"428 1258 LINE",
"393 1225 LINE",
"546 1225 LINE SMOOTH",
"657 1225 OFFCURVE",
"781 1186 OFFCURVE",
"781 1027 CURVE SMOOTH",
"781 937 OFFCURVE",
"736 830 OFFCURVE",
"596 830 CURVE",
"390 830 LINE",
"428 793 LINE"
);
},
{
closed = 1;
nodes = (
"428 170 LINE",
"428 663 LINE",
"390 638 LINE",
"576 638 LINE SMOOTH",
"703 638 OFFCURVE",
"836 612 OFFCURVE",
"836 427 CURVE SMOOTH",
"836 242 OFFCURVE",
"726 206 OFFCURVE",
"602 206 CURVE",
"393 206 LINE"
);
}
);
width = 1154;
}
);
unicode = 0042;
userData = {
com.typemytype.robofont.mark = (
0.656,
1,
0.6,
1
);
};
},
{
glyphname = C;
layers = (
{
anchors = (
{
name = btm;
position = "{598, -170}";
},
{
name = top;
position = "{695, 1700}";
}
);
layerId = "B61D43DE-5272-4FF4-A680-608B6BF5ED9E";
paths = (
{
closed = 1;
nodes = (
"341 1455 OFFCURVE",
"75 1213 OFFCURVE",
"75 747 CURVE SMOOTH",
"75 226 OFFCURVE",
"354 -24 OFFCURVE",
"651 -24 CURVE SMOOTH",
"882 -24 OFFCURVE",
"987 54 OFFCURVE",
"1042 100 CURVE",
"927 309 LINE",
"896 272 OFFCURVE",
"809 195 OFFCURVE",
"667 195 CURVE SMOOTH",
"499 195 OFFCURVE",
"361 392 OFFCURVE",
"361 747 CURVE SMOOTH",
"361 1019 OFFCURVE",
"457 1239 OFFCURVE",
"666 1239 CURVE SMOOTH",
"798 1239 OFFCURVE",
"890 1149 OFFCURVE",
"921 1109 CURVE",
"1036 1318 LINE",
"981 1368 OFFCURVE",
"881 1455 OFFCURVE",
"660 1455 CURVE SMOOTH"
);
}
);
width = 1102;
}
);
unicode = 0043;
userData = {
com.typemytype.robofont.mark = (
0.656,
1,
0.6,
1
);
};
},
{
glyphname = D;
layers = (
{
anchors = (
{
name = top;
position = "{662, 1700}";
}
);
layerId = "B61D43DE-5272-4FF4-A680-608B6BF5ED9E";
paths = (
{
closed = 1;
nodes = (
"533 0 LINE",
"952 0 OFFCURVE",
"1190 285 OFFCURVE",
"1190 732 CURVE SMOOTH",
"1190 1197 OFFCURVE",
"948 1428 OFFCURVE",
"535 1428 CURVE",
"165 1428 LINE",
"165 0 LINE"
);
},
{
closed = 1;
nodes = (
"430 180 LINE",
"430 1266 LINE",
"392 1222 LINE",
"526 1222 LINE",
"822 1222 OFFCURVE",
"915 983 OFFCURVE",
"915 726 CURVE SMOOTH",
"915 475 OFFCURVE",
"825 225 OFFCURVE",
"526 225 CURVE",
"395 225 LINE"
);
}
);
width = 1230;
}
);
unicode = 0044;
userData = {
com.typemytype.robofont.mark = (
0.656,
1,
0.6,
1
);
};
},
{
glyphname = Eth;
layers = (
{
components = (
{
name = D;
transform = "{1, 0, 0, 1, -10, 0}";
}
);
layerId = "B61D43DE-5272-4FF4-A680-608B6BF5ED9E";
paths = (
{
closed = 1;
nodes = (
"683 647 LINE",
"683 821 LINE",
"32 821 LINE",
"32 647 LINE"
);
}
);
width = 1214;
}
);
unicode = 00D0;
userData = {
com.typemytype.robofont.mark = (
0.656,
1,
0.6,
1
);
};
},
{
glyphname = Dcroat;
layers = (
{
components = (
{
name = D;
transform = "{1, 0, 0, 1, -10, 0}";
}
);
layerId = "B61D43DE-5272-4FF4-A680-608B6BF5ED9E";
paths = (
{
closed = 1;
nodes = (
"683 647 LINE",
"683 821 LINE",
"32 821 LINE",
"32 647 LINE"
);
}
);
width = 1214;
}
);
unicode = 0110;
userData = {
com.typemytype.robofont.mark = (
0.6,
0.986,
1,
1
);
};
},
{
glyphname = E;
layers = (
{
anchors = (
{
name = top;
position = "{556, 1700}";
}
);
layerId = "B61D43DE-5272-4FF4-A680-608B6BF5ED9E";
paths = (
{
closed = 1;
nodes = (
"953 0 LINE",
"953 225 LINE",
"397 225 LINE",
"431 187 LINE",
"431 688 LINE",
"393 653 LINE",
"812 653 LINE",
"812 870 LINE",
"393 870 LINE",
"431 836 LINE",
"431 1250 LINE",
"397 1221 LINE",
"912 1221 LINE",
"912 1428 LINE",
"165 1428 LINE",
"165 0 LINE"
);
}
);
width = 1037;
}
);
unicode = 0045;
userData = {
com.typemytype.robofont.mark = (
0.656,
1,
0.6,
1
);
};
},
{
glyphname = Eogonek;
layers = (
{
components = (
{
name = E;
transform = "{1, 0, 0, 1, -10, 0}";
}
);
layerId = "B61D43DE-5272-4FF4-A680-608B6BF5ED9E";
paths = (
{
closed = 1;
nodes = (
"467 -412 OFFCURVE",
"572 -508 OFFCURVE",
"770 -511 CURVE SMOOTH",
"855 -512 OFFCURVE",
"960 -489 OFFCURVE",
"994 -460 CURVE",
"961 -312 LINE",
"908 -341 OFFCURVE",
"828 -354 OFFCURVE",
"783 -353 CURVE SMOOTH",
"700 -352 OFFCURVE",
"650 -304 OFFCURVE",
"656 -234 CURVE SMOOTH",
"665 -119 OFFCURVE",
"797 -36 OFFCURVE",
"943 0 CURVE",
"834 67 LINE",
"689 20 LINE",
"530 -64 OFFCURVE",
"471 -164 OFFCURVE",
"468 -265 CURVE"
);
}
);
width = 1024;
}
);
unicode = 0118;
userData = {
com.typemytype.robofont.mark = (
0.6,
0.986,
1,
1
);
};
},
{
glyphname = F;
layers = (
{
anchors = (
{
name = top;
position = "{535, 1700}";
}
);
layerId = "B61D43DE-5272-4FF4-A680-608B6BF5ED9E";
paths = (
{
closed = 1;
nodes = (
"428 0 LINE",
"428 643 LINE",
"390 613 LINE",
"849 613 LINE",
"849 830 LINE",
"390 830 LINE",
"428 794 LINE",
"428 1258 LINE",
"394 1221 LINE",
"911 1221 LINE",
"911 1428 LINE",
"165 1428 LINE",
"165 0 LINE"
);
}
);
width = 965;
}
);
unicode = 0046;
userData = {
com.typemytype.robofont.mark = (
0.656,
1,
0.6,
1
);
};
},
{
glyphname = G;
layers = (
{
anchors = (
{
name = top;
position = "{650, 1700}";
}
);
layerId = "B61D43DE-5272-4FF4-A680-608B6BF5ED9E";
paths = (
{
closed = 1;
nodes = (
"355 1463 OFFCURVE",
"75 1198 OFFCURVE",
"75 738 CURVE SMOOTH",
"75 248 OFFCURVE",
"291 -36 OFFCURVE",
"691 -36 CURVE SMOOTH",
"1048 -36 OFFCURVE",
"1193 178 OFFCURVE",
"1193 563 CURVE",
"1193 786 LINE",
"673 786 LINE",
"673 571 LINE",
"1048 571 LINE",
"938 629 LINE",
"939 611 OFFCURVE",
"940 472 OFFCURVE",
"940 455 CURVE SMOOTH",
"940 315 OFFCURVE",
"866 183 OFFCURVE",
"698 183 CURVE SMOOTH",
"468 183 OFFCURVE",
"354 388 OFFCURVE",
"354 738 CURVE SMOOTH",
"354 1005 OFFCURVE",
"474 1247 OFFCURVE",
"706 1247 CURVE SMOOTH",
"838 1247 OFFCURVE",
"930 1157 OFFCURVE",
"961 1117 CURVE",
"1076 1326 LINE",
"1021 1376 OFFCURVE",
"930 1463 OFFCURVE",
"709 1463 CURVE SMOOTH"
);
}
);
width = 1265;
}
);
unicode = 0047;
userData = {
com.typemytype.robofont.mark = (
0.656,
1,
0.6,
1
);
};
},
{
glyphname = H;
layers = (
{
anchors = (
{
name = top;
position = "{666, 1700}";
}
);
layerId = "B61D43DE-5272-4FF4-A680-608B6BF5ED9E";
paths = (
{
closed = 1;
nodes = (
"431 0 LINE",
"431 648 LINE",
"396 619 LINE",
"933 619 LINE",
"901 648 LINE",
"901 0 LINE",
"1167 0 LINE",
"1167 1428 LINE",
"901 1428 LINE",
"901 802 LINE",
"931 838 LINE",
"396 838 LINE",
"431 803 LINE",
"431 1428 LINE",
"165 1428 LINE",
"165 0 LINE"
);
}
);
width = 1332;
}
);
unicode = 0048;
userData = {
com.typemytype.robofont.mark = (
0.656,
1,
0.6,
1
);
};
},
{
glyphname = Hbar;
layers = (
{
layerId = "B61D43DE-5272-4FF4-A680-608B6BF5ED9E";
paths = (
{
closed = 1;
nodes = (
"441 0 LINE",
"441 574 LINE",
"406 544 LINE",
"915 544 LINE",
"883 574 LINE",
"883 0 LINE",
"1167 0 LINE",
"1167 1428 LINE",
"883 1428 LINE",
"883 702 LINE",
"913 738 LINE",
"406 738 LINE",
"441 704 LINE",
"441 1428 LINE",
"155 1428 LINE",
"155 0 LINE"
);
},
{
closed = 1;
nodes = (
"1293 1021 LINE",
"1293 1195 LINE",
"28 1195 LINE",
"28 1021 LINE"
);
}
);
width = 1322;
}
);
unicode = 0126;
userData = {
com.typemytype.robofont.mark = (
0.6,
0.986,
1,
1
);
};
},
{
glyphname = I;
layers = (
{
anchors = (
{
name = top;
position = "{294, 1700}";
}
);
layerId = "B61D43DE-5272-4FF4-A680-608B6BF5ED9E";
paths = (
{
closed = 1;
nodes = (
"426 0 LINE",
"426 1428 LINE",
"160 1428 LINE",
"160 0 LINE"
);
}
);
width = 586;
}
);
unicode = 0049;
userData = {
com.typemytype.robofont.mark = (
0.656,
1,
0.6,
1
);
};
},
{
glyphname = Iogonek;
layers = (
{
components = (
{
name = I;
transform = "{1, 0, 0, 1, -5, 0}";
}
);
layerId = "B61D43DE-5272-4FF4-A680-608B6BF5ED9E";
paths = (
{
closed = 1;
nodes = (
"-48 -412 OFFCURVE",
"57 -508 OFFCURVE",
"255 -511 CURVE SMOOTH",
"340 -512 OFFCURVE",
"445 -489 OFFCURVE",
"479 -460 CURVE",
"446 -312 LINE",
"393 -341 OFFCURVE",
"313 -354 OFFCURVE",
"268 -353 CURVE SMOOTH",
"185 -352 OFFCURVE",
"135 -304 OFFCURVE",
"141 -234 CURVE SMOOTH",
"150 -119 OFFCURVE",
"282 -36 OFFCURVE",
"428 0 CURVE",
"319 67 LINE",
"174 20 LINE",
"15 -64 OFFCURVE",
"-44 -164 OFFCURVE",
"-47 -265 CURVE"
);
}
);
width = 576;
}
);
unicode = 012E;
userData = {
com.typemytype.robofont.mark = (
0.6,
0.986,
1,
1
);
};
},
{
glyphname = J;
layers = (
{
anchors = (
{
name = top;
position = "{536, 1700}";
}
);
layerId = "B61D43DE-5272-4FF4-A680-608B6BF5ED9E";
paths = (
{
closed = 1;
nodes = (
"35 0 OFFCURVE",
"171 -30 OFFCURVE",
"244 -30 CURVE SMOOTH",
"567 -30 OFFCURVE",
"670 174 OFFCURVE",
"670 428 CURVE SMOOTH",
"670 1428 LINE",
"404 1428 LINE",
"404 404 LINE SMOOTH",
"404 209 OFFCURVE",
"312 196 OFFCURVE",
"231 196 CURVE SMOOTH",
"179 196 OFFCURVE",
"119 227 OFFCURVE",
"83 278 CURVE",
"-15 34 LINE"
);
}
);
width = 820;
}
);
unicode = 004A;
userData = {
com.typemytype.robofont.mark = (
0.656,
1,
0.6,
1
);
};
},
{
glyphname = K;
layers = (
{
anchors = (
{
name = btm;
position = "{687, -170}";
},
{
name = top;
position = "{687, 1700}";
}
);
layerId = "B61D43DE-5272-4FF4-A680-608B6BF5ED9E";
paths = (
{
closed = 1;
nodes = (
"887 0 LINE",
"1215 0 LINE",
"660 768 LINE",
"665 676 LINE",
"1181 1428 LINE",
"880 1428 LINE",
"412 700 LINE"
);
},
{
closed = 1;
nodes = (
"431 0 LINE",
"431 1428 LINE",
"165 1428 LINE",
"165 0 LINE"
);
}
);
width = 1214;
}
);
unicode = 004B;
userData = {
com.typemytype.robofont.mark = (
0.656,
1,
0.6,
1
);
};
},
{
glyphname = L;
layers = (
{
anchors = (
{
name = top;
position = "{308, 1700}";
}
);
layerId = "B61D43DE-5272-4FF4-A680-608B6BF5ED9E";
paths = (
{
closed = 1;
nodes = (
"851 0 LINE",
"851 225 LINE",
"399 225 LINE",
"431 178 LINE",
"431 1427 LINE",
"165 1427 LINE",
"165 0 LINE"
);
}
);
width = 906;
}
);
unicode = 004C;
userData = {
com.typemytype.robofont.mark = (
0.656,
1,
0.6,
1
);
};
},
{
glyphname = Lslash;
layers = (
{
components = (
{
name = L;
transform = "{1, 0, 0, 1, -10, 0}";
}
);
layerId = "B61D43DE-5272-4FF4-A680-608B6BF5ED9E";
paths = (
{
closed = 1;
nodes = (
"716 824 LINE",
"716 1011 LINE",
"1 714 LINE",
"1 527 LINE"
);
}
);
width = 876;
}
);
unicode = 0141;
userData = {
com.typemytype.robofont.mark = (
0.6,
0.986,
1,
1
);
};
},
{
glyphname = M;
layers = (
{
anchors = (
{
name = top;
position = "{762, 1700}";
}
);
layerId = "B61D43DE-5272-4FF4-A680-608B6BF5ED9E";
paths = (
{
closed = 1;
nodes = (
"423 0 LINE",
"423 612 LINE",
"406 1023 LINE",
"370 903 LINE",
"481 744 LINE",
"762 413 LINE",
"1042 743 LINE",
"1153 902 LINE",
"1118 1023 LINE",
"1101 612 LINE",
"1101 0 LINE",
"1359 0 LINE",
"1359 1468 LINE",
"734 736 LINE",
"795 736 LINE",
"165 1468 LINE",
"165 0 LINE"
);
}
);
width = 1524;
}
);
unicode = 004D;
userData = {
com.typemytype.robofont.guides = (
{
angle = 0;
isGlobal = 0;
magnetic = 5;
x = 0;
y = 729;
},
{
angle = 90;
isGlobal = 0;
magnetic = 5;
x = 764;
y = 0;
}
);
com.typemytype.robofont.mark = (
0.656,
1,
0.6,
1
);
};
},
{
glyphname = N;
layers = (
{
anchors = (
{
name = btm;
position = "{670, -170}";
},
{
name = top;
position = "{670, 1700}";
}
);
layerId = "B61D43DE-5272-4FF4-A680-608B6BF5ED9E";
paths = (
{
closed = 1;
nodes = (
"423 0 LINE",
"423 658 LINE",
"403 1033 LINE",
"263 995 LINE",
"471 748 LINE",
"1175 -40 LINE",
"1175 1428 LINE",
"917 1428 LINE",
"917 729 LINE",
"937 388 LINE",
"1066 420 LINE",
"863 666 LINE",
"165 1464 LINE",
"165 0 LINE"
);
}
);
width = 1340;
}
);
unicode = 004E;
userData = {
com.typemytype.robofont.mark = (
0.656,
1,
0.6,
1
);
};
},
{
glyphname = Eng;
layers = (
{
layerId = "B61D43DE-5272-4FF4-A680-608B6BF5ED9E";
paths = (
{
closed = 1;
nodes = (
"416 0 LINE",
"416 1033 LINE",
"253 975 LINE",
"1165 -123 LINE",
"1165 1428 LINE",
"904 1428 LINE",
"904 388 LINE",
"1056 380 LINE",
"155 1464 LINE",
"155 0 LINE"
);
},
{
closed = 1;
nodes = (
"904 317 OFFCURVE",
"904 -148 OFFCURVE",
"904 -148 CURVE",
"904 -234 OFFCURVE",
"855 -296 OFFCURVE",
"719 -296 CURVE SMOOTH",
"667 -296 OFFCURVE",
"607 -265 OFFCURVE",
"571 -214 CURVE",
"473 -458 LINE",
"523 -492 OFFCURVE",
"679 -522 OFFCURVE",
"752 -522 CURVE SMOOTH",
"1042 -522 OFFCURVE",
"1165 -342 OFFCURVE",
"1165 -123 CURVE",
"904 317 LINE"
);
}
);
width = 1320;
}
);
unicode = 014A;
userData = {
com.typemytype.robofont.mark = (
0.6,
0.986,
1,
1
);
};
},
{
glyphname = O;
layers = (
{
anchors = (
{
name = top;
position = "{674, 1700}";
}
);
layerId = "B61D43DE-5272-4FF4-A680-608B6BF5ED9E";
paths = (
{
closed = 1;
nodes = (
"80 264 OFFCURVE",
"288 -26 OFFCURVE",
"676 -26 CURVE SMOOTH",
"1056 -26 OFFCURVE",
"1268 264 OFFCURVE",
"1268 713 CURVE SMOOTH",
"1268 1150 OFFCURVE",
"1070 1453 OFFCURVE",
"669 1453 CURVE SMOOTH",
"287 1453 OFFCURVE",
"80 1158 OFFCURVE",
"80 712 CURVE SMOOTH"
);
},
{
closed = 1;
nodes = (
"354 1060 OFFCURVE",
"472 1243 OFFCURVE",
"669 1243 CURVE SMOOTH",
"872 1243 OFFCURVE",
"995 1061 OFFCURVE",
"995 718 CURVE SMOOTH",
"995 362 OFFCURVE",
"855 188 OFFCURVE",
"675 188 CURVE SMOOTH",
"484 188 OFFCURVE",
"354 360 OFFCURVE",
"354 716 CURVE SMOOTH"
);
}
);
width = 1348;
}
);
unicode = 004F;
userData = {
com.typemytype.robofont.mark = (
0.656,
1,
0.6,
1
);
};
},
{
glyphname = Oslash;
layers = (
{
components = (
{
name = O;
transform = "{1, 0, 0, 1, -10, 0}";
}
);
layerId = "B61D43DE-5272-4FF4-A680-608B6BF5ED9E";
paths = (
{
closed = 1;
nodes = (
"260 -122 LINE",
"408 126 LINE",
"434 181 LINE",
"977 1229 LINE",
"1019 1265 LINE",
"1146 1494 LINE",
"1025 1566 LINE",
"902 1354 LINE",
"871 1268 LINE",
"355 251 LINE",
"311 243 LINE",
"139 -46 LINE"
);
}
);
width = 1328;
}
);
unicode = 00D8;
userData = {
com.typemytype.robofont.mark = (
0.656,
1,
0.6,
1
);
};
},
{
glyphname = OE;
layers = (
{
components = (
{
name = E;
transform = "{1, 0, 0, 1, 802, 0}";
}
);
layerId = "B61D43DE-5272-4FF4-A680-608B6BF5ED9E";
paths = (
{
closed = 1;
nodes = (
"85 264 OFFCURVE",
"262 -36 OFFCURVE",
"667 -36 CURVE SMOOTH",
"1062 -36 OFFCURVE",
"1183 264 OFFCURVE",
"1183 713 CURVE SMOOTH",
"1183 1150 OFFCURVE",
"1077 1463 OFFCURVE",
"659 1463 CURVE SMOOTH",
"261 1463 OFFCURVE",
"85 1158 OFFCURVE",
"85 712 CURVE SMOOTH"
);
},
{
closed = 1;
nodes = (
"364 1040 OFFCURVE",
"461 1248 OFFCURVE",
"659 1248 CURVE SMOOTH",
"864 1248 OFFCURVE",
"962 1041 OFFCURVE",
"962 718 CURVE SMOOTH",
"962 382 OFFCURVE",
"847 183 OFFCURVE",
"665 183 CURVE SMOOTH",
"472 183 OFFCURVE",
"364 380 OFFCURVE",
"364 716 CURVE SMOOTH"
);
}
);
width = 1836;
}
);
unicode = 0152;
userData = {
com.typemytype.robofont.mark = (
0.656,
1,
0.6,
1
);
};
},
{
glyphname = P;
layers = (
{
anchors = (
{
name = top;
position = "{612, 1700}";
}
);
layerId = "B61D43DE-5272-4FF4-A680-608B6BF5ED9E";
paths = (
{
closed = 1;
nodes = (
"431 0 LINE",
"431 462 LINE",
"400 358 LINE",
"557 358 LINE",
"920 358 OFFCURVE",
"1073 635 OFFCURVE",
"1073 916 CURVE SMOOTH",
"1073 1303 OFFCURVE",
"839 1428 OFFCURVE",
"549 1428 CURVE SMOOTH",
"165 1428 LINE",
"165 0 LINE"
);
},
{
closed = 1;
nodes = (
"431 543 LINE",
"431 1257 LINE",
"399 1221 LINE",
"543 1221 LINE SMOOTH",
"748 1221 OFFCURVE",
"808 1109 OFFCURVE",
"808 902 CURVE SMOOTH",
"808 697 OFFCURVE",
"730 567 OFFCURVE",
"549 567 CURVE SMOOTH",
"394 567 LINE"
);
}
);
width = 1111;
}
);
unicode = 0050;
userData = {
com.typemytype.robofont.mark = (
0.656,
1,
0.6,
1
);
};
},
{
glyphname = Thorn;
layers = (
{
layerId = "B61D43DE-5272-4FF4-A680-608B6BF5ED9E";
paths = (
{
closed = 1;
nodes = (
"431 0 LINE",
"431 281 LINE",
"400 177 LINE",
"527 177 LINE SMOOTH",
"945 177 OFFCURVE",
"1099 463 OFFCURVE",
"1099 724 CURVE SMOOTH",
"1099 1094 OFFCURVE",
"839 1246 OFFCURVE",
"519 1246 CURVE SMOOTH",
"165 1246 LINE",
"165 0 LINE"
);
},
{
closed = 1;
nodes = (
"431 360 LINE",
"431 1075 LINE",
"399 1039 LINE",
"533 1039 LINE SMOOTH",
"762 1039 OFFCURVE",
"835 914 OFFCURVE",
"835 711 CURVE SMOOTH",
"835 511 OFFCURVE",
"762 384 OFFCURVE",
"533 384 CURVE SMOOTH",
"394 384 LINE"
);
},
{
closed = 1;
nodes = (
"431 1427 LINE",
"165 1427 LINE",
"165 1246 LINE",
"431 1051 LINE"
);
}
);
width = 1136;
}
);
unicode = 00DE;
userData = {
com.typemytype.robofont.mark = (
0.656,
1,
0.6,
1
);
};
},
{
glyphname = Q;
layers = (
{
anchors = (
{
name = top;
position = "{710, 1700}";
}
);
components = (
{
name = O;
}
);
layerId = "B61D43DE-5272-4FF4-A680-608B6BF5ED9E";
paths = (
{
closed = 1;
nodes = (
"1324 -148 LINE",
"1326 102 LINE",
"682 150 LINE",
"682 -12 LINE"
);
}
);
width = 1348;
}
);
unicode = 0051;
userData = {
com.typemytype.robofont.mark = (
0.656,
1,
0.6,
1
);
};
},
{
glyphname = R;
layers = (
{
anchors = (
{
name = top;
position = "{629, 1700}";
}
);
layerId = "B61D43DE-5272-4FF4-A680-608B6BF5ED9E";
paths = (
{
closed = 1;
nodes = (
"715 614 OFFCURVE",
"809 738 OFFCURVE",
"809 918 CURVE",
"809 1102 OFFCURVE",
"734 1222 OFFCURVE",
"528 1222 CURVE SMOOTH",
"390 1222 LINE",
"427 1255 LINE",
"427 591 LINE",
"385 614 LINE",
"534 614 LINE"
);
},
{
closed = 1;
nodes = (
"427 0 LINE",
"165 0 LINE",
"165 1428 LINE",
"549 1428 LINE SMOOTH",
"839 1428 OFFCURVE",
"1072 1272 OFFCURVE",
"1072 930 CURVE SMOOTH",
"1072 683 OFFCURVE",
"946 418 OFFCURVE",
"557 441 CURVE",
"709 500 LINE",
"1109 0 LINE",
"792 0 LINE",
"416 492 LINE",
"427 510 LINE"
);
}
);
width = 1176;
}
);
unicode = 0052;
userData = {
com.typemytype.robofont.mark = (
0.656,
1,
0.6,
1
);
};
},
{
glyphname = S;
layers = (
{
anchors = (
{
name = btm;
position = "{531, -170}";
},
{
name = top;
position = "{531, 1700}";
}
);
layerId = "B61D43DE-5272-4FF4-A680-608B6BF5ED9E";
paths = (
{
closed = 1;
nodes = (
"161 59 OFFCURVE",
"322 -23 OFFCURVE",
"514 -23 CURVE SMOOTH",
"787 -23 OFFCURVE",
"953 113 OFFCURVE",
"961 374 CURVE SMOOTH",
"968 617 OFFCURVE",
"796 717 OFFCURVE",
"601 836 CURVE SMOOTH",
"486 909 OFFCURVE",
"391 963 OFFCURVE",
"392 1084 CURVE SMOOTH",
"392 1160 OFFCURVE",
"451 1235 OFFCURVE",
"551 1235 CURVE SMOOTH",
"683 1235 OFFCURVE",
"765 1151 OFFCURVE",
"796 1111 CURVE",
"911 1319 LINE",
"856 1369 OFFCURVE",
"755 1453 OFFCURVE",
"534 1453 CURVE SMOOTH",
"272 1453 OFFCURVE",
"130 1278 OFFCURVE",
"124 1080 CURVE SMOOTH",
"116 817 OFFCURVE",
"287 720 OFFCURVE",
"471 612 CURVE SMOOTH",
"608 529 OFFCURVE",
"692 477 OFFCURVE",
"692 368 CURVE SMOOTH",
"692 256 OFFCURVE",
"604 198 OFFCURVE",
"507 198 CURVE SMOOTH",
"369 198 OFFCURVE",
"244 288 OFFCURVE",
"196 349 CURVE",
"92 133 LINE"
);
}
);
width = 1041;
}
);
unicode = 0053;
userData = {
com.typemytype.robofont.mark = (
0.656,
1,
0.6,
1
);
};
},
{
glyphname = uni1E9E;
layers = (
{
layerId = "B61D43DE-5272-4FF4-A680-608B6BF5ED9E";
paths = (
{
closed = 1;
nodes = (
"565 10 OFFCURVE",
"647 -35 OFFCURVE",
"793 -35 CURVE SMOOTH",
"1054 -35 OFFCURVE",
"1197 174 OFFCURVE",
"1197 458 CURVE SMOOTH",
"1197 691 OFFCURVE",
"1050 729 OFFCURVE",
"804 753 CURVE",
"804 716 LINE",
"962 716 OFFCURVE",
"1084 999 OFFCURVE",
"1084 1090 CURVE SMOOTH",
"1084 1299 OFFCURVE",
"964 1468 OFFCURVE",
"661 1468 CURVE SMOOTH",
"466 1468 OFFCURVE",
"191 1380 OFFCURVE",
"191 1041 CURVE SMOOTH",
"191 -170 LINE",
"452 -170 LINE",
"452 1062 LINE SMOOTH",
"452 1158 OFFCURVE",
"526 1267 OFFCURVE",
"649 1267 CURVE SMOOTH",
"730 1267 OFFCURVE",
"826 1221 OFFCURVE",
"819 1060 CURVE SMOOTH",
"815 967 OFFCURVE",
"707 780 OFFCURVE",
"621 780 CURVE",
"621 637 LINE",
"821 637 OFFCURVE",
"918 625 OFFCURVE",
"918 455 CURVE SMOOTH",
"918 289 OFFCURVE",
"877 157 OFFCURVE",
"749 157 CURVE SMOOTH",
"677 157 OFFCURVE",
"612 193 OFFCURVE",
"596 208 CURVE",
"526 38 LINE"
);
}
);
width = 1209;
}
);
unicode = 1E9E;
userData = {
com.typemytype.robofont.mark = (
0.6,
0.986,
1,
1
);
};
},
{
glyphname = uni018F;
layers = (
{
anchors = (
{
name = top;
position = "{655, 1700}";
}
);
layerId = "B61D43DE-5272-4FF4-A680-608B6BF5ED9E";
paths = (
{
closed = 1;
nodes = (
"784 1227 OFFCURVE",
"910 1045 OFFCURVE",
"910 738 CURVE SMOOTH",
"910 408 OFFCURVE",
"809 183 OFFCURVE",
"579 183 CURVE SMOOTH",
"411 183 OFFCURVE",
"336 289 OFFCURVE",
"336 485 CURVE SMOOTH",
"336 496 OFFCURVE",
"337 567 OFFCURVE",
"338 579 CURVE",
"225 521 LINE",
"1065 521 LINE",
"1065 736 LINE",
"80 736 LINE",
"80 593 LINE",
"80 146 OFFCURVE",
"268 -36 OFFCURVE",
"586 -36 CURVE SMOOTH",
"986 -36 OFFCURVE",
"1196 268 OFFCURVE",
"1196 738 CURVE SMOOTH",
"1196 1198 OFFCURVE",
"974 1463 OFFCURVE",
"605 1463 CURVE SMOOTH",
"358 1463 OFFCURVE",
"210 1368 OFFCURVE",
"148 1322 CURVE",
"263 1113 LINE",
"374 1192 OFFCURVE",
"456 1227 OFFCURVE",
"588 1227 CURVE SMOOTH"
);
}
);
width = 1265;
}
);
unicode = 018F;
userData = {
com.typemytype.robofont.mark = (
0.6,
0.986,
1,
1
);
};
},
{
glyphname = T;
layers = (
{
anchors = (
{
name = btm;
position = "{499, -170}";
},
{
name = top;
position = "{499, 1700}";
}
);
layerId = "B61D43DE-5272-4FF4-A680-608B6BF5ED9E";
paths = (
{
closed = 1;
nodes = (
"634 1 LINE",
"634 1243 LINE",
"603 1197 LINE",
"961 1197 LINE",
"961 1428 LINE",
"37 1428 LINE",
"37 1197 LINE",
"396 1197 LINE",
"368 1243 LINE",
"368 1 LINE"
);
}
);
width = 997;
}
);
unicode = 0054;
userData = {
com.typemytype.robofont.mark = (
0.656,
1,
0.6,
1
);
};
},
{
glyphname = Tbar;
layers = (
{
components = (
{
name = T;
transform = "{1, 0, 0, 1, -5, 0}";
}
);
layerId = "B61D43DE-5272-4FF4-A680-608B6BF5ED9E";
paths = (
{
closed = 1;
nodes = (
"893 647 LINE",
"893 821 LINE",
"142 821 LINE",
"142 647 LINE"
);
}
);
width = 987;
}
);
unicode = 0166;
userData = {
com.typemytype.robofont.mark = (
0.6,
0.986,
1,
1
);
};
},
{
glyphname = U;
layers = (
{
anchors = (
{
name = top;
position = "{644, 1700}";
}
);
layerId = "B61D43DE-5272-4FF4-A680-608B6BF5ED9E";
paths = (
{
closed = 1;
nodes = (
"143 100 OFFCURVE",
"371 -36 OFFCURVE",
"651 -36 CURVE SMOOTH",
"924 -36 OFFCURVE",
"1145 100 OFFCURVE",
"1145 509 CURVE SMOOTH",
"1145 1428 LINE",
"879 1428 LINE",
"879 481 LINE SMOOTH",
"879 238 OFFCURVE",
"747 184 OFFCURVE",
"648 184 CURVE SMOOTH",
"550 184 OFFCURVE",
"409 240 OFFCURVE",
"409 481 CURVE SMOOTH",
"409 1428 LINE",
"143 1428 LINE",
"143 509 LINE"
);
}
);
width = 1288;
}
);
unicode = 0055;
userData = {
com.typemytype.robofont.mark = (
0.656,
1,
0.6,
1
);
};
},
{
glyphname = Uogonek;
layers = (
{
components = (
{
name = U;
transform = "{1, 0, 0, 1, -5, 0}";
}
);
layerId = "B61D43DE-5272-4FF4-A680-608B6BF5ED9E";
paths = (
{
closed = 1;
nodes = (
"398 -402 OFFCURVE",
"515 -508 OFFCURVE",
"713 -511 CURVE SMOOTH",
"798 -512 OFFCURVE",
"903 -489 OFFCURVE",
"937 -460 CURVE",
"904 -292 LINE",
"851 -321 OFFCURVE",
"771 -334 OFFCURVE",
"726 -333 CURVE SMOOTH",
"643 -332 OFFCURVE",
"600 -284 OFFCURVE",
"599 -214 CURVE SMOOTH",
"598 -129 OFFCURVE",
"713 -72 OFFCURVE",
"937 60 CURVE",
"777 67 LINE",
"632 0 LINE",
"473 -64 OFFCURVE",
"403 -154 OFFCURVE",
"401 -255 CURVE SMOOTH"
);
}
);
width = 1278;
}
);
unicode = 0172;
userData = {
com.typemytype.robofont.mark = (
0.6,
0.986,
1,
1
);
};
},
{
glyphname = V;
layers = (
{
anchors = (
{
name = top;
position = "{562, 1700}";
}
);
layerId = "B61D43DE-5272-4FF4-A680-608B6BF5ED9E";
paths = (
{
closed = 1;
nodes = (
"1144 1428 LINE",
"860 1428 LINE",
"529 481 LINE",
"608 481 LINE",
"269 1428 LINE",
"-20 1428 LINE",
"570 -46 LINE"
);
}
);
width = 1124;
}
);
unicode = 0056;
userData = {
com.typemytype.robofont.mark = (
0.656,
1,
0.6,
1
);
};
},
{
glyphname = W;
layers = (
{
anchors = (
{
name = top;
position = "{820, 1700}";
}
);
layerId = "B61D43DE-5272-4FF4-A680-608B6BF5ED9E";
paths = (
{
closed = 1;
nodes = (
"562 437 LINE",
"263 1428 LINE",
"-20 1428 LINE",
"473 -46 LINE",
"856 907 LINE",
"784 907 LINE",
"1173 -46 LINE",
"1660 1428 LINE",
"1381 1428 LINE",
"1093 421 LINE",
"1213 421 LINE",
"826 1463 LINE",
"460 461 LINE"
);
}
);
width = 1640;
}
);
unicode = 0057;
userData = {
com.typemytype.robofont.guides = (
{
angle = 0;
isGlobal = 0;
magnetic = 5;
x = 0;
y = 615;
}
);
com.typemytype.robofont.mark = (
0.656,
1,
0.6,
1
);
};
},
{
glyphname = X;
layers = (
{
anchors = (
{
name = top;
position = "{570, 1700}";
}
);
layerId = "B61D43DE-5272-4FF4-A680-608B6BF5ED9E";
paths = (
{
closed = 1;
nodes = (
"330 0 LINE",
"585 605 LINE",
"532 605 LINE",
"808 0 LINE",
"1130 0 LINE",
"730 743 LINE",
"732 678 LINE",
"1120 1427 LINE",
"819 1427 LINE",
"547 824 LINE",
"606 824 LINE",
"324 1427 LINE",
"16 1427 LINE",
"409 691 LINE",
"408 779 LINE",
"10 0 LINE"
);
}
);
width = 1138;
}
);
unicode = 0058;
userData = {
com.typemytype.robofont.mark = (
0.656,
1,
0.6,
1
);
};
},
{
glyphname = Y;
layers = (
{
anchors = (
{
name = top;
position = "{556, 1700}";
}
);
layerId = "B61D43DE-5272-4FF4-A680-608B6BF5ED9E";
paths = (
{
closed = 1;
nodes = (
"687 0 LINE",
"687 680 LINE",
"416 680 LINE",
"416 0 LINE"
);
},
{
closed = 1;
nodes = (
"1134 1428 LINE",
"849 1428 LINE",
"524 725 LINE",
"603 725 LINE",
"260 1428 LINE",
"-30 1428 LINE",
"560 317 LINE"
);
}
);
width = 1104;
}
);
unicode = 0059;
userData = {
com.typemytype.robofont.mark = (
0.656,
1,
0.6,
1
);
};
},
{
glyphname = Z;
layers = (
{
anchors = (
{
name = top;
position = "{543, 1700}";
}
);
layerId = "B61D43DE-5272-4FF4-A680-608B6BF5ED9E";
paths = (
{
closed = 1;
nodes = (
"993 0 LINE",
"993 211 LINE",
"324 211 LINE",
"414 91 LINE",
"1015 1428 LINE",
"129 1428 LINE",
"129 1216 LINE",
"681 1216 LINE",
"672 1316 LINE",
"63 0 LINE"
);
}
);
width = 1073;
}
);
unicode = 005A;
userData = {
com.typemytype.robofont.mark = (
0.656,
1,
0.6,
1
);
};
},
{
glyphname = a;
layers = (
{
anchors = (
{
name = top;
position = "{552, 1700}";
}
);
layerId = "B61D43DE-5272-4FF4-A680-608B6BF5ED9E";
paths = (
{
closed = 1;
nodes = (
"95 185 OFFCURVE",
"250 -30 OFFCURVE",
"499 -30 CURVE SMOOTH",
"643 -30 OFFCURVE",
"734 52 OFFCURVE",
"774 129 CURVE",
"774 0 LINE",
"1019 0 LINE",
"1019 1020 LINE",
"774 1020 LINE",
"775 1007 OFFCURVE",
"774 905 OFFCURVE",
"774 891 CURVE",
"734 963 OFFCURVE",
"643 1044 OFFCURVE",
"502 1044 CURVE SMOOTH",
"230 1044 OFFCURVE",
"95 843 OFFCURVE",
"95 508 CURVE SMOOTH"
);
},
{
closed = 1;
nodes = (
"362 759 OFFCURVE",
"470 838 OFFCURVE",
"565 838 CURVE SMOOTH",
"690 838 OFFCURVE",
"749 716 OFFCURVE",
"749 504 CURVE SMOOTH",
"749 270 OFFCURVE",
"658 175 OFFCURVE",
"560 175 CURVE SMOOTH",
"447 175 OFFCURVE",
"362 283 OFFCURVE",
"362 508 CURVE SMOOTH"
);
}
);
width = 1175;
}
);
unicode = 0061;
userData = {
com.typemytype.robofont.mark = (
0.656,
1,
0.6,
1
);
};
},
{
glyphname = aogonek;
layers = (
{
components = (
{
name = a;
transform = "{1, 0, 0, 1, 15, 0}";
}
);
layerId = "B61D43DE-5272-4FF4-A680-608B6BF5ED9E";
paths = (
{
closed = 1;
nodes = (
"558 -412 OFFCURVE",
"663 -508 OFFCURVE",
"861 -511 CURVE SMOOTH",
"946 -512 OFFCURVE",
"1051 -489 OFFCURVE",
"1085 -460 CURVE",
"1052 -312 LINE",
"999 -341 OFFCURVE",
"919 -354 OFFCURVE",
"874 -353 CURVE SMOOTH",
"791 -352 OFFCURVE",
"741 -304 OFFCURVE",
"747 -234 CURVE SMOOTH",
"756 -119 OFFCURVE",
"888 -36 OFFCURVE",
"1034 0 CURVE",
"925 67 LINE",
"780 20 LINE",
"621 -64 OFFCURVE",
"562 -164 OFFCURVE",
"559 -265 CURVE"
);
}
);
width = 1181;
}
);
unicode = 0105;
userData = {
com.typemytype.robofont.mark = (
0.6,
0.986,
1,
1
);
};
},
{
glyphname = ae;
layers = (
{
anchors = (
{
name = top;
position = "{877, 1700}";
}
);
layerId = "B61D43DE-5272-4FF4-A680-608B6BF5ED9E";
paths = (
{
closed = 1;
nodes = (
"95 215 OFFCURVE",
"250 -30 OFFCURVE",
"499 -30 CURVE SMOOTH",
"619 -30 OFFCURVE",
"727 52 OFFCURVE",
"769 159 CURVE",
"769 0 LINE",
"995 0 LINE",
"995 1020 LINE",
"769 1020 LINE",
"770 1009 OFFCURVE",
"769 883 OFFCURVE",
"769 871 CURVE",
"727 993 OFFCURVE",
"598 1044 OFFCURVE",
"502 1044 CURVE SMOOTH",
"230 1044 OFFCURVE",
"95 813 OFFCURVE",
"95 508 CURVE SMOOTH"
);
},
{
closed = 1;
nodes = (
"359 749 OFFCURVE",
"470 838 OFFCURVE",
"565 838 CURVE SMOOTH",
"687 838 OFFCURVE",
"757 706 OFFCURVE",
"757 504 CURVE SMOOTH",
"757 280 OFFCURVE",
"653 175 OFFCURVE",
"560 175 CURVE SMOOTH",
"447 175 OFFCURVE",
"359 293 OFFCURVE",
"359 508 CURVE SMOOTH"
);
},
{
closed = 1;
nodes = (
"1413 -36 OFFCURVE",
"1524 22 OFFCURVE",
"1580 60 CURVE",
"1482 253 LINE",
"1436 200 OFFCURVE",
"1339 158 OFFCURVE",
"1254 157 CURVE",
"1088 157 OFFCURVE",
"1011 265 OFFCURVE",
"1004 427 CURVE",
"1617 427 LINE",
"1619 457 OFFCURVE",
"1619 494 OFFCURVE",
"1619 522 CURVE SMOOTH",
"1619 806 OFFCURVE",
"1508 1044 OFFCURVE",
"1202 1044 CURVE SMOOTH",
"936 1044 OFFCURVE",
"812 794 OFFCURVE",
"812 497 CURVE SMOOTH",
"812 215 OFFCURVE",
"907 -36 OFFCURVE",
"1211 -36 CURVE SMOOTH"
);
},
{
closed = 1;
nodes = (
"1013 732 OFFCURVE",
"1064 849 OFFCURVE",
"1202 849 CURVE SMOOTH",
"1286 849 OFFCURVE",
"1362 780 OFFCURVE",
"1362 587 CURVE",
"1005 586 LINE"
);
}
);
width = 1718;
}
);
unicode = 00E6;
userData = {
com.typemytype.robofont.mark = (
0.656,
1,
0.6,
1
);
};
},
{
glyphname = b;
layers = (
{
anchors = (
{
name = top;
position = "{768, 1700}";
}
);
layerId = "B61D43DE-5272-4FF4-A680-608B6BF5ED9E";
paths = (
{
closed = 1;
nodes = (
"398 0 LINE",
"398 77 LINE",
"396 152 LINE",
"441 29 OFFCURVE",
"550 -30 OFFCURVE",
"665 -30 CURVE",
"890 -30 OFFCURVE",
"1067 148 OFFCURVE",
"1067 515 CURVE SMOOTH",
"1067 880 OFFCURVE",
"939 1046 OFFCURVE",
"685 1046 CURVE SMOOTH",
"573 1046 OFFCURVE",
"451 980 OFFCURVE",
"402 879 CURVE",
"408 988 LINE",
"408 1576 LINE",
"156 1576 LINE",
"156 0 LINE"
);
},
{
closed = 1;
nodes = (
"407 691 OFFCURVE",
"475 838 OFFCURVE",
"602 838 CURVE SMOOTH",
"706 838 OFFCURVE",
"801 744 OFFCURVE",
"801 514 CURVE SMOOTH",
"801 266 OFFCURVE",
"692 175 OFFCURVE",
"591 175 CURVE SMOOTH",
"473 175 OFFCURVE",
"407 306 OFFCURVE",
"407 497 CURVE SMOOTH"
);
}
);
width = 1162;
}
);
unicode = 0062;
userData = {
com.typemytype.robofont.mark = (
0.656,
1,
0.6,
1
);
};
},
{
glyphname = c;
layers = (
{
anchors = (
{
name = btm;
position = "{502, -170}";
},
{
name = top;
position = "{502, 1700}";
}
);
layerId = "B61D43DE-5272-4FF4-A680-608B6BF5ED9E";
paths = (
{
closed = 1;
nodes = (
"95 222 OFFCURVE",
"234 -36 OFFCURVE",
"559 -36 CURVE SMOOTH",
"725 -36 OFFCURVE",
"841 37 OFFCURVE",
"880 77 CURVE",
"802 256 LINE",
"763 212 OFFCURVE",
"686 177 OFFCURVE",
"588 177 CURVE SMOOTH",
"438 177 OFFCURVE",
"369 297 OFFCURVE",
"369 503 CURVE SMOOTH",
"369 691 OFFCURVE",
"437 826 OFFCURVE",
"588 826 CURVE SMOOTH",
"658 826 OFFCURVE",
"724 786 OFFCURVE",
"784 726 CURVE",
"868 943 LINE",
"778 1028 OFFCURVE",
"672 1044 OFFCURVE",
"556 1044 CURVE SMOOTH",
"248 1044 OFFCURVE",
"95 788 OFFCURVE",
"95 505 CURVE SMOOTH"
);
}
);
width = 924;
}
);
unicode = 0063;
userData = {
com.typemytype.robofont.mark = (
0.656,
1,
0.6,
1
);
};
},
{
glyphname = d;
layers = (
{
anchors = (
{
name = top;
position = "{412, 1700}";
}
);
layerId = "B61D43DE-5272-4FF4-A680-608B6BF5ED9E";
paths = (
{
closed = 1;
nodes = (
"95 185 OFFCURVE",
"251 -30 OFFCURVE",
"500 -30 CURVE SMOOTH",
"644 -30 OFFCURVE",
"732 52 OFFCURVE",
"776 139 CURVE",
"772 67 LINE",
"772 0 LINE",
"1007 0 LINE",
"1007 1576 LINE",
"755 1576 LINE",
"755 994 LINE",
"771 893 LINE",
"732 963 OFFCURVE",
"644 1044 OFFCURVE",
"503 1044 CURVE SMOOTH",
"231 1044 OFFCURVE",
"95 843 OFFCURVE",
"95 508 CURVE SMOOTH"
);
},
{
closed = 1;
nodes = (
"364 758 OFFCURVE",
"471 838 OFFCURVE",
"567 838 CURVE SMOOTH",
"691 838 OFFCURVE",
"748 716 OFFCURVE",
"748 504 CURVE SMOOTH",
"748 270 OFFCURVE",
"659 175 OFFCURVE",
"561 175 CURVE SMOOTH",
"448 175 OFFCURVE",
"364 283 OFFCURVE",
"364 509 CURVE SMOOTH"
);
}
);
width = 1163;
}
);
unicode = 0064;
userData = {
com.typemytype.robofont.mark = (
0.656,
1,
0.6,
1
);
};
},
{
glyphname = eth;
layers = (
{
layerId = "B61D43DE-5272-4FF4-A680-608B6BF5ED9E";
paths = (
{
closed = 1;
nodes = (
"608 1352 LINE",
"663 1417 LINE",
"783 1585 LINE",
"639 1678 LINE",
"518 1511 LINE",
"454 1424 LINE",
"319 1240 LINE",
"458 1150 LINE"
);
},
{
closed = 1;
nodes = (
"100 193 OFFCURVE",
"311 -34 OFFCURVE",
"562 -34 CURVE SMOOTH",
"835 -34 OFFCURVE",
"1052 145 OFFCURVE",
"1052 606 CURVE SMOOTH",
"1052 969 OFFCURVE",
"879 1327 OFFCURVE",
"622 1476 CURVE SMOOTH",
"595 1492 OFFCURVE",
"568 1510 OFFCURVE",
"539 1523 CURVE SMOOTH",
"453 1571 OFFCURVE",
"359 1603 OFFCURVE",
"262 1608 CURVE",
"218 1456 LINE",
"302 1449 OFFCURVE",
"383 1419 OFFCURVE",
"461 1367 CURVE SMOOTH",
"485 1354 OFFCURVE",
"506 1336 OFFCURVE",
"528 1322 CURVE SMOOTH",
"658 1239 OFFCURVE",
"757 1084 OFFCURVE",
"774 887 CURVE",
"803 919 LINE",
"732 1001 OFFCURVE",
"650 1046 OFFCURVE",
"538 1046 CURVE SMOOTH",
"245 1046 OFFCURVE",
"100 809 OFFCURVE",
"100 496 CURVE SMOOTH"
);
},
{
closed = 1;
nodes = (
"375 690 OFFCURVE",
"445 838 OFFCURVE",
"578 838 CURVE SMOOTH",
"691 838 OFFCURVE",
"755 736 OFFCURVE",
"775 646 CURVE",
"781 602 OFFCURVE",
"781 566 OFFCURVE",
"781 515 CURVE SMOOTH",
"781 322 OFFCURVE",
"711 174 OFFCURVE",
"577 174 CURVE SMOOTH",
"459 174 OFFCURVE",
"375 308 OFFCURVE",
"375 507 CURVE SMOOTH"
);
}
);
width = 1142;
}
);
unicode = 00F0;
userData = {
com.typemytype.robofont.mark = (
0.656,
1,
0.6,
1
);
};
},
{
glyphname = dcroat;
layers = (
{
components = (
{
name = d;
transform = "{1, 0, 0, 1, 19, 0}";
}
);
layerId = "B61D43DE-5272-4FF4-A680-608B6BF5ED9E";
paths = (
{
closed = 1;
nodes = (
"1133 1265 LINE",
"1134 1391 LINE",
"631 1391 LINE",
"630 1265 LINE"
);
}
);
width = 1190;
}
);
unicode = 0111;
userData = {
com.typemytype.robofont.mark = (
0.6,
0.986,
1,
1
);
};
},
{
glyphname = e;
layers = (
{
anchors = (
{
name = top;
position = "{569, 1700}";
}
);
layerId = "B61D43DE-5272-4FF4-A680-608B6BF5ED9E";
paths = (
{
closed = 1;
nodes = (
"779 -36 OFFCURVE",
"890 22 OFFCURVE",
"946 60 CURVE",
"864 253 LINE",
"818 200 OFFCURVE",
"705 158 OFFCURVE",
"620 157 CURVE",
"454 157 OFFCURVE",
"374 265 OFFCURVE",
"367 427 CURVE",
"983 427 LINE",
"985 457 OFFCURVE",
"985 494 OFFCURVE",
"985 522 CURVE SMOOTH",
"985 846 OFFCURVE",
"879 1044 OFFCURVE",
"573 1044 CURVE SMOOTH",
"267 1044 OFFCURVE",
"98 794 OFFCURVE",
"98 497 CURVE SMOOTH",
"98 215 OFFCURVE",
"233 -36 OFFCURVE",
"577 -36 CURVE SMOOTH"
);
},
{
closed = 1;
nodes = (
"373 732 OFFCURVE",
"441 849 OFFCURVE",
"579 849 CURVE SMOOTH",
"663 849 OFFCURVE",
"728 802 OFFCURVE",
"728 587 CURVE",
"365 586 LINE"
);
}
);
width = 1075;
}
);
unicode = 0065;
userData = {
com.typemytype.robofont.guides = (
{
angle = 0;
isGlobal = 0;
magnetic = 5;
x = 0;
y = 869;
}
);
com.typemytype.robofont.mark = (
0.656,
1,
0.6,
1
);
};
},
{
glyphname = eogonek;
layers = (
{
components = (
{
name = e;
transform = "{1, 0, 0, 1, 2, 0}";
}
);
layerId = "B61D43DE-5272-4FF4-A680-608B6BF5ED9E";
paths = (
{
closed = 1;
nodes = (
"409 -402 OFFCURVE",
"526 -508 OFFCURVE",
"724 -511 CURVE SMOOTH",
"809 -512 OFFCURVE",
"914 -489 OFFCURVE",
"948 -460 CURVE",
"915 -292 LINE",
"862 -321 OFFCURVE",
"782 -334 OFFCURVE",
"737 -333 CURVE SMOOTH",
"654 -332 OFFCURVE",
"611 -284 OFFCURVE",
"610 -214 CURVE SMOOTH",
"609 -129 OFFCURVE",
"724 -72 OFFCURVE",
"948 60 CURVE",
"788 67 LINE",
"643 0 LINE",
"484 -64 OFFCURVE",
"414 -154 OFFCURVE",
"412 -255 CURVE SMOOTH"
);
}
);
width = 1086;
}
);
unicode = 0119;
userData = {
com.typemytype.robofont.mark = (
0.6,
0.986,
1,
1
);
};
},
{
glyphname = uni0259;
layers = (
{
anchors = (
{
name = top;
position = "{571, 1700}";
}
);
layerId = "B61D43DE-5272-4FF4-A680-608B6BF5ED9E";
paths = (
{
closed = 1;
nodes = (
"306 1044 OFFCURVE",
"195 986 OFFCURVE",
"139 948 CURVE",
"237 755 LINE",
"283 808 OFFCURVE",
"380 850 OFFCURVE",
"465 851 CURVE",
"631 851 OFFCURVE",
"711 743 OFFCURVE",
"718 581 CURVE",
"102 581 LINE",
"100 551 OFFCURVE",
"100 514 OFFCURVE",
"100 486 CURVE SMOOTH",
"100 162 OFFCURVE",
"206 -36 OFFCURVE",
"512 -36 CURVE SMOOTH",
"818 -36 OFFCURVE",
"987 214 OFFCURVE",
"987 511 CURVE SMOOTH",
"987 793 OFFCURVE",
"852 1044 OFFCURVE",
"508 1044 CURVE"
);
},
{
closed = 1;
nodes = (
"712 276 OFFCURVE",
"655 159 OFFCURVE",
"517 159 CURVE SMOOTH",
"433 159 OFFCURVE",
"357 228 OFFCURVE",
"357 421 CURVE",
"720 422 LINE"
);
}
);
width = 1086;
}
);
unicode = 0259;
userData = {
com.typemytype.robofont.guides = (
{
angle = 0;
isGlobal = 0;
magnetic = 5;
x = 0;
y = 869;
}
);
com.typemytype.robofont.mark = (
0.6,
0.986,
1,
1
);
};
},
{
glyphname = f;
layers = (
{
anchors = (
{
name = top;
position = "{395, 2109}";
}
);
layerId = "B61D43DE-5272-4FF4-A680-608B6BF5ED9E";
paths = (
{
closed = 1;
nodes = (
"444 0 LINE",
"444 826 LINE",
"676 826 LINE",
"676 1020 LINE",
"444 1020 LINE",
"444 1212 LINE SMOOTH",
"444 1349 OFFCURVE",
"522 1397 OFFCURVE",
"597 1397 CURVE SMOOTH",
"642 1397 OFFCURVE",
"714 1379 OFFCURVE",
"746 1340 CURVE",
"746 1563 LINE",
"734 1575 OFFCURVE",
"659 1608 OFFCURVE",
"534 1608 CURVE SMOOTH",
"398 1608 OFFCURVE",
"188 1543 OFFCURVE",
"188 1226 CURVE SMOOTH",
"188 1020 LINE",
"52 1020 LINE",
"52 826 LINE",
"188 826 LINE",
"188 0 LINE"
);
}
);
width = 714;
}
);
unicode = 0066;
userData = {
com.typemytype.robofont.mark = (
0.656,
1,
0.6,
1
);
};
},
{
glyphname = g;
layers = (
{
anchors = (
{
name = top;
position = "{569, 1700}";
}
);
layerId = "B61D43DE-5272-4FF4-A680-608B6BF5ED9E";
paths = (
{
closed = 1;
nodes = (
"776 1 LINE",
"772 -238 OFFCURVE",
"696 -315 OFFCURVE",
"507 -315 CURVE SMOOTH",
"411 -315 OFFCURVE",
"301 -265 OFFCURVE",
"239 -166 CURVE",
"172 -405 LINE",
"228 -452 OFFCURVE",
"331 -520 OFFCURVE",
"520 -520 CURVE SMOOTH",
"890 -520 OFFCURVE",
"1027 -324 OFFCURVE",
"1027 16 CURVE SMOOTH",
"1027 1020 LINE",
"807 1020 LINE",
"794 818 LINE",
"839 848 LINE",
"799 950 OFFCURVE",
"691 1046 OFFCURVE",
"531 1046 CURVE SMOOTH",
"282 1046 OFFCURVE",
"103 885 OFFCURVE",
"103 508 CURVE SMOOTH",
"103 137 OFFCURVE",
"303 -34 OFFCURVE",
"507 -34 CURVE SMOOTH",
"673 -34 OFFCURVE",
"758 58 OFFCURVE",
"796 178 CURVE",
"776 178 LINE"
);
},
{
closed = 1;
nodes = (
"379 754 OFFCURVE",
"475 838 OFFCURVE",
"579 838 CURVE SMOOTH",
"705 838 OFFCURVE",
"777 706 OFFCURVE",
"777 512 CURVE SMOOTH",
"777 278 OFFCURVE",
"696 176 OFFCURVE",
"578 176 CURVE SMOOTH",
"461 176 OFFCURVE",
"379 288 OFFCURVE",
"379 509 CURVE SMOOTH"
);
}
);
width = 1183;
}
);
unicode = 0067;
userData = {
com.typemytype.robofont.mark = (
0.656,
1,
0.6,
1
);
};
},
{
glyphname = h;
layers = (
{
anchors = (
{
name = top;
position = "{578, 1700}";
}
);
layerId = "B61D43DE-5272-4FF4-A680-608B6BF5ED9E";
paths = (
{
closed = 1;
nodes = (
"408 0 LINE",
"408 647 LINE SMOOTH",
"408 760 OFFCURVE",
"495 838 OFFCURVE",
"592 838 CURVE SMOOTH",
"689 838 OFFCURVE",
"746 760 OFFCURVE",
"746 647 CURVE SMOOTH",
"746 0 LINE",
"1007 0 LINE",
"1007 673 LINE SMOOTH",
"1007 906 OFFCURVE",
"908 1044 OFFCURVE",
"702 1044 CURVE SMOOTH",
"511 1044 OFFCURVE",
"408 932 OFFCURVE",
"360 835 CURVE",
"393 795 LINE",
"408 1007 LINE",
"408 1576 LINE",
"156 1576 LINE",
"156 0 LINE"
);
}
);
width = 1151;
}
);
unicode = 0068;
userData = {
com.typemytype.robofont.mark = (
0.656,
1,
0.6,
1
);
};
},
{
glyphname = hbar;
layers = (
{
components = (
{
name = h;
transform = "{1, 0, 0, 1, 8, 0}";
}
);
layerId = "B61D43DE-5272-4FF4-A680-608B6BF5ED9E";
paths = (
{
closed = 1;
nodes = (
"629 1222 LINE",
"629 1345 LINE",
"25 1345 LINE",
"25 1222 LINE"
);
}
);
width = 1166;
}
);
unicode = 0127;
userData = {
com.typemytype.robofont.mark = (
0.6,
0.986,
1,
1
);
};
},
{
glyphname = idotless;
lastChange = "2018-05-15 03:20:13 +0000";
layers = (
{
anchors = (
{
name = top;
position = "{286, 1704}";
}
);
layerId = "B61D43DE-5272-4FF4-A680-608B6BF5ED9E";
paths = (
{
closed = 1;
nodes = (
"428 0 LINE",
"428 1020 LINE",
"155 1020 LINE",
"155 0 LINE"
);
}
);
width = 583;
}
);
unicode = 0131;
userData = {
com.typemytype.robofont.mark = (
0.656,
1,
0.6,
1
);
};
},
{
glyphname = iogonek;
layers = (
{
layerId = "B61D43DE-5272-4FF4-A680-608B6BF5ED9E";
paths = (
{
closed = 1;
nodes = (
"-47 -412 OFFCURVE",
"58 -508 OFFCURVE",
"256 -511 CURVE SMOOTH",
"341 -512 OFFCURVE",
"446 -489 OFFCURVE",
"480 -460 CURVE",
"447 -312 LINE",
"394 -341 OFFCURVE",
"314 -354 OFFCURVE",
"269 -353 CURVE SMOOTH",
"186 -352 OFFCURVE",
"136 -304 OFFCURVE",
"142 -234 CURVE SMOOTH",
"151 -119 OFFCURVE",
"283 -36 OFFCURVE",
"429 0 CURVE",
"320 67 LINE",
"175 20 LINE",
"16 -64 OFFCURVE",
"-43 -164 OFFCURVE",
"-46 -265 CURVE"
);
}
);
width = 575;
}
);
unicode = 012F;
userData = {
com.typemytype.robofont.mark = (
0.6,
0.986,
1,
1
);
};
},
{
glyphname = dotlessj;
layers = (
{
anchors = (
{
name = top;
position = "{282, 1704}";
}
);
layerId = "B61D43DE-5272-4FF4-A680-608B6BF5ED9E";
paths = (
{
closed = 1;
nodes = (
"157 -230 OFFCURVE",
"139 -342 OFFCURVE",
"52 -342 CURVE SMOOTH",
"1 -342 OFFCURVE",
"-80 -313 OFFCURVE",
"-132 -280 CURVE",
"-164 -482 LINE",
"-100 -504 OFFCURVE",
"1 -516 OFFCURVE",
"56 -516 CURVE SMOOTH",
"274 -516 OFFCURVE",
"409 -433 OFFCURVE",
"416 -145 CURVE",
"416 1020 LINE",
"158 1020 LINE",
"158 -135 LINE"
);
}
);
width = 575;
}
);
unicode = 0237;
},
{
glyphname = k;
layers = (
{
anchors = (
{
name = btm;
position = "{591, -170}";
},
{
name = top;
position = "{591, 1700}";
}
);
layerId = "B61D43DE-5272-4FF4-A680-608B6BF5ED9E";
paths = (
{
closed = 1;
nodes = (
"406 0 LINE",
"406 232 LINE",
"398 465 LINE",
"729 0 LINE",
"1042 0 LINE",
"637 551 LINE",
"993 1020 LINE",
"698 1020 LINE",
"398 581 LINE",
"406 792 LINE",
"406 1576 LINE",
"156 1576 LINE",
"156 0 LINE"
);
}
);
width = 1030;
}
);
unicode = 006B;
userData = {
com.typemytype.robofont.mark = (
0.656,
1,
0.6,
1
);
};
},
{
glyphname = kgreenlandic;
layers = (
{
layerId = "B61D43DE-5272-4FF4-A680-608B6BF5ED9E";
paths = (
{
closed = 1;
nodes = (
"441 0 LINE",
"441 388 LINE",
"733 0 LINE",
"1074 0 LINE",
"661 536 LINE",
"1034 1020 LINE",
"709 1020 LINE",
"441 632 LINE",
"441 1020 LINE",
"164 1020 LINE",
"164 0 LINE"
);
}
);
width = 1047;
}
);
unicode = 0138;
userData = {
com.typemytype.robofont.mark = (
0.6,
0.986,
1,
1
);
};
},
{
glyphname = l;
layers = (
{
anchors = (
{
name = btm;
position = "{276, -170}";
},
{
name = top;
position = "{286, 1700}";
}
);
layerId = "B61D43DE-5272-4FF4-A680-608B6BF5ED9E";
paths = (
{
closed = 1;
nodes = (
"416 0 LINE",
"416 1576 LINE",
"157 1576 LINE",
"157 0 LINE"
);
}
);
width = 573;
}
);
unicode = 006C;
userData = {
com.typemytype.robofont.mark = (
0.656,
1,
0.6,
1
);
};
},
{
glyphname = lacute;
layers = (
{
components = (
{
name = acute.cap;
transform = "{1, 0, 0, 1, 292, 27}";
}
);
layerId = "B61D43DE-5272-4FF4-A680-608B6BF5ED9E";
paths = (
{
closed = 1;
nodes = (
"430 0 LINE",
"430 1428 LINE",
"154 1428 LINE",
"154 0 LINE"
);
}
);
width = 585;
}
);
unicode = 013A;
userData = {
com.typemytype.robofont.mark = (
0.6,
0.986,
1,
1
);
};
},
{
glyphname = lcaron;
layers = (
{
components = (
{
name = l;
transform = "{1, 0, 0, 1, 1, 0}";
}
);
layerId = "B61D43DE-5272-4FF4-A680-608B6BF5ED9E";
paths = (
{
closed = 1;
nodes = (
"725 1061 LINE",
"740 1096 OFFCURVE",
"794 1200 OFFCURVE",
"794 1431 CURVE SMOOTH",
"794 1470 OFFCURVE",
"793 1534 OFFCURVE",
"787 1576 CURVE",
"570 1576 LINE",
"576 1521 OFFCURVE",
"578 1493 OFFCURVE",
"578 1374 CURVE SMOOTH",
"578 1258 OFFCURVE",
"563 1119 OFFCURVE",
"544 1061 CURVE"
);
}
);
width = 736;
}
);
unicode = 013E;
userData = {
com.typemytype.robofont.mark = (
0.6,
0.986,
1,
1
);
};
},
{
glyphname = ldot;
layers = (
{
components = (
{
name = l;
transform = "{1, 0, 0, 1, 1, 0}";
}
);
layerId = "B61D43DE-5272-4FF4-A680-608B6BF5ED9E";
paths = (
{
closed = 1;
nodes = (
"854 683 LINE",
"854 948 LINE",
"581 948 LINE",
"581 683 LINE"
);
}
);
width = 863;
}
);
unicode = 0140;
userData = {
com.typemytype.robofont.mark = (
0.6,
0.986,
1,
1
);
};
},
{
glyphname = lslash;
layers = (
{
components = (
{
name = l;
transform = "{1, 0, 0, 1, 1, 0}";
}
);
layerId = "B61D43DE-5272-4FF4-A680-608B6BF5ED9E";
paths = (
{
closed = 1;
nodes = (
"582 870 LINE",
"582 1057 LINE",
"4 787 LINE",
"4 600 LINE"
);
}
);
width = 575;
}
);
unicode = 0142;
userData = {
com.typemytype.robofont.mark = (
0.6,
0.986,
1,
1
);
};
},
{
glyphname = m;
layers = (
{
anchors = (
{
name = top;
position = "{909, 1700}";
}
);
layerId = "B61D43DE-5272-4FF4-A680-608B6BF5ED9E";
paths = (
{
closed = 1;
nodes = (
"1007 760 OFFCURVE",
"1100 838 OFFCURVE",
"1197 838 CURVE SMOOTH",
"1294 838 OFFCURVE",
"1335 760 OFFCURVE",
"1335 647 CURVE SMOOTH",
"1335 0 LINE",
"1595 0 LINE",
"1595 673 LINE SMOOTH",
"1595 906 OFFCURVE",
"1496 1044 OFFCURVE",
"1290 1044 CURVE SMOOTH",
"1099 1044 OFFCURVE",
"1009 937 OFFCURVE",
"961 845 CURVE",
"954 757 LINE",
"1007 647 LINE"
);
},
{
closed = 1;
nodes = (
"417 0 LINE",
"417 647 LINE SMOOTH",
"417 760 OFFCURVE",
"500 842 OFFCURVE",
"597 842 CURVE SMOOTH",
"695 842 OFFCURVE",
"746 760 OFFCURVE",
"746 647 CURVE SMOOTH",
"746 0 LINE",
"1007 0 LINE",
"1007 668 LINE SMOOTH",
"1007 901 OFFCURVE",
"905 1044 OFFCURVE",
"698 1044 CURVE SMOOTH",
"507 1044 OFFCURVE",
"417 932 OFFCURVE",
"369 835 CURVE",
"402 795 LINE",
"392 1020 LINE",
"156 1020 LINE",
"156 0 LINE"
);
}
);
width = 1739;
}
);
unicode = 006D;
userData = {
com.typemytype.robofont.mark = (
0.656,
1,
0.6,
1
);
};
},
{
glyphname = n;
layers = (
{
anchors = (
{
name = btm;
position = "{580, -170}";
},
{
name = top;
position = "{648, 1700}";
}
);
layerId = "B61D43DE-5272-4FF4-A680-608B6BF5ED9E";
paths = (
{
closed = 1;
nodes = (
"417 0 LINE",
"417 652 LINE SMOOTH",
"417 764 OFFCURVE",
"501 842 OFFCURVE",
"599 842 CURVE SMOOTH",
"696 842 OFFCURVE",
"744 764 OFFCURVE",
"744 652 CURVE SMOOTH",
"744 0 LINE",
"1005 0 LINE",
"1005 673 LINE SMOOTH",
"1005 906 OFFCURVE",
"906 1045 OFFCURVE",
"699 1045 CURVE SMOOTH",
"509 1045 OFFCURVE",
"417 932 OFFCURVE",
"369 835 CURVE",
"402 795 LINE",
"393 1020 LINE",
"156 1020 LINE",
"156 0 LINE"
);
}
);
width = 1149;
}
);
unicode = 006E;
userData = {
com.typemytype.robofont.mark = (
0.656,
1,
0.6,
1
);
};
},
{
glyphname = eng;
layers = (
{
layerId = "B61D43DE-5272-4FF4-A680-608B6BF5ED9E";
paths = (
{
closed = 1;
nodes = (
"1033 906 OFFCURVE",
"924 1045 OFFCURVE",
"717 1045 CURVE SMOOTH",
"527 1045 OFFCURVE",
"435 937 OFFCURVE",
"387 845 CURVE",
"420 805 LINE",
"411 1020 LINE",
"164 1020 LINE",
"164 0 LINE",
"435 0 LINE",
"435 652 LINE SMOOTH",
"435 764 OFFCURVE",
"516 842 OFFCURVE",
"614 842 CURVE SMOOTH",
"711 842 OFFCURVE",
"762 764 OFFCURVE",
"762 652 CURVE SMOOTH",
"762 -144 LINE",
"760 -240 OFFCURVE",
"741 -350 OFFCURVE",
"658 -350 CURVE SMOOTH",
"605 -350 OFFCURVE",
"527 -324 OFFCURVE",
"473 -291 CURVE",
"441 -491 LINE",
"502 -513 OFFCURVE",
"602 -524 OFFCURVE",
"660 -524 CURVE SMOOTH",
"880 -524 OFFCURVE",
"1026 -441 OFFCURVE",
"1033 -153 CURVE",
"1033 673 LINE"
);
}
);
width = 1180;
}
);
unicode = 014B;
userData = {
com.typemytype.robofont.mark = (
0.6,
0.986,
1,
1
);
};
},
{
glyphname = o;
layers = (
{
anchors = (
{
name = top;
position = "{569, 1700}";
}
);
layerId = "B61D43DE-5272-4FF4-A680-608B6BF5ED9E";
paths = (
{
closed = 1;
nodes = (
"374 740 OFFCURVE",
"445 852 OFFCURVE",
"573 852 CURVE SMOOTH",
"700 852 OFFCURVE",
"763 721 OFFCURVE",
"763 504 CURVE SMOOTH",
"763 287 OFFCURVE",
"700 151 OFFCURVE",
"573 151 CURVE SMOOTH",
"445 151 OFFCURVE",
"374 268 OFFCURVE",
"374 504 CURVE SMOOTH"
);
},
{
closed = 1;
nodes = (
"98 169 OFFCURVE",
"272 -36 OFFCURVE",
"574 -36 CURVE SMOOTH",
"875 -36 OFFCURVE",
"1041 180 OFFCURVE",
"1041 504 CURVE SMOOTH",
"1041 828 OFFCURVE",
"875 1044 OFFCURVE",
"574 1044 CURVE SMOOTH",
"272 1044 OFFCURVE",
"98 839 OFFCURVE",
"98 504 CURVE SMOOTH"
);
}
);
width = 1139;
}
);
unicode = 006F;
userData = {
com.typemytype.robofont.mark = (
0.656,
1,
0.6,
1
);
};
},
{
glyphname = oslash;
layers = (
{
components = (
{
name = o;
transform = "{1, 0, 0, 1, -3, 0}";
}
);
layerId = "B61D43DE-5272-4FF4-A680-608B6BF5ED9E";
paths = (
{
closed = 1;
nodes = (
"221 -124 LINE",
"382 126 LINE",
"412 181 LINE",
"807 808 LINE",
"878 844 LINE",
"1025 1073 LINE",
"904 1151 LINE",
"761 933 LINE",
"708 847 LINE",
"348 251 LINE",
"285 243 LINE",
"100 -44 LINE"
);
}
);
width = 1133;
}
);
unicode = 00F8;
userData = {
com.typemytype.robofont.mark = (
0.656,
1,
0.6,
1
);
};
},
{
glyphname = oe;
layers = (
{
layerId = "B61D43DE-5272-4FF4-A680-608B6BF5ED9E";
paths = (
{
closed = 1;
nodes = (
"1454 -36 OFFCURVE",
"1565 22 OFFCURVE",
"1621 60 CURVE",
"1523 253 LINE",
"1477 200 OFFCURVE",
"1380 158 OFFCURVE",
"1295 157 CURVE",
"1129 157 OFFCURVE",
"1052 265 OFFCURVE",
"1045 427 CURVE",
"1658 427 LINE",
"1660 457 OFFCURVE",
"1660 494 OFFCURVE",
"1660 522 CURVE SMOOTH",
"1660 806 OFFCURVE",
"1549 1044 OFFCURVE",
"1243 1044 CURVE SMOOTH",
"937 1044 OFFCURVE",
"803 804 OFFCURVE",
"803 497 CURVE SMOOTH",
"803 205 OFFCURVE",
"908 -36 OFFCURVE",
"1252 -36 CURVE SMOOTH"
);
},
{
closed = 1;
nodes = (
"1054 732 OFFCURVE",
"1105 849 OFFCURVE",
"1243 849 CURVE SMOOTH",
"1327 849 OFFCURVE",
"1400 780 OFFCURVE",
"1400 587 CURVE",
"1046 586 LINE"
);
},
{
closed = 1;
nodes = (
"373 740 OFFCURVE",
"437 849 OFFCURVE",
"572 849 CURVE SMOOTH",
"706 849 OFFCURVE",
"763 721 OFFCURVE",
"763 504 CURVE SMOOTH",
"763 287 OFFCURVE",
"706 157 OFFCURVE",
"572 157 CURVE SMOOTH",
"437 157 OFFCURVE",
"373 268 OFFCURVE",
"373 504 CURVE SMOOTH"
);
},
{
closed = 1;
nodes = (
"95 169 OFFCURVE",
"255 -36 OFFCURVE",
"573 -36 CURVE SMOOTH",
"861 -36 OFFCURVE",
"976 180 OFFCURVE",
"976 504 CURVE SMOOTH",
"976 828 OFFCURVE",
"871 1044 OFFCURVE",
"573 1044 CURVE SMOOTH",
"255 1044 OFFCURVE",
"95 839 OFFCURVE",
"95 504 CURVE SMOOTH"
);
}
);
width = 1755;
}
);
unicode = 0153;
userData = {
com.typemytype.robofont.mark = (
0.656,
1,
0.6,
1
);
};
},
{
glyphname = p;
layers = (
{
anchors = (
{
name = top;
position = "{668, 1700}";
}
);
layerId = "B61D43DE-5272-4FF4-A680-608B6BF5ED9E";
paths = (
{
closed = 1;
nodes = (
"408 1020 LINE",
"156 1020 LINE",
"156 -488 LINE",
"408 -488 LINE",
"408 10 LINE",
"406 110 LINE",
"445 34 OFFCURVE",
"535 -36 OFFCURVE",
"654 -36 CURVE SMOOTH",
"880 -36 OFFCURVE",
"1065 158 OFFCURVE",
"1065 515 CURVE SMOOTH",
"1065 860 OFFCURVE",
"899 1046 OFFCURVE",
"665 1046 CURVE SMOOTH",
"544 1046 OFFCURVE",
"433 955 OFFCURVE",
"384 856 CURVE",
"406 856 LINE"
);
},
{
closed = 1;
nodes = (
"407 691 OFFCURVE",
"473 838 OFFCURVE",
"600 838 CURVE SMOOTH",
"704 838 OFFCURVE",
"790 756 OFFCURVE",
"790 514 CURVE SMOOTH",
"790 266 OFFCURVE",
"690 175 OFFCURVE",
"589 175 CURVE SMOOTH",
"471 175 OFFCURVE",
"407 306 OFFCURVE",
"407 497 CURVE SMOOTH"
);
}
);
width = 1160;
}
);
unicode = 0070;
userData = {
com.typemytype.robofont.mark = (
0.656,
1,
0.6,
1
);
};
},
{
glyphname = thorn;
layers = (
{
anchors = (
{
name = top;
position = "{629, 1700}";
}
);
components = (
{
name = b;
transform = "{1, 0, 0, 1, 18, 0}";
}
);
layerId = "B61D43DE-5272-4FF4-A680-608B6BF5ED9E";
paths = (
{
closed = 1;
nodes = (
"168 123 LINE",
"168 -488 LINE",
"426 -488 LINE",
"426 0 LINE",
"369 119 LINE"
);
}
);
width = 1200;
}
);
unicode = 00FE;
userData = {
com.typemytype.robofont.mark = (
0.656,
1,
0.6,
1
);
};
},
{
glyphname = q;
layers = (
{
anchors = (
{
name = top;
position = "{559, 1700}";
}
);
layerId = "B61D43DE-5272-4FF4-A680-608B6BF5ED9E";
paths = (
{
closed = 1;
nodes = (
"754 -488 LINE",
"1009 -488 LINE",
"1009 1020 LINE",
"767 1020 LINE",
"765 816 LINE",
"814 831 LINE",
"776 945 OFFCURVE",
"670 1046 OFFCURVE",
"519 1046 CURVE SMOOTH",
"280 1046 OFFCURVE",
"95 886 OFFCURVE",
"95 508 CURVE SMOOTH",
"95 168 OFFCURVE",
"271 -34 OFFCURVE",
"494 -34 CURVE SMOOTH",
"620 -34 OFFCURVE",
"730 25 OFFCURVE",
"774 157 CURVE",
"765 157 LINE",
"754 10 LINE"
);
},
{
closed = 1;
nodes = (
"356 764 OFFCURVE",
"478 838 OFFCURVE",
"569 838 CURVE SMOOTH",
"697 838 OFFCURVE",
"755 704 OFFCURVE",
"755 511 CURVE SMOOTH",
"755 277 OFFCURVE",
"689 176 OFFCURVE",
"567 176 CURVE SMOOTH",
"455 176 OFFCURVE",
"356 287 OFFCURVE",
"356 508 CURVE SMOOTH"
);
}
);
width = 1165;
}
);
unicode = 0071;
userData = {
com.typemytype.robofont.mark = (
0.656,
1,
0.6,
1
);
};
},
{
glyphname = r;
layers = (
{
anchors = (
{
name = btm;
position = "{289, -170}";
},
{
name = top;
position = "{551, 1700}";
}
);
layerId = "B61D43DE-5272-4FF4-A680-608B6BF5ED9E";
paths = (
{
closed = 1;
nodes = (
"402 0 LINE",
"402 626 LINE SMOOTH",
"402 669 OFFCURVE",
"447 819 OFFCURVE",
"571 819 CURVE SMOOTH",
"651 819 OFFCURVE",
"693 765 OFFCURVE",
"693 614 CURVE",
"909 700 LINE",
"909 854 OFFCURVE",
"864 1044 OFFCURVE",
"677 1044 CURVE SMOOTH",
"534 1044 OFFCURVE",
"430 948 OFFCURVE",
"397 888 CURVE",
"386 1020 LINE",
"141 1020 LINE",
"141 0 LINE"
);
}
);
width = 924;
}
);
unicode = 0072;
userData = {
com.typemytype.robofont.mark = (
0.656,
1,
0.6,
1
);
};
},
{
glyphname = s;
layers = (
{
anchors = (
{
name = btm;
position = "{445, -170}";
},
{
name = top;
position = "{471, 1700}";
}
);
layerId = "B61D43DE-5272-4FF4-A680-608B6BF5ED9E";
paths = (
{
closed = 1;
nodes = (
"105 50 OFFCURVE",
"245 -36 OFFCURVE",
"444 -36 CURVE SMOOTH",
"727 -36 OFFCURVE",
"839 137 OFFCURVE",
"839 306 CURVE SMOOTH",
"839 446 OFFCURVE",
"740 525 OFFCURVE",
"593 591 CURVE SMOOTH",
"476 642 OFFCURVE",
"367 676 OFFCURVE",
"367 751 CURVE SMOOTH",
"367 811 OFFCURVE",
"401 848 OFFCURVE",
"524 848 CURVE SMOOTH",
"601 848 OFFCURVE",
"686 811 OFFCURVE",
"740 771 CURVE",
"809 954 LINE",
"773 992 OFFCURVE",
"648 1044 OFFCURVE",
"490 1044 CURVE SMOOTH",
"241 1044 OFFCURVE",
"110 919 OFFCURVE",
"110 736 CURVE SMOOTH",
"110 544 OFFCURVE",
"276 466 OFFCURVE",
"378 420 CURVE SMOOTH",
"514 361 OFFCURVE",
"584 333 OFFCURVE",
"584 269 CURVE SMOOTH",
"584 196 OFFCURVE",
"517 158 OFFCURVE",
"419 158 CURVE SMOOTH",
"278 158 OFFCURVE",
"209 219 OFFCURVE",
"149 268 CURVE",
"74 86 LINE"
);
}
);
width = 918;
}
);
unicode = 0073;
userData = {
com.typemytype.robofont.mark = (
0.656,
1,
0.6,
1
);
};
},
{
glyphname = germandbls;
layers = (
{
layerId = "B61D43DE-5272-4FF4-A680-608B6BF5ED9E";
paths = (
{
closed = 1;
nodes = (
"565 10 OFFCURVE",
"647 -35 OFFCURVE",
"793 -35 CURVE SMOOTH",
"1054 -35 OFFCURVE",
"1197 174 OFFCURVE",
"1197 458 CURVE SMOOTH",
"1197 691 OFFCURVE",
"1050 869 OFFCURVE",
"804 893 CURVE",
"804 856 LINE",
"962 856 OFFCURVE",
"1050 1038 OFFCURVE",
"1050 1230 CURVE SMOOTH",
"1050 1439 OFFCURVE",
"934 1608 OFFCURVE",
"631 1608 CURVE SMOOTH",
"436 1608 OFFCURVE",
"191 1520 OFFCURVE",
"191 1181 CURVE SMOOTH",
"191 -170 LINE",
"452 -170 LINE",
"452 1202 LINE SMOOTH",
"452 1298 OFFCURVE",
"496 1407 OFFCURVE",
"619 1407 CURVE SMOOTH",
"700 1407 OFFCURVE",
"785 1361 OFFCURVE",
"785 1200 CURVE SMOOTH",
"785 1002 OFFCURVE",
"707 920 OFFCURVE",
"621 920 CURVE",
"621 777 LINE",
"821 777 OFFCURVE",
"918 625 OFFCURVE",
"918 455 CURVE SMOOTH",
"918 289 OFFCURVE",
"857 157 OFFCURVE",
"729 157 CURVE SMOOTH",
"657 157 OFFCURVE",
"612 193 OFFCURVE",
"596 208 CURVE",
"526 38 LINE"
);
},
{
closed = 1;
nodes = (
"53 848 LINE",
"231 848 LINE",
"231 848 OFFCURVE",
"231 1020 OFFCURVE",
"231 1020 CURVE",
"53 1020 LINE"
);
}
);
width = 1209;
}
);
unicode = 00DF;
userData = {
com.typemytype.robofont.mark = (
0.656,
1,
0.6,
1
);
};
},
{
glyphname = t;
layers = (
{
anchors = (
{
name = btm;
position = "{398, -170}";
},
{
name = top;
position = "{319, 1995}";
}
);
layerId = "B61D43DE-5272-4FF4-A680-608B6BF5ED9E";
paths = (
{
closed = 1;
nodes = (
"174 88 OFFCURVE",
"248 -30 OFFCURVE",
"480 -30 CURVE SMOOTH",
"546 -30 OFFCURVE",
"687 1 OFFCURVE",
"749 46 CURVE",
"701 251 LINE",
"662 219 OFFCURVE",
"586 181 OFFCURVE",
"526 181 CURVE SMOOTH",
"466 181 OFFCURVE",
"432 219 OFFCURVE",
"432 337 CURVE SMOOTH",
"432 826 LINE",
"685 826 LINE",
"685 1020 LINE",
"432 1020 LINE",
"432 1332 LINE",
"174 1234 LINE",
"174 1020 LINE",
"51 1020 LINE",
"51 826 LINE",
"174 826 LINE",
"174 331 LINE SMOOTH"
);
}
);
width = 797;
}
);
unicode = 0074;
userData = {
com.typemytype.robofont.mark = (
0.656,
1,
0.6,
1
);
};
},
{
glyphname = tbar;
layers = (
{
components = (
{
name = t;
transform = "{1, 0, 0, 1, -5, 0}";
}
);
layerId = "B61D43DE-5272-4FF4-A680-608B6BF5ED9E";
paths = (
{
closed = 1;
nodes = (
"745 498 LINE",
"745 664 LINE",
"32 664 LINE",
"32 498 LINE"
);
}
);
width = 787;
}
);
unicode = 0167;
userData = {
com.typemytype.robofont.mark = (
0.6,
0.986,
1,
1
);
};
},
{
glyphname = u;
layers = (
{
anchors = (
{
name = btm;
position = "{580, -170}";
},
{
name = top;
position = "{648, 1700}";
}
);
layerId = "B61D43DE-5272-4FF4-A680-608B6BF5ED9E";
paths = (
{
closed = 1;
nodes = (
"726 1020 LINE",
"726 368 LINE SMOOTH",
"726 256 OFFCURVE",
"642 178 OFFCURVE",
"544 178 CURVE SMOOTH",
"447 178 OFFCURVE",
"399 256 OFFCURVE",
"399 368 CURVE SMOOTH",
"399 1020 LINE",
"138 1020 LINE",
"138 347 LINE SMOOTH",
"138 114 OFFCURVE",
"237 -25 OFFCURVE",
"444 -25 CURVE SMOOTH",
"634 -25 OFFCURVE",
"726 88 OFFCURVE",
"774 185 CURVE",
"741 225 LINE",
"750 0 LINE",
"987 0 LINE",
"987 1020 LINE"
);
}
);
width = 1149;
}
);
unicode = 0075;
userData = {
com.typemytype.robofont.mark = (
0.656,
1,
0.6,
1
);
};
},
{
glyphname = uogonek;
layers = (
{
components = (
{
name = u;
transform = "{1, 0, 0, 1, -16, 0}";
}
);
layerId = "B61D43DE-5272-4FF4-A680-608B6BF5ED9E";
paths = (
{
closed = 1;
nodes = (
"328 -402 OFFCURVE",
"445 -508 OFFCURVE",
"643 -511 CURVE SMOOTH",
"728 -512 OFFCURVE",
"833 -489 OFFCURVE",
"867 -460 CURVE",
"834 -292 LINE",
"781 -321 OFFCURVE",
"701 -334 OFFCURVE",
"656 -333 CURVE SMOOTH",
"573 -332 OFFCURVE",
"530 -284 OFFCURVE",
"529 -214 CURVE SMOOTH",
"528 -129 OFFCURVE",
"643 -72 OFFCURVE",
"867 60 CURVE",
"707 67 LINE",
"562 0 LINE",
"403 -64 OFFCURVE",
"333 -154 OFFCURVE",
"331 -255 CURVE SMOOTH"
);
}
);
width = 1136;
}
);
unicode = 0173;
userData = {
com.typemytype.robofont.mark = (
0.6,
0.986,
1,
1
);
};
},
{
glyphname = v;
layers = (
{
anchors = (
{
name = top;
position = "{482, 1700}";
}
);
layerId = "B61D43DE-5272-4FF4-A680-608B6BF5ED9E";
paths = (
{
closed = 1;
nodes = (
"584 0 LINE",
"977 1020 LINE",
"706 1020 LINE",
"537 510 LINE",
"495 342 LINE",
"451 510 LINE",
"274 1020 LINE",
"-12 1020 LINE",
"401 0 LINE"
);
}
);
width = 965;
}
);
unicode = 0076;
userData = {
com.typemytype.robofont.mark = (
0.656,
1,
0.6,
1
);
};
},
{
glyphname = w;
layers = (
{
anchors = (
{
name = top;
position = "{733, 1700}";
}
);
layerId = "B61D43DE-5272-4FF4-A680-608B6BF5ED9E";
paths = (
{
closed = 1;
nodes = (
"553 0 LINE",
"704 554 LINE",
"767 899 LINE",
"700 899 LINE",
"768 554 LINE",
"934 0 LINE",
"1140 0 LINE",
"1462 1020 LINE",
"1200 1020 LINE",
"1088 554 LINE",
"991 111 LINE",
"1103 111 LINE",
"998 554 LINE",
"862 1020 LINE",
"629 1020 LINE",
"504 554 LINE",
"405 124 LINE",
"517 124 LINE",
"412 554 LINE",
"292 1020 LINE",
"23 1020 LINE",
"348 0 LINE"
);
}
);
width = 1463;
}
);
unicode = 0077;
userData = {
com.typemytype.robofont.guides = (
{
angle = 0;
isGlobal = 0;
magnetic = 5;
x = 0;
y = 554;
},
{
angle = 90;
isGlobal = 0;
magnetic = 5;
x = -66;
y = 0;
}
);
com.typemytype.robofont.mark = (
0.656,
1,
0.6,
1
);
};
},
{
glyphname = x;
layers = (
{
anchors = (
{
name = top;
position = "{481, 1700}";
}
);
layerId = "B61D43DE-5272-4FF4-A680-608B6BF5ED9E";
paths = (
{
closed = 1;
nodes = (
"308 0 LINE",
"434 274 LINE",
"471 366 LINE",
"516 274 LINE",
"663 0 LINE",
"952 0 LINE",
"731 389 LINE",
"658 511 LINE",
"731 640 LINE",
"935 1020 LINE",
"664 1020 LINE",
"542 762 LINE",
"490 644 LINE",
"439 762 LINE",
"315 1020 LINE",
"24 1020 LINE",
"233 632 LINE",
"311 502 LINE",
"236 376 LINE",
"24 0 LINE"
);
}
);
width = 973;
}
);
unicode = 0078;
userData = {
com.typemytype.robofont.guides = (
{
angle = 90;
isGlobal = 0;
magnetic = 5;
x = 233;
y = 0;
},
{
angle = 90;
isGlobal = 0;
magnetic = 5;
x = 731;
y = 0;
}
);
com.typemytype.robofont.mark = (
0.656,
1,
0.6,
1
);
};
},
{
glyphname = y;
layers = (
{
anchors = (
{
name = top;
position = "{501, 1700}";
}
);
layerId = "B61D43DE-5272-4FF4-A680-608B6BF5ED9E";
paths = (
{
closed = 1;
nodes = (
"138 -488 LINE",
"427 -488 LINE",
"1005 1020 LINE",
"706 1020 LINE",
"554 490 LINE",
"527 363 LINE",
"493 482 LINE",
"290 1020 LINE",
"-12 1020 LINE",
"389 97 LINE"
);
}
);
width = 993;
}
);
unicode = 0079;
userData = {
com.typemytype.robofont.mark = (
0.656,
1,
0.6,
1
);
};
},
{
glyphname = z;
layers = (
{
anchors = (
{
name = top;
position = "{453, 1700}";
}
);
layerId = "B61D43DE-5272-4FF4-A680-608B6BF5ED9E";
paths = (
{
closed = 1;
nodes = (
"841 0 LINE",
"841 187 LINE",
"345 187 LINE",
"375 101 LINE",
"883 1020 LINE",
"113 1020 LINE",
"113 826 LINE",
"544 826 LINE",
"544 925 LINE",
"26 0 LINE"
);
}
);
width = 909;
}
);
unicode = 007A;
userData = {
com.typemytype.robofont.mark = (
0.656,
1,
0.6,
1
);
};
},
{
glyphname = ordfeminine;
layers = (
{
layerId = "B61D43DE-5272-4FF4-A680-608B6BF5ED9E";
paths = (
{
closed = 1;
nodes = (
"627 862 OFFCURVE",
"737 1060 OFFCURVE",
"699 1097 CURVE SMOOTH",
"664 1112 LINE",
"664 1076 OFFCURVE",
"655 910 OFFCURVE",
"655 876 CURVE",
"881 876 LINE",
"881 1663 LINE",
"655 1663 LINE",
"655 1624 OFFCURVE",
"664 1465 OFFCURVE",
"664 1426 CURVE",
"700 1470 LINE",
"676 1561 OFFCURVE",
"610 1694 OFFCURVE",
"430 1694 CURVE SMOOTH",
"224 1694 OFFCURVE",
"90 1533 OFFCURVE",
"90 1272 CURVE SMOOTH",
"90 1020 OFFCURVE",
"243 862 OFFCURVE",
"432 862 CURVE SMOOTH"
);
},
{
closed = 1;
nodes = (
"381 1014 OFFCURVE",
"320 1126 OFFCURVE",
"320 1281 CURVE SMOOTH",
"320 1438 OFFCURVE",
"388 1536 OFFCURVE",
"470 1536 CURVE SMOOTH",
"574 1536 OFFCURVE",
"624 1424 OFFCURVE",
"624 1276 CURVE SMOOTH",
"624 1118 OFFCURVE",
"560 1014 OFFCURVE",
"470 1014 CURVE SMOOTH"
);
}
);
width = 1110;
}
);
unicode = 00AA;
userData = {
com.typemytype.robofont.mark = (
0.656,
1,
0.6,
1
);
};
},
{
glyphname = ordmasculine;
layers = (
{
layerId = "B61D43DE-5272-4FF4-A680-608B6BF5ED9E";
paths = (
{
closed = 1;
nodes = (
"757 862 OFFCURVE",
"877 1060 OFFCURVE",
"877 1282 CURVE SMOOTH",
"877 1497 OFFCURVE",
"763 1689 OFFCURVE",
"498 1689 CURVE SMOOTH",
"237 1689 OFFCURVE",
"115 1499 OFFCURVE",
"115 1278 CURVE SMOOTH",
"115 1066 OFFCURVE",
"235 862 OFFCURVE",
"498 862 CURVE SMOOTH"
);
},
{
closed = 1;
nodes = (
"399 1014 OFFCURVE",
"352 1137 OFFCURVE",
"352 1285 CURVE SMOOTH",
"352 1441 OFFCURVE",
"408 1536 OFFCURVE",
"498 1536 CURVE SMOOTH",
"599 1536 OFFCURVE",
"640 1429 OFFCURVE",
"640 1285 CURVE SMOOTH",
"640 1123 OFFCURVE",
"588 1014 OFFCURVE",
"498 1014 CURVE SMOOTH"
);
}
);
width = 1030;
}
);
unicode = 00BA;
userData = {
com.typemytype.robofont.mark = (
0.656,
1,
0.6,
1
);
};
},
{
glyphname = Deltagreek;
layers = (
{
layerId = "B61D43DE-5272-4FF4-A680-608B6BF5ED9E";
paths = (
{
closed = 1;
nodes = (
"170 0 LINE",
"1422 0 LINE",
"1459 72 LINE",
"833 1463 LINE",
"764 1463 LINE",
"136 72 LINE"
);
},
{
closed = 1;
nodes = (
"796 1031 LINE",
"1140 206 LINE",
"437 206 LINE"
);
}
);
width = 1607;
}
);
unicode = 0394;
},
{
glyphname = Omegagreek;
layers = (
{
layerId = "B61D43DE-5272-4FF4-A680-608B6BF5ED9E";
paths = (
{
closed = 1;
nodes = (
"423 1463 OFFCURVE",
"129 1181 OFFCURVE",
"129 794 CURVE SMOOTH",
"129 427 OFFCURVE",
"391 257 OFFCURVE",
"470 205 CURVE",
"101 236 LINE",
"100 0 LINE",
"695 0 LINE",
"695 193 LINE",
"564 334 OFFCURVE",
"375 508 OFFCURVE",
"375 763 CURVE SMOOTH",
"375 976 OFFCURVE",
"502 1212 OFFCURVE",
"802 1212 CURVE SMOOTH",
"1102 1212 OFFCURVE",
"1229 965 OFFCURVE",
"1229 763 CURVE SMOOTH",
"1229 508 OFFCURVE",
"1040 334 OFFCURVE",
"909 193 CURVE",
"909 0 LINE",
"1504 0 LINE",
"1503 236 LINE",
"1134 205 LINE",
"1213 257 OFFCURVE",
"1475 427 OFFCURVE",
"1475 794 CURVE SMOOTH",
"1475 1176 OFFCURVE",
"1187 1463 OFFCURVE",
"805 1463 CURVE SMOOTH"
);
}
);
width = 1604;
}
);
unicode = 03A9;
},
{
glyphname = mu;
lastChange = "2018-05-15 02:59:35 +0000";
layers = (
{
layerId = "B61D43DE-5272-4FF4-A680-608B6BF5ED9E";
paths = (
{
closed = 1;
nodes = (
"379 -511 LINE",
"330 146 LINE",
"366 59 OFFCURVE",
"441 -22 OFFCURVE",
"551 -22 CURVE SMOOTH",
"647 -22 OFFCURVE",
"719 39 OFFCURVE",
"742 146 CURVE",
"737 0 LINE",
"1006 0 LINE",
"1006 1008 LINE",
"728 1008 LINE",
"728 381 LINE",
"728 193 OFFCURVE",
"652 177 OFFCURVE",
"566 177 CURVE SMOOTH",
"468 177 OFFCURVE",
"406 283 OFFCURVE",
"406 427 CURVE",
"406 1008 LINE",
"121 1008 LINE",
"121 -511 LINE"
);
}
);
width = 1127;
}
);
unicode = 03BC;
},
{
glyphname = pi;
layers = (
{
layerId = "B61D43DE-5272-4FF4-A680-608B6BF5ED9E";
paths = (
{
closed = 1;
nodes = (
"228 850 OFFCURVE",
"262 912 OFFCURVE",
"407 912 CURVE SMOOTH",
"1175 912 LINE SMOOTH",
"1340 912 OFFCURVE",
"1387 946 OFFCURVE",
"1387 946 CURVE",
"1336 1121 LINE",
"1336 1121 OFFCURVE",
"1254 1121 OFFCURVE",
"1063 1121 CURVE SMOOTH",
"413 1121 LINE SMOOTH",
"163 1121 OFFCURVE",
"96 942 OFFCURVE",
"96 859 CURVE",
"200 774 LINE"
);
},
{
closed = 1;
nodes = (
"605 -30 OFFCURVE",
"633 365 OFFCURVE",
"646 632 CURVE SMOOTH",
"668 1088 LINE",
"496 1088 LINE",
"361 0 LINE",
"601 0 LINE"
);
},
{
closed = 1;
nodes = (
"837 125 OFFCURVE",
"862 -20 OFFCURVE",
"1034 -19 CURVE SMOOTH",
"1253 -18 OFFCURVE",
"1360 148 OFFCURVE",
"1383 377 CURVE",
"1258 377 LINE",
"1241 260 OFFCURVE",
"1196 171 OFFCURVE",
"1122 171 CURVE SMOOTH",
"1080 171 OFFCURVE",
"1055 207 OFFCURVE",
"1064 374 CURVE",
"1064 1088 LINE",
"901 1088 LINE",
"847 317 LINE"
);
}
);
width = 1555;
}
);
unicode = 03C0;
userData = {
com.typemytype.robofont.mark = (
1,
0.741,
0.6,
1
);
};
},
{
glyphname = zero;
layers = (
{
layerId = "B61D43DE-5272-4FF4-A680-608B6BF5ED9E";
paths = (
{
closed = 1;
nodes = (
"413 183 OFFCURVE",
"352 413 OFFCURVE",
"352 713 CURVE SMOOTH",
"352 1028 OFFCURVE",
"416 1248 OFFCURVE",
"589 1248 CURVE SMOOTH",
"762 1248 OFFCURVE",
"826 1028 OFFCURVE",
"826 713 CURVE SMOOTH",
"826 413 OFFCURVE",
"765 183 OFFCURVE",
"589 183 CURVE SMOOTH"
);
},
{
closed = 1;
nodes = (
"970 -36 OFFCURVE",
"1123 272 OFFCURVE",
"1123 710 CURVE SMOOTH",
"1123 1220 OFFCURVE",
"927 1463 OFFCURVE",
"598 1463 CURVE SMOOTH",
"269 1463 OFFCURVE",
"73 1220 OFFCURVE",
"73 710 CURVE SMOOTH",
"73 272 OFFCURVE",
"226 -36 OFFCURVE",
"598 -36 CURVE SMOOTH"
);
}
);
width = 1192;
}
);
unicode = 0030;
userData = {
com.typemytype.robofont.mark = (
0.656,
1,
0.6,
1
);
};
},
{
glyphname = one;
layers = (
{
layerId = "B61D43DE-5272-4FF4-A680-608B6BF5ED9E";
paths = (
{
closed = 1;
nodes = (
"458 0 LINE",
"458 1464 LINE",
"182 1320 LINE",
"182 0 LINE"
);
}
);
width = 641;
}
);
unicode = 0031;
userData = {
com.typemytype.robofont.mark = (
0.656,
1,
0.6,
1
);
};
},
{
glyphname = two;
layers = (
{
layerId = "B61D43DE-5272-4FF4-A680-608B6BF5ED9E";
paths = (
{
closed = 1;
nodes = (
"1049 225 LINE",
"407 225 LINE",
"407 385 OFFCURVE",
"598 452 OFFCURVE",
"721 532 CURVE SMOOTH",
"902 650 OFFCURVE",
"1044 790 OFFCURVE",
"1044 1031 CURVE SMOOTH",
"1044 1212 OFFCURVE",
"938 1463 OFFCURVE",
"580 1463 CURVE SMOOTH",
"277 1463 OFFCURVE",
"113 1286 OFFCURVE",
"88 1073 CURVE",
"316 962 LINE",
"329 1091 OFFCURVE",
"391 1248 OFFCURVE",
"565 1248 CURVE SMOOTH",
"717 1248 OFFCURVE",
"765 1136 OFFCURVE",
"765 1021 CURVE SMOOTH",
"765 823 OFFCURVE",
"559 724 OFFCURVE",
"408 632 CURVE SMOOTH",
"155 480 OFFCURVE",
"115 317 OFFCURVE",
"115 131 CURVE SMOOTH",
"115 88 OFFCURVE",
"121 44 OFFCURVE",
"130 0 CURVE",
"1049 0 LINE"
);
}
);
width = 1149;
}
);
unicode = 0032;
userData = {
com.typemytype.robofont.mark = (
0.656,
1,
0.6,
1
);
};
},
{
glyphname = three;
layers = (
{
layerId = "B61D43DE-5272-4FF4-A680-608B6BF5ED9E";
paths = (
{
closed = 1;
nodes = (
"197 7 OFFCURVE",
"346 -30 OFFCURVE",
"502 -30 CURVE SMOOTH",
"795 -30 OFFCURVE",
"1032 131 OFFCURVE",
"1032 401 CURVE SMOOTH",
"1032 574 OFFCURVE",
"934 694 OFFCURVE",
"760 738 CURVE",
"911 777 OFFCURVE",
"998 910 OFFCURVE",
"998 1065 CURVE SMOOTH",
"998 1298 OFFCURVE",
"817 1463 OFFCURVE",
"535 1463 CURVE SMOOTH",
"362 1463 OFFCURVE",
"183 1407 OFFCURVE",
"99 1334 CURVE",
"181 1135 LINE",
"253 1216 OFFCURVE",
"369 1248 OFFCURVE",
"468 1248 CURVE SMOOTH",
"616 1248 OFFCURVE",
"701 1160 OFFCURVE",
"701 1024 CURVE SMOOTH",
"701 899 OFFCURVE",
"611 837 OFFCURVE",
"442 837 CURVE",
"442 837 OFFCURVE",
"352 839 OFFCURVE",
"352 837 CURVE",
"352 635 LINE",
"351 637 OFFCURVE",
"437 639 OFFCURVE",
"439 639 CURVE SMOOTH",
"596 643 OFFCURVE",
"743 583 OFFCURVE",
"743 409 CURVE SMOOTH",
"743 278 OFFCURVE",
"659 196 OFFCURVE",
"475 196 CURVE SMOOTH",
"366 196 OFFCURVE",
"240 232 OFFCURVE",
"161 307 CURVE",
"81 88 LINE"
);
}
);
width = 1116;
}
);
unicode = 0033;
userData = {
com.typemytype.robofont.mark = (
0.656,
1,
0.6,
1
);
};
},
{
glyphname = four;
layers = (
{
layerId = "B61D43DE-5272-4FF4-A680-608B6BF5ED9E";
paths = (
{
closed = 1;
nodes = (
"988 0 LINE",
"988 1080 LINE",
"738 1080 LINE",
"696 324 LINE",
"696 0 LINE"
);
},
{
closed = 1;
nodes = (
"1173 294 LINE",
"1173 489 LINE",
"378 489 LINE",
"621 1427 LINE",
"321 1427 LINE",
"46 294 LINE"
);
}
);
width = 1227;
}
);
unicode = 0034;
userData = {
com.typemytype.robofont.mark = (
0.656,
1,
0.6,
1
);
};
},
{
glyphname = five;
layers = (
{
layerId = "B61D43DE-5272-4FF4-A680-608B6BF5ED9E";
paths = (
{
closed = 1;
nodes = (
"193 -2 OFFCURVE",
"346 -26 OFFCURVE",
"472 -26 CURVE SMOOTH",
"805 -26 OFFCURVE",
"1035 154 OFFCURVE",
"1035 473 CURVE SMOOTH",
"1035 713 OFFCURVE",
"880 930 OFFCURVE",
"591 930 CURVE SMOOTH",
"519 930 OFFCURVE",
"459 923 OFFCURVE",
"396 905 CURVE",
"423 1211 LINE",
"948 1211 LINE",
"948 1428 LINE",
"183 1428 LINE",
"156 663 LINE",
"199 690 OFFCURVE",
"331 729 OFFCURVE",
"447 729 CURVE SMOOTH",
"646 729 OFFCURVE",
"757 624 OFFCURVE",
"757 463 CURVE SMOOTH",
"757 220 OFFCURVE",
"567 181 OFFCURVE",
"437 181 CURVE SMOOTH",
"340 181 OFFCURVE",
"227 224 OFFCURVE",
"167 278 CURVE",
"93 65 LINE"
);
}
);
width = 1119;
}
);
unicode = 0035;
userData = {
com.typemytype.robofont.mark = (
0.656,
1,
0.6,
1
);
};
},
{
glyphname = six;
layers = (
{
layerId = "B61D43DE-5272-4FF4-A680-608B6BF5ED9E";
paths = (
{
closed = 1;
nodes = (
"109 150 OFFCURVE",
"420 -30 OFFCURVE",
"663 -30 CURVE SMOOTH",
"978 -30 OFFCURVE",
"1188 170 OFFCURVE",
"1188 485 CURVE SMOOTH",
"1188 734 OFFCURVE",
"1030 936 OFFCURVE",
"753 936 CURVE SMOOTH",
"605 936 OFFCURVE",
"463 875 OFFCURVE",
"390 734 CURVE",
"389 756 OFFCURVE",
"389 780 OFFCURVE",
"392 809 CURVE SMOOTH",
"412 1020 OFFCURVE",
"503 1248 OFFCURVE",
"716 1248 CURVE SMOOTH",
"793 1248 OFFCURVE",
"919 1233 OFFCURVE",
"984 1161 CURVE",
"1084 1358 LINE",
"1017 1422 OFFCURVE",
"901 1463 OFFCURVE",
"709 1463 CURVE SMOOTH",
"348 1463 OFFCURVE",
"109 1168 OFFCURVE",
"109 688 CURVE SMOOTH"
);
},
{
closed = 1;
nodes = (
"421 440 OFFCURVE",
"420 462 OFFCURVE",
"420 484 CURVE",
"428 616 OFFCURVE",
"564 728 OFFCURVE",
"693 728 CURVE SMOOTH",
"840 728 OFFCURVE",
"910 620 OFFCURVE",
"910 460 CURVE SMOOTH",
"910 284 OFFCURVE",
"798 181 OFFCURVE",
"669 181 CURVE SMOOTH",
"543 181 OFFCURVE",
"465 287 OFFCURVE",
"428 416 CURVE SMOOTH"
);
}
);
width = 1275;
}
);
unicode = 0036;
userData = {
com.typemytype.robofont.mark = (
0.656,
1,
0.6,
1
);
};
},
{
glyphname = seven;
layers = (
{
layerId = "B61D43DE-5272-4FF4-A680-608B6BF5ED9E";
paths = (
{
closed = 1;
nodes = (
"544 1 LINE",
"646 324 OFFCURVE",
"937 1154 OFFCURVE",
"993 1328 CURVE",
"931 1428 LINE",
"72 1428 LINE",
"72 1206 LINE",
"699 1206 LINE",
"247 1 LINE"
);
}
);
width = 1080;
}
);
unicode = 0037;
userData = {
com.typemytype.robofont.mark = (
0.656,
1,
0.6,
1
);
};
},
{
glyphname = eight;
layers = (
{
layerId = "B61D43DE-5272-4FF4-A680-608B6BF5ED9E";
paths = (
{
closed = 1;
nodes = (
"425 1206 OFFCURVE",
"502 1274 OFFCURVE",
"639 1274 CURVE SMOOTH",
"777 1274 OFFCURVE",
"843 1206 OFFCURVE",
"843 1073 CURVE SMOOTH",
"843 925 OFFCURVE",
"746 843 OFFCURVE",
"639 843 CURVE SMOOTH",
"533 843 OFFCURVE",
"425 925 OFFCURVE",
"425 1074 CURVE SMOOTH"
);
},
{
closed = 1;
nodes = (
"157 820 OFFCURVE",
"356 694 OFFCURVE",
"637 694 CURVE SMOOTH",
"896 694 OFFCURVE",
"1110 820 OFFCURVE",
"1110 1091 CURVE SMOOTH",
"1110 1361 OFFCURVE",
"872 1463 OFFCURVE",
"636 1463 CURVE SMOOTH",
"400 1463 OFFCURVE",
"157 1361 OFFCURVE",
"157 1091 CURVE SMOOTH"
);
},
{
closed = 1;
nodes = (
"731 634 OFFCURVE",
"880 579 OFFCURVE",
"880 395 CURVE SMOOTH",
"880 243 OFFCURVE",
"790 169 OFFCURVE",
"635 169 CURVE SMOOTH",
"478 169 OFFCURVE",
"388 243 OFFCURVE",
"388 395 CURVE SMOOTH",
"388 579 OFFCURVE",
"537 634 OFFCURVE",
"634 634 CURVE SMOOTH"
);
},
{
closed = 1;
nodes = (
"891 -36 OFFCURVE",
"1171 82 OFFCURVE",
"1171 391 CURVE SMOOTH",
"1171 658 OFFCURVE",
"930 786 OFFCURVE",
"634 786 CURVE SMOOTH",
"338 786 OFFCURVE",
"97 658 OFFCURVE",
"97 391 CURVE SMOOTH",
"97 82 OFFCURVE",
"377 -36 OFFCURVE",
"635 -36 CURVE SMOOTH"
);
}
);
width = 1268;
}
);
unicode = 0038;
userData = {
com.typemytype.robofont.mark = (
0.656,
1,
0.6,
1
);
};
},
{
glyphname = nine;
layers = (
{
layerId = "B61D43DE-5272-4FF4-A680-608B6BF5ED9E";
paths = (
{
closed = 1;
nodes = (
"1174 1289 OFFCURVE",
"883 1463 OFFCURVE",
"620 1463 CURVE SMOOTH",
"305 1463 OFFCURVE",
"95 1263 OFFCURVE",
"95 948 CURVE SMOOTH",
"95 699 OFFCURVE",
"253 497 OFFCURVE",
"530 497 CURVE SMOOTH",
"678 497 OFFCURVE",
"820 558 OFFCURVE",
"893 699 CURVE",
"894 677 OFFCURVE",
"893 653 OFFCURVE",
"891 624 CURVE SMOOTH",
"878 413 OFFCURVE",
"781 185 OFFCURVE",
"537 185 CURVE SMOOTH",
"469 185 OFFCURVE",
"348 210 OFFCURVE",
"289 272 CURVE",
"189 75 LINE",
"250 21 OFFCURVE",
"367 -30 OFFCURVE",
"544 -30 CURVE SMOOTH",
"933 -30 OFFCURVE",
"1174 261 OFFCURVE",
"1174 741 CURVE"
);
},
{
closed = 1;
nodes = (
"862 993 OFFCURVE",
"863 971 OFFCURVE",
"863 949 CURVE",
"855 817 OFFCURVE",
"719 705 OFFCURVE",
"590 705 CURVE SMOOTH",
"443 705 OFFCURVE",
"373 813 OFFCURVE",
"373 973 CURVE SMOOTH",
"373 1149 OFFCURVE",
"485 1252 OFFCURVE",
"614 1252 CURVE SMOOTH",
"740 1252 OFFCURVE",
"828 1146 OFFCURVE",
"855 1017 CURVE"
);
}
);
width = 1275;
}
);
unicode = 0039;
userData = {
com.typemytype.robofont.mark = (
0.656,
1,
0.6,
1
);
};
},
{
glyphname = zero.lf;
layers = (
{
layerId = "B61D43DE-5272-4FF4-A680-608B6BF5ED9E";
paths = (
{
closed = 1;
nodes = (
"413 183 OFFCURVE",
"352 413 OFFCURVE",
"352 713 CURVE SMOOTH",
"352 1028 OFFCURVE",
"416 1248 OFFCURVE",
"589 1248 CURVE SMOOTH",
"762 1248 OFFCURVE",
"826 1028 OFFCURVE",
"826 713 CURVE SMOOTH",
"826 413 OFFCURVE",
"765 183 OFFCURVE",
"589 183 CURVE SMOOTH"
);
},
{
closed = 1;
nodes = (
"970 -36 OFFCURVE",
"1123 272 OFFCURVE",
"1123 710 CURVE SMOOTH",
"1123 1220 OFFCURVE",
"927 1463 OFFCURVE",
"598 1463 CURVE SMOOTH",
"269 1463 OFFCURVE",
"73 1220 OFFCURVE",
"73 710 CURVE SMOOTH",
"73 272 OFFCURVE",
"226 -36 OFFCURVE",
"598 -36 CURVE SMOOTH"
);
}
);
width = 1192;
}
);
userData = {
com.typemytype.robofont.mark = (
0.6,
0.609,
1,
1
);
};
},
{
glyphname = one.lf;
layers = (
{
layerId = "B61D43DE-5272-4FF4-A680-608B6BF5ED9E";
paths = (
{
closed = 1;
nodes = (
"458 0 LINE",
"458 1464 LINE",
"182 1320 LINE",
"182 0 LINE"
);
}
);
width = 641;
}
);
userData = {
com.typemytype.robofont.mark = (
0.6,
0.609,
1,
1
);
};
},
{
glyphname = two.lf;
layers = (
{
layerId = "B61D43DE-5272-4FF4-A680-608B6BF5ED9E";
paths = (
{
closed = 1;
nodes = (
"1049 225 LINE",
"407 225 LINE",
"407 385 OFFCURVE",
"598 452 OFFCURVE",
"721 532 CURVE SMOOTH",
"902 650 OFFCURVE",
"1044 790 OFFCURVE",
"1044 1031 CURVE SMOOTH",
"1044 1212 OFFCURVE",
"938 1463 OFFCURVE",
"580 1463 CURVE SMOOTH",
"277 1463 OFFCURVE",
"113 1286 OFFCURVE",
"88 1073 CURVE",
"316 962 LINE",
"329 1091 OFFCURVE",
"391 1248 OFFCURVE",
"565 1248 CURVE SMOOTH",
"717 1248 OFFCURVE",
"765 1136 OFFCURVE",
"765 1021 CURVE SMOOTH",
"765 823 OFFCURVE",
"559 724 OFFCURVE",
"408 632 CURVE SMOOTH",
"155 480 OFFCURVE",
"115 317 OFFCURVE",
"115 131 CURVE SMOOTH",
"115 88 OFFCURVE",
"121 44 OFFCURVE",
"130 0 CURVE",
"1049 0 LINE"
);
}
);
width = 1149;
}
);
userData = {
com.typemytype.robofont.mark = (
0.6,
0.609,
1,
1
);
};
},
{
glyphname = three.lf;
layers = (
{
layerId = "B61D43DE-5272-4FF4-A680-608B6BF5ED9E";
paths = (
{
closed = 1;
nodes = (
"197 7 OFFCURVE",
"346 -30 OFFCURVE",
"502 -30 CURVE SMOOTH",
"795 -30 OFFCURVE",
"1032 131 OFFCURVE",
"1032 401 CURVE SMOOTH",
"1032 574 OFFCURVE",
"934 694 OFFCURVE",
"760 738 CURVE",
"911 777 OFFCURVE",
"998 910 OFFCURVE",
"998 1065 CURVE SMOOTH",
"998 1298 OFFCURVE",
"817 1463 OFFCURVE",
"535 1463 CURVE SMOOTH",
"362 1463 OFFCURVE",
"183 1407 OFFCURVE",
"99 1334 CURVE",
"181 1135 LINE",
"253 1216 OFFCURVE",
"369 1248 OFFCURVE",
"468 1248 CURVE SMOOTH",
"616 1248 OFFCURVE",
"701 1160 OFFCURVE",
"701 1024 CURVE SMOOTH",
"701 899 OFFCURVE",
"611 837 OFFCURVE",
"442 837 CURVE",
"442 837 OFFCURVE",
"352 839 OFFCURVE",
"352 837 CURVE",
"352 635 LINE",
"351 637 OFFCURVE",
"437 639 OFFCURVE",
"439 639 CURVE SMOOTH",
"596 643 OFFCURVE",
"743 583 OFFCURVE",
"743 409 CURVE SMOOTH",
"743 278 OFFCURVE",
"659 196 OFFCURVE",
"475 196 CURVE SMOOTH",
"366 196 OFFCURVE",
"240 232 OFFCURVE",
"161 307 CURVE",
"81 88 LINE"
);
}
);
width = 1116;
}
);
userData = {
com.typemytype.robofont.mark = (
0.6,
0.609,
1,
1
);
};
},
{
glyphname = four.lf;
layers = (
{
layerId = "B61D43DE-5272-4FF4-A680-608B6BF5ED9E";
paths = (
{
closed = 1;
nodes = (
"988 0 LINE",
"988 1080 LINE",
"738 1080 LINE",
"696 324 LINE",
"696 0 LINE"
);
},
{
closed = 1;
nodes = (
"1173 294 LINE",
"1173 489 LINE",
"378 489 LINE",
"621 1427 LINE",
"321 1427 LINE",
"46 294 LINE"
);
}
);
width = 1227;
}
);
userData = {
com.typemytype.robofont.mark = (
0.6,
0.609,
1,
1
);
};
},
{
glyphname = five.lf;
layers = (
{
layerId = "B61D43DE-5272-4FF4-A680-608B6BF5ED9E";
paths = (
{
closed = 1;
nodes = (
"193 -2 OFFCURVE",
"346 -26 OFFCURVE",
"472 -26 CURVE SMOOTH",
"805 -26 OFFCURVE",
"1035 154 OFFCURVE",
"1035 473 CURVE SMOOTH",
"1035 713 OFFCURVE",
"880 930 OFFCURVE",
"591 930 CURVE SMOOTH",
"519 930 OFFCURVE",
"459 923 OFFCURVE",
"396 905 CURVE",
"423 1211 LINE",
"948 1211 LINE",
"948 1428 LINE",
"183 1428 LINE",
"156 663 LINE",
"199 690 OFFCURVE",
"331 729 OFFCURVE",
"447 729 CURVE SMOOTH",
"646 729 OFFCURVE",
"757 624 OFFCURVE",
"757 463 CURVE SMOOTH",
"757 220 OFFCURVE",
"567 181 OFFCURVE",
"437 181 CURVE SMOOTH",
"340 181 OFFCURVE",
"227 224 OFFCURVE",
"167 278 CURVE",
"93 65 LINE"
);
}
);
width = 1119;
}
);
userData = {
com.typemytype.robofont.mark = (
0.6,
0.609,
1,
1
);
};
},
{
glyphname = six.lf;
layers = (
{
layerId = "B61D43DE-5272-4FF4-A680-608B6BF5ED9E";
paths = (
{
closed = 1;
nodes = (
"109 150 OFFCURVE",
"420 -30 OFFCURVE",
"663 -30 CURVE SMOOTH",
"978 -30 OFFCURVE",
"1188 170 OFFCURVE",
"1188 485 CURVE SMOOTH",
"1188 734 OFFCURVE",
"1030 936 OFFCURVE",
"753 936 CURVE SMOOTH",
"605 936 OFFCURVE",
"463 875 OFFCURVE",
"390 734 CURVE",
"389 756 OFFCURVE",
"389 780 OFFCURVE",
"392 809 CURVE SMOOTH",
"412 1020 OFFCURVE",
"503 1248 OFFCURVE",
"716 1248 CURVE SMOOTH",
"793 1248 OFFCURVE",
"919 1233 OFFCURVE",
"984 1161 CURVE",
"1084 1358 LINE",
"1017 1422 OFFCURVE",
"901 1463 OFFCURVE",
"709 1463 CURVE SMOOTH",
"348 1463 OFFCURVE",
"109 1168 OFFCURVE",
"109 688 CURVE SMOOTH"
);
},
{
closed = 1;
nodes = (
"421 440 OFFCURVE",
"420 462 OFFCURVE",
"420 484 CURVE",
"428 616 OFFCURVE",
"564 728 OFFCURVE",
"693 728 CURVE SMOOTH",
"840 728 OFFCURVE",
"910 620 OFFCURVE",
"910 460 CURVE SMOOTH",
"910 284 OFFCURVE",
"798 181 OFFCURVE",
"669 181 CURVE SMOOTH",
"543 181 OFFCURVE",
"465 287 OFFCURVE",
"428 416 CURVE SMOOTH"
);
}
);
width = 1275;
}
);
userData = {
com.typemytype.robofont.mark = (
0.6,
0.609,
1,
1
);
};
},
{
glyphname = seven.lf;
layers = (
{
layerId = "B61D43DE-5272-4FF4-A680-608B6BF5ED9E";
paths = (
{
closed = 1;
nodes = (
"544 1 LINE",
"646 324 OFFCURVE",
"937 1154 OFFCURVE",
"993 1328 CURVE",
"931 1428 LINE",
"72 1428 LINE",
"72 1206 LINE",
"699 1206 LINE",
"247 1 LINE"
);
}
);
width = 1080;
}
);
userData = {
com.typemytype.robofont.mark = (
0.6,
0.609,
1,
1
);
};
},
{
glyphname = eight.lf;
layers = (
{
layerId = "B61D43DE-5272-4FF4-A680-608B6BF5ED9E";
paths = (
{
closed = 1;
nodes = (
"425 1206 OFFCURVE",
"502 1274 OFFCURVE",
"639 1274 CURVE SMOOTH",
"777 1274 OFFCURVE",
"843 1206 OFFCURVE",
"843 1073 CURVE SMOOTH",
"843 925 OFFCURVE",
"746 843 OFFCURVE",
"639 843 CURVE SMOOTH",
"533 843 OFFCURVE",
"425 925 OFFCURVE",
"425 1074 CURVE SMOOTH"
);
},
{
closed = 1;
nodes = (
"157 820 OFFCURVE",
"356 694 OFFCURVE",
"637 694 CURVE SMOOTH",
"896 694 OFFCURVE",
"1110 820 OFFCURVE",
"1110 1091 CURVE SMOOTH",
"1110 1361 OFFCURVE",
"872 1463 OFFCURVE",
"636 1463 CURVE SMOOTH",
"400 1463 OFFCURVE",
"157 1361 OFFCURVE",
"157 1091 CURVE SMOOTH"
);
},
{
closed = 1;
nodes = (
"731 634 OFFCURVE",
"880 579 OFFCURVE",
"880 395 CURVE SMOOTH",
"880 243 OFFCURVE",
"790 169 OFFCURVE",
"635 169 CURVE SMOOTH",
"478 169 OFFCURVE",
"388 243 OFFCURVE",
"388 395 CURVE SMOOTH",
"388 579 OFFCURVE",
"537 634 OFFCURVE",
"634 634 CURVE SMOOTH"
);
},
{
closed = 1;
nodes = (
"891 -36 OFFCURVE",
"1171 82 OFFCURVE",
"1171 391 CURVE SMOOTH",
"1171 658 OFFCURVE",
"930 786 OFFCURVE",
"634 786 CURVE SMOOTH",
"338 786 OFFCURVE",
"97 658 OFFCURVE",
"97 391 CURVE SMOOTH",
"97 82 OFFCURVE",
"377 -36 OFFCURVE",
"635 -36 CURVE SMOOTH"
);
}
);
width = 1268;
}
);
userData = {
com.typemytype.robofont.mark = (
0.6,
0.609,
1,
1
);
};
},
{
glyphname = nine.lf;
layers = (
{
layerId = "B61D43DE-5272-4FF4-A680-608B6BF5ED9E";
paths = (
{
closed = 1;
nodes = (
"1174 1289 OFFCURVE",
"883 1463 OFFCURVE",
"620 1463 CURVE SMOOTH",
"305 1463 OFFCURVE",
"95 1263 OFFCURVE",
"95 948 CURVE SMOOTH",
"95 699 OFFCURVE",
"253 497 OFFCURVE",
"530 497 CURVE SMOOTH",
"678 497 OFFCURVE",
"820 558 OFFCURVE",
"893 699 CURVE",
"894 677 OFFCURVE",
"893 653 OFFCURVE",
"891 624 CURVE SMOOTH",
"878 413 OFFCURVE",
"781 185 OFFCURVE",
"537 185 CURVE SMOOTH",
"469 185 OFFCURVE",
"348 210 OFFCURVE",
"289 272 CURVE",
"189 75 LINE",
"250 21 OFFCURVE",
"367 -30 OFFCURVE",
"544 -30 CURVE SMOOTH",
"933 -30 OFFCURVE",
"1174 261 OFFCURVE",
"1174 741 CURVE"
);
},
{
closed = 1;
nodes = (
"862 993 OFFCURVE",
"863 971 OFFCURVE",
"863 949 CURVE",
"855 817 OFFCURVE",
"719 705 OFFCURVE",
"590 705 CURVE SMOOTH",
"443 705 OFFCURVE",
"373 813 OFFCURVE",
"373 973 CURVE SMOOTH",
"373 1149 OFFCURVE",
"485 1252 OFFCURVE",
"614 1252 CURVE SMOOTH",
"740 1252 OFFCURVE",
"828 1146 OFFCURVE",
"855 1017 CURVE"
);
}
);
width = 1275;
}
);
userData = {
com.typemytype.robofont.mark = (
0.6,
0.609,
1,
1
);
};
},
{
glyphname = zero.lp;
layers = (
{
layerId = "B61D43DE-5272-4FF4-A680-608B6BF5ED9E";
paths = (
{
closed = 1;
nodes = (
"413 183 OFFCURVE",
"352 413 OFFCURVE",
"352 713 CURVE SMOOTH",
"352 1028 OFFCURVE",
"416 1248 OFFCURVE",
"589 1248 CURVE SMOOTH",
"762 1248 OFFCURVE",
"826 1028 OFFCURVE",
"826 713 CURVE SMOOTH",
"826 413 OFFCURVE",
"765 183 OFFCURVE",
"589 183 CURVE SMOOTH"
);
},
{
closed = 1;
nodes = (
"970 -36 OFFCURVE",
"1123 272 OFFCURVE",
"1123 710 CURVE SMOOTH",
"1123 1220 OFFCURVE",
"927 1463 OFFCURVE",
"598 1463 CURVE SMOOTH",
"269 1463 OFFCURVE",
"73 1220 OFFCURVE",
"73 710 CURVE SMOOTH",
"73 272 OFFCURVE",
"226 -36 OFFCURVE",
"598 -36 CURVE SMOOTH"
);
}
);
width = 1192;
}
);
},
{
glyphname = one.lp;
layers = (
{
layerId = "B61D43DE-5272-4FF4-A680-608B6BF5ED9E";
paths = (
{
closed = 1;
nodes = (
"458 0 LINE",
"458 1464 LINE",
"182 1320 LINE",
"182 0 LINE"
);
}
);
width = 641;
}
);
},
{
glyphname = two.lp;
layers = (
{
layerId = "B61D43DE-5272-4FF4-A680-608B6BF5ED9E";
paths = (
{
closed = 1;
nodes = (
"1049 225 LINE",
"407 225 LINE",
"407 385 OFFCURVE",
"598 452 OFFCURVE",
"721 532 CURVE SMOOTH",
"902 650 OFFCURVE",
"1044 790 OFFCURVE",
"1044 1031 CURVE SMOOTH",
"1044 1212 OFFCURVE",
"938 1463 OFFCURVE",
"580 1463 CURVE SMOOTH",
"277 1463 OFFCURVE",
"113 1286 OFFCURVE",
"88 1073 CURVE",
"316 962 LINE",
"329 1091 OFFCURVE",
"391 1248 OFFCURVE",
"565 1248 CURVE SMOOTH",
"717 1248 OFFCURVE",
"765 1136 OFFCURVE",
"765 1021 CURVE SMOOTH",
"765 823 OFFCURVE",
"559 724 OFFCURVE",
"408 632 CURVE SMOOTH",
"155 480 OFFCURVE",
"115 317 OFFCURVE",
"115 131 CURVE SMOOTH",
"115 88 OFFCURVE",
"121 44 OFFCURVE",
"130 0 CURVE",
"1049 0 LINE"
);
}
);
width = 1149;
}
);
},
{
glyphname = three.lp;
layers = (
{
layerId = "B61D43DE-5272-4FF4-A680-608B6BF5ED9E";
paths = (
{
closed = 1;
nodes = (
"197 7 OFFCURVE",
"346 -30 OFFCURVE",
"502 -30 CURVE SMOOTH",
"795 -30 OFFCURVE",
"1032 131 OFFCURVE",
"1032 401 CURVE SMOOTH",
"1032 574 OFFCURVE",
"934 694 OFFCURVE",
"760 738 CURVE",
"911 777 OFFCURVE",
"998 910 OFFCURVE",
"998 1065 CURVE SMOOTH",
"998 1298 OFFCURVE",
"817 1463 OFFCURVE",
"535 1463 CURVE SMOOTH",
"362 1463 OFFCURVE",
"183 1407 OFFCURVE",
"99 1334 CURVE",
"181 1135 LINE",
"253 1216 OFFCURVE",
"369 1248 OFFCURVE",
"468 1248 CURVE SMOOTH",
"616 1248 OFFCURVE",
"701 1160 OFFCURVE",
"701 1024 CURVE SMOOTH",
"701 899 OFFCURVE",
"611 837 OFFCURVE",
"442 837 CURVE",
"442 837 OFFCURVE",
"352 839 OFFCURVE",
"352 837 CURVE",
"352 635 LINE",
"351 637 OFFCURVE",
"437 639 OFFCURVE",
"439 639 CURVE SMOOTH",
"596 643 OFFCURVE",
"743 583 OFFCURVE",
"743 409 CURVE SMOOTH",
"743 278 OFFCURVE",
"659 196 OFFCURVE",
"475 196 CURVE SMOOTH",
"366 196 OFFCURVE",
"240 232 OFFCURVE",
"161 307 CURVE",
"81 88 LINE"
);
}
);
width = 1116;
}
);
},
{
glyphname = four.lp;
layers = (
{
layerId = "B61D43DE-5272-4FF4-A680-608B6BF5ED9E";
paths = (
{
closed = 1;
nodes = (
"988 0 LINE",
"988 1120 LINE",
"738 1120 LINE",
"696 324 LINE",
"696 0 LINE"
);
},
{
closed = 1;
nodes = (
"1173 294 LINE",
"1173 489 LINE",
"378 489 LINE",
"621 1427 LINE",
"321 1427 LINE",
"46 294 LINE"
);
}
);
width = 1227;
}
);
},
{
glyphname = five.lp;
layers = (
{
layerId = "B61D43DE-5272-4FF4-A680-608B6BF5ED9E";
paths = (
{
closed = 1;
nodes = (
"193 -2 OFFCURVE",
"346 -26 OFFCURVE",
"472 -26 CURVE SMOOTH",
"805 -26 OFFCURVE",
"1035 154 OFFCURVE",
"1035 473 CURVE SMOOTH",
"1035 713 OFFCURVE",
"880 930 OFFCURVE",
"591 930 CURVE SMOOTH",
"519 930 OFFCURVE",
"459 923 OFFCURVE",
"396 905 CURVE",
"423 1211 LINE",
"948 1211 LINE",
"948 1428 LINE",
"183 1428 LINE",
"156 663 LINE",
"199 690 OFFCURVE",
"331 729 OFFCURVE",
"447 729 CURVE SMOOTH",
"646 729 OFFCURVE",
"757 624 OFFCURVE",
"757 463 CURVE SMOOTH",
"757 220 OFFCURVE",
"567 181 OFFCURVE",
"437 181 CURVE SMOOTH",
"340 181 OFFCURVE",
"227 224 OFFCURVE",
"167 278 CURVE",
"93 65 LINE"
);
}
);
width = 1119;
}
);
},
{
glyphname = six.lp;
layers = (
{
layerId = "B61D43DE-5272-4FF4-A680-608B6BF5ED9E";
paths = (
{
closed = 1;
nodes = (
"109 150 OFFCURVE",
"420 -30 OFFCURVE",
"663 -30 CURVE SMOOTH",
"978 -30 OFFCURVE",
"1188 170 OFFCURVE",
"1188 485 CURVE SMOOTH",
"1188 734 OFFCURVE",
"1030 936 OFFCURVE",
"753 936 CURVE SMOOTH",
"605 936 OFFCURVE",
"463 875 OFFCURVE",
"390 734 CURVE",
"389 756 OFFCURVE",
"389 780 OFFCURVE",
"392 809 CURVE SMOOTH",
"412 1020 OFFCURVE",
"503 1248 OFFCURVE",
"716 1248 CURVE SMOOTH",
"793 1248 OFFCURVE",
"919 1233 OFFCURVE",
"984 1161 CURVE",
"1084 1358 LINE",
"1017 1422 OFFCURVE",
"901 1463 OFFCURVE",
"709 1463 CURVE SMOOTH",
"348 1463 OFFCURVE",
"109 1168 OFFCURVE",
"109 688 CURVE SMOOTH"
);
},
{
closed = 1;
nodes = (
"421 440 OFFCURVE",
"420 462 OFFCURVE",
"420 484 CURVE",
"428 616 OFFCURVE",
"564 728 OFFCURVE",
"693 728 CURVE SMOOTH",
"840 728 OFFCURVE",
"910 620 OFFCURVE",
"910 460 CURVE SMOOTH",
"910 284 OFFCURVE",
"798 181 OFFCURVE",
"669 181 CURVE SMOOTH",
"543 181 OFFCURVE",
"465 287 OFFCURVE",
"428 416 CURVE SMOOTH"
);
}
);
width = 1275;
}
);
},
{
glyphname = seven.lp;
layers = (
{
layerId = "B61D43DE-5272-4FF4-A680-608B6BF5ED9E";
paths = (
{
closed = 1;
nodes = (
"544 1 LINE",
"646 324 OFFCURVE",
"937 1154 OFFCURVE",
"993 1328 CURVE",
"931 1428 LINE",
"72 1428 LINE",
"72 1206 LINE",
"699 1206 LINE",
"247 1 LINE"
);
}
);
width = 1080;
}
);
},
{
glyphname = eight.lp;
layers = (
{
layerId = "B61D43DE-5272-4FF4-A680-608B6BF5ED9E";
paths = (
{
closed = 1;
nodes = (
"425 1206 OFFCURVE",
"502 1274 OFFCURVE",
"639 1274 CURVE SMOOTH",
"777 1274 OFFCURVE",
"843 1206 OFFCURVE",
"843 1073 CURVE SMOOTH",
"843 925 OFFCURVE",
"746 843 OFFCURVE",
"639 843 CURVE SMOOTH",
"533 843 OFFCURVE",
"425 925 OFFCURVE",
"425 1074 CURVE SMOOTH"
);
},
{
closed = 1;
nodes = (
"157 820 OFFCURVE",
"356 694 OFFCURVE",
"637 694 CURVE SMOOTH",
"896 694 OFFCURVE",
"1110 820 OFFCURVE",
"1110 1091 CURVE SMOOTH",
"1110 1361 OFFCURVE",
"872 1463 OFFCURVE",
"636 1463 CURVE SMOOTH",
"400 1463 OFFCURVE",
"157 1361 OFFCURVE",
"157 1091 CURVE SMOOTH"
);
},
{
closed = 1;
nodes = (
"731 634 OFFCURVE",
"880 579 OFFCURVE",
"880 395 CURVE SMOOTH",
"880 243 OFFCURVE",
"790 169 OFFCURVE",
"635 169 CURVE SMOOTH",
"478 169 OFFCURVE",
"388 243 OFFCURVE",
"388 395 CURVE SMOOTH",
"388 579 OFFCURVE",
"537 634 OFFCURVE",
"634 634 CURVE SMOOTH"
);
},
{
closed = 1;
nodes = (
"891 -36 OFFCURVE",
"1171 82 OFFCURVE",
"1171 391 CURVE SMOOTH",
"1171 658 OFFCURVE",
"930 786 OFFCURVE",
"634 786 CURVE SMOOTH",
"338 786 OFFCURVE",
"97 658 OFFCURVE",
"97 391 CURVE SMOOTH",
"97 82 OFFCURVE",
"377 -36 OFFCURVE",
"635 -36 CURVE SMOOTH"
);
}
);
width = 1268;
}
);
},
{
glyphname = nine.lp;
layers = (
{
layerId = "B61D43DE-5272-4FF4-A680-608B6BF5ED9E";
paths = (
{
closed = 1;
nodes = (
"1174 1289 OFFCURVE",
"883 1463 OFFCURVE",
"620 1463 CURVE SMOOTH",
"305 1463 OFFCURVE",
"95 1263 OFFCURVE",
"95 948 CURVE SMOOTH",
"95 699 OFFCURVE",
"253 497 OFFCURVE",
"530 497 CURVE SMOOTH",
"678 497 OFFCURVE",
"820 558 OFFCURVE",
"893 699 CURVE",
"894 677 OFFCURVE",
"893 653 OFFCURVE",
"891 624 CURVE SMOOTH",
"878 413 OFFCURVE",
"781 185 OFFCURVE",
"537 185 CURVE SMOOTH",
"469 185 OFFCURVE",
"348 210 OFFCURVE",
"289 272 CURVE",
"189 75 LINE",
"250 21 OFFCURVE",
"367 -30 OFFCURVE",
"544 -30 CURVE SMOOTH",
"933 -30 OFFCURVE",
"1174 261 OFFCURVE",
"1174 741 CURVE"
);
},
{
closed = 1;
nodes = (
"862 993 OFFCURVE",
"863 971 OFFCURVE",
"863 949 CURVE",
"855 817 OFFCURVE",
"719 705 OFFCURVE",
"590 705 CURVE SMOOTH",
"443 705 OFFCURVE",
"373 813 OFFCURVE",
"373 973 CURVE SMOOTH",
"373 1149 OFFCURVE",
"485 1252 OFFCURVE",
"614 1252 CURVE SMOOTH",
"740 1252 OFFCURVE",
"828 1146 OFFCURVE",
"855 1017 CURVE"
);
}
);
width = 1275;
}
);
},
{
glyphname = zero.op;
layers = (
{
layerId = "B61D43DE-5272-4FF4-A680-608B6BF5ED9E";
paths = (
{
closed = 1;
nodes = (
"413 183 OFFCURVE",
"352 327 OFFCURVE",
"352 503 CURVE SMOOTH",
"352 692 OFFCURVE",
"416 828 OFFCURVE",
"589 828 CURVE SMOOTH",
"762 828 OFFCURVE",
"826 692 OFFCURVE",
"826 503 CURVE SMOOTH",
"826 327 OFFCURVE",
"765 183 OFFCURVE",
"589 183 CURVE SMOOTH"
);
},
{
closed = 1;
nodes = (
"970 -36 OFFCURVE",
"1123 188 OFFCURVE",
"1123 500 CURVE SMOOTH",
"1123 863 OFFCURVE",
"927 1043 OFFCURVE",
"598 1043 CURVE SMOOTH",
"269 1043 OFFCURVE",
"73 863 OFFCURVE",
"73 500 CURVE SMOOTH",
"73 188 OFFCURVE",
"226 -36 OFFCURVE",
"598 -36 CURVE SMOOTH"
);
}
);
width = 1192;
}
);
},
{
glyphname = one.op;
layers = (
{
layerId = "B61D43DE-5272-4FF4-A680-608B6BF5ED9E";
paths = (
{
closed = 1;
nodes = (
"458 0 LINE",
"458 1046 LINE",
"182 902 LINE",
"182 0 LINE"
);
}
);
width = 641;
}
);
},
{
glyphname = two.op;
layers = (
{
layerId = "B61D43DE-5272-4FF4-A680-608B6BF5ED9E";
paths = (
{
closed = 1;
nodes = (
"1019 225 LINE",
"387 225 LINE",
"387 265 OFFCURVE",
"583 317 OFFCURVE",
"721 362 CURVE SMOOTH",
"912 424 OFFCURVE",
"1044 510 OFFCURVE",
"1044 721 CURVE SMOOTH",
"1044 862 OFFCURVE",
"938 1046 OFFCURVE",
"580 1046 CURVE SMOOTH",
"277 1046 OFFCURVE",
"113 892 OFFCURVE",
"88 733 CURVE",
"316 622 LINE",
"329 706 OFFCURVE",
"391 831 OFFCURVE",
"565 831 CURVE SMOOTH",
"717 831 OFFCURVE",
"765 776 OFFCURVE",
"765 711 CURVE SMOOTH",
"765 547 OFFCURVE",
"563 531 OFFCURVE",
"428 482 CURVE SMOOTH",
"139 360 OFFCURVE",
"95 257 OFFCURVE",
"95 131 CURVE SMOOTH",
"95 88 OFFCURVE",
"101 44 OFFCURVE",
"110 0 CURVE",
"1019 0 LINE"
);
}
);
width = 1149;
}
);
},
{
glyphname = three.op;
layers = (
{
layerId = "B61D43DE-5272-4FF4-A680-608B6BF5ED9E";
paths = (
{
closed = 1;
nodes = (
"197 -410 OFFCURVE",
"346 -447 OFFCURVE",
"502 -447 CURVE SMOOTH",
"795 -447 OFFCURVE",
"1032 -286 OFFCURVE",
"1032 -16 CURVE SMOOTH",
"1032 157 OFFCURVE",
"934 277 OFFCURVE",
"760 321 CURVE",
"911 360 OFFCURVE",
"998 493 OFFCURVE",
"998 648 CURVE SMOOTH",
"998 881 OFFCURVE",
"817 1046 OFFCURVE",
"535 1046 CURVE SMOOTH",
"362 1046 OFFCURVE",
"183 990 OFFCURVE",
"99 917 CURVE",
"181 718 LINE",
"253 799 OFFCURVE",
"369 831 OFFCURVE",
"468 831 CURVE SMOOTH",
"616 831 OFFCURVE",
"701 743 OFFCURVE",
"701 607 CURVE SMOOTH",
"701 482 OFFCURVE",
"611 420 OFFCURVE",
"442 420 CURVE",
"442 420 OFFCURVE",
"352 422 OFFCURVE",
"352 420 CURVE",
"352 218 LINE",
"351 220 OFFCURVE",
"437 222 OFFCURVE",
"439 222 CURVE SMOOTH",
"596 226 OFFCURVE",
"743 166 OFFCURVE",
"743 -8 CURVE SMOOTH",
"743 -139 OFFCURVE",
"659 -221 OFFCURVE",
"475 -221 CURVE SMOOTH",
"366 -221 OFFCURVE",
"240 -185 OFFCURVE",
"161 -110 CURVE",
"81 -329 LINE"
);
}
);
width = 1116;
}
);
},
{
glyphname = four.op;
layers = (
{
layerId = "B61D43DE-5272-4FF4-A680-608B6BF5ED9E";
paths = (
{
closed = 1;
nodes = (
"988 -294 LINE",
"988 826 LINE",
"738 826 LINE",
"696 30 LINE",
"696 -294 LINE"
);
},
{
closed = 1;
nodes = (
"1173 0 LINE",
"1173 195 LINE",
"378 195 LINE",
"621 1133 LINE",
"321 1133 LINE",
"46 0 LINE"
);
}
);
width = 1227;
}
);
},
{
glyphname = five.op;
layers = (
{
layerId = "B61D43DE-5272-4FF4-A680-608B6BF5ED9E";
paths = (
{
closed = 1;
nodes = (
"193 -410 OFFCURVE",
"346 -434 OFFCURVE",
"472 -434 CURVE SMOOTH",
"805 -434 OFFCURVE",
"1035 -254 OFFCURVE",
"1035 65 CURVE SMOOTH",
"1035 305 OFFCURVE",
"880 522 OFFCURVE",
"591 522 CURVE SMOOTH",
"519 522 OFFCURVE",
"459 515 OFFCURVE",
"396 497 CURVE",
"423 803 LINE",
"948 803 LINE",
"948 1020 LINE",
"183 1020 LINE",
"156 255 LINE",
"199 282 OFFCURVE",
"331 321 OFFCURVE",
"447 321 CURVE SMOOTH",
"646 321 OFFCURVE",
"757 216 OFFCURVE",
"757 55 CURVE SMOOTH",
"757 -188 OFFCURVE",
"567 -227 OFFCURVE",
"437 -227 CURVE SMOOTH",
"340 -227 OFFCURVE",
"227 -184 OFFCURVE",
"167 -130 CURVE",
"93 -343 LINE"
);
}
);
width = 1119;
}
);
},
{
glyphname = six.op;
layers = (
{
layerId = "B61D43DE-5272-4FF4-A680-608B6BF5ED9E";
paths = (
{
closed = 1;
nodes = (
"109 150 OFFCURVE",
"420 -30 OFFCURVE",
"663 -30 CURVE SMOOTH",
"978 -30 OFFCURVE",
"1188 170 OFFCURVE",
"1188 485 CURVE SMOOTH",
"1188 734 OFFCURVE",
"1030 936 OFFCURVE",
"753 936 CURVE SMOOTH",
"605 936 OFFCURVE",
"463 875 OFFCURVE",
"390 734 CURVE",
"389 756 OFFCURVE",
"389 780 OFFCURVE",
"392 809 CURVE SMOOTH",
"412 1020 OFFCURVE",
"503 1248 OFFCURVE",
"716 1248 CURVE SMOOTH",
"793 1248 OFFCURVE",
"919 1233 OFFCURVE",
"984 1161 CURVE",
"1084 1358 LINE",
"1017 1422 OFFCURVE",
"901 1463 OFFCURVE",
"709 1463 CURVE SMOOTH",
"348 1463 OFFCURVE",
"109 1168 OFFCURVE",
"109 688 CURVE SMOOTH"
);
},
{
closed = 1;
nodes = (
"421 440 OFFCURVE",
"420 462 OFFCURVE",
"420 484 CURVE",
"428 616 OFFCURVE",
"564 728 OFFCURVE",
"693 728 CURVE SMOOTH",
"840 728 OFFCURVE",
"910 620 OFFCURVE",
"910 460 CURVE SMOOTH",
"910 284 OFFCURVE",
"798 181 OFFCURVE",
"669 181 CURVE SMOOTH",
"543 181 OFFCURVE",
"465 287 OFFCURVE",
"428 416 CURVE SMOOTH"
);
}
);
width = 1275;
}
);
},
{
glyphname = seven.op;
layers = (
{
layerId = "B61D43DE-5272-4FF4-A680-608B6BF5ED9E";
paths = (
{
closed = 1;
nodes = (
"544 -407 LINE",
"646 -84 OFFCURVE",
"937 746 OFFCURVE",
"993 920 CURVE",
"931 1020 LINE",
"72 1020 LINE",
"72 798 LINE",
"699 798 LINE",
"247 -407 LINE"
);
}
);
width = 1080;
}
);
},
{
glyphname = eight.op;
layers = (
{
layerId = "B61D43DE-5272-4FF4-A680-608B6BF5ED9E";
paths = (
{
closed = 1;
nodes = (
"425 1206 OFFCURVE",
"502 1274 OFFCURVE",
"639 1274 CURVE SMOOTH",
"777 1274 OFFCURVE",
"843 1206 OFFCURVE",
"843 1073 CURVE SMOOTH",
"843 925 OFFCURVE",
"746 843 OFFCURVE",
"639 843 CURVE SMOOTH",
"533 843 OFFCURVE",
"425 925 OFFCURVE",
"425 1074 CURVE SMOOTH"
);
},
{
closed = 1;
nodes = (
"157 820 OFFCURVE",
"356 694 OFFCURVE",
"637 694 CURVE SMOOTH",
"896 694 OFFCURVE",
"1110 820 OFFCURVE",
"1110 1091 CURVE SMOOTH",
"1110 1361 OFFCURVE",
"872 1463 OFFCURVE",
"636 1463 CURVE SMOOTH",
"400 1463 OFFCURVE",
"157 1361 OFFCURVE",
"157 1091 CURVE SMOOTH"
);
},
{
closed = 1;
nodes = (
"731 634 OFFCURVE",
"880 579 OFFCURVE",
"880 395 CURVE SMOOTH",
"880 243 OFFCURVE",
"790 169 OFFCURVE",
"635 169 CURVE SMOOTH",
"478 169 OFFCURVE",
"388 243 OFFCURVE",
"388 395 CURVE SMOOTH",
"388 579 OFFCURVE",
"537 634 OFFCURVE",
"634 634 CURVE SMOOTH"
);
},
{
closed = 1;
nodes = (
"891 -36 OFFCURVE",
"1171 82 OFFCURVE",
"1171 391 CURVE SMOOTH",
"1171 658 OFFCURVE",
"930 786 OFFCURVE",
"634 786 CURVE SMOOTH",
"338 786 OFFCURVE",
"97 658 OFFCURVE",
"97 391 CURVE SMOOTH",
"97 82 OFFCURVE",
"377 -36 OFFCURVE",
"635 -36 CURVE SMOOTH"
);
}
);
width = 1268;
}
);
},
{
glyphname = nine.op;
layers = (
{
layerId = "B61D43DE-5272-4FF4-A680-608B6BF5ED9E";
paths = (
{
closed = 1;
nodes = (
"1174 874 OFFCURVE",
"883 1048 OFFCURVE",
"620 1048 CURVE SMOOTH",
"305 1048 OFFCURVE",
"95 848 OFFCURVE",
"95 533 CURVE SMOOTH",
"95 284 OFFCURVE",
"253 82 OFFCURVE",
"530 82 CURVE SMOOTH",
"678 82 OFFCURVE",
"820 143 OFFCURVE",
"893 284 CURVE",
"894 262 OFFCURVE",
"893 238 OFFCURVE",
"891 209 CURVE SMOOTH",
"878 -2 OFFCURVE",
"781 -230 OFFCURVE",
"537 -230 CURVE SMOOTH",
"469 -230 OFFCURVE",
"348 -205 OFFCURVE",
"289 -143 CURVE",
"189 -340 LINE",
"250 -394 OFFCURVE",
"367 -445 OFFCURVE",
"544 -445 CURVE SMOOTH",
"933 -445 OFFCURVE",
"1174 -154 OFFCURVE",
"1174 326 CURVE"
);
},
{
closed = 1;
nodes = (
"862 578 OFFCURVE",
"863 556 OFFCURVE",
"863 534 CURVE",
"855 402 OFFCURVE",
"719 290 OFFCURVE",
"590 290 CURVE SMOOTH",
"443 290 OFFCURVE",
"373 398 OFFCURVE",
"373 558 CURVE SMOOTH",
"373 734 OFFCURVE",
"485 837 OFFCURVE",
"614 837 CURVE SMOOTH",
"740 837 OFFCURVE",
"828 731 OFFCURVE",
"855 602 CURVE"
);
}
);
width = 1275;
}
);
},
{
glyphname = zero.osf;
lastChange = "2018-05-15 04:44:29 +0000";
layers = (
{
layerId = "B61D43DE-5272-4FF4-A680-608B6BF5ED9E";
paths = (
{
closed = 1;
nodes = (
"413 183 OFFCURVE",
"352 327 OFFCURVE",
"352 503 CURVE SMOOTH",
"352 692 OFFCURVE",
"416 828 OFFCURVE",
"589 828 CURVE SMOOTH",
"762 828 OFFCURVE",
"826 692 OFFCURVE",
"826 503 CURVE SMOOTH",
"826 327 OFFCURVE",
"765 183 OFFCURVE",
"589 183 CURVE SMOOTH"
);
},
{
closed = 1;
nodes = (
"970 -36 OFFCURVE",
"1123 188 OFFCURVE",
"1123 500 CURVE SMOOTH",
"1123 863 OFFCURVE",
"927 1043 OFFCURVE",
"598 1043 CURVE SMOOTH",
"269 1043 OFFCURVE",
"73 863 OFFCURVE",
"73 500 CURVE SMOOTH",
"73 188 OFFCURVE",
"226 -36 OFFCURVE",
"598 -36 CURVE SMOOTH"
);
}
);
width = 1192;
}
);
},
{
glyphname = one.osf;
lastChange = "2018-05-15 04:44:29 +0000";
layers = (
{
layerId = "B61D43DE-5272-4FF4-A680-608B6BF5ED9E";
paths = (
{
closed = 1;
nodes = (
"458 0 LINE",
"458 1046 LINE",
"182 902 LINE",
"182 0 LINE"
);
}
);
width = 641;
}
);
},
{
glyphname = two.osf;
lastChange = "2018-05-15 04:44:29 +0000";
layers = (
{
layerId = "B61D43DE-5272-4FF4-A680-608B6BF5ED9E";
paths = (
{
closed = 1;
nodes = (
"1019 225 LINE",
"387 225 LINE",
"387 265 OFFCURVE",
"583 317 OFFCURVE",
"721 362 CURVE SMOOTH",
"912 424 OFFCURVE",
"1044 510 OFFCURVE",
"1044 721 CURVE SMOOTH",
"1044 862 OFFCURVE",
"938 1046 OFFCURVE",
"580 1046 CURVE SMOOTH",
"277 1046 OFFCURVE",
"113 892 OFFCURVE",
"88 733 CURVE",
"316 622 LINE",
"329 706 OFFCURVE",
"391 831 OFFCURVE",
"565 831 CURVE SMOOTH",
"717 831 OFFCURVE",
"765 776 OFFCURVE",
"765 711 CURVE SMOOTH",
"765 547 OFFCURVE",
"563 531 OFFCURVE",
"428 482 CURVE SMOOTH",
"139 360 OFFCURVE",
"95 257 OFFCURVE",
"95 131 CURVE SMOOTH",
"95 88 OFFCURVE",
"101 44 OFFCURVE",
"110 0 CURVE",
"1019 0 LINE"
);
}
);
width = 1149;
}
);
},
{
glyphname = three.osf;
lastChange = "2018-05-15 04:44:29 +0000";
layers = (
{
layerId = "B61D43DE-5272-4FF4-A680-608B6BF5ED9E";
paths = (
{
closed = 1;
nodes = (
"197 -410 OFFCURVE",
"346 -447 OFFCURVE",
"502 -447 CURVE SMOOTH",
"795 -447 OFFCURVE",
"1032 -286 OFFCURVE",
"1032 -16 CURVE SMOOTH",
"1032 157 OFFCURVE",
"934 277 OFFCURVE",
"760 321 CURVE",
"911 360 OFFCURVE",
"998 493 OFFCURVE",
"998 648 CURVE SMOOTH",
"998 881 OFFCURVE",
"817 1046 OFFCURVE",
"535 1046 CURVE SMOOTH",
"362 1046 OFFCURVE",
"183 990 OFFCURVE",
"99 917 CURVE",
"181 718 LINE",
"253 799 OFFCURVE",
"369 831 OFFCURVE",
"468 831 CURVE SMOOTH",
"616 831 OFFCURVE",
"701 743 OFFCURVE",
"701 607 CURVE SMOOTH",
"701 482 OFFCURVE",
"611 420 OFFCURVE",
"442 420 CURVE",
"442 420 OFFCURVE",
"352 422 OFFCURVE",
"352 420 CURVE",
"352 218 LINE",
"351 220 OFFCURVE",
"437 222 OFFCURVE",
"439 222 CURVE SMOOTH",
"596 226 OFFCURVE",
"743 166 OFFCURVE",
"743 -8 CURVE SMOOTH",
"743 -139 OFFCURVE",
"659 -221 OFFCURVE",
"475 -221 CURVE SMOOTH",
"366 -221 OFFCURVE",
"240 -185 OFFCURVE",
"161 -110 CURVE",
"81 -329 LINE"
);
}
);
width = 1116;
}
);
},
{
glyphname = four.osf;
lastChange = "2018-05-15 04:44:29 +0000";
layers = (
{
layerId = "B61D43DE-5272-4FF4-A680-608B6BF5ED9E";
paths = (
{
closed = 1;
nodes = (
"988 -294 LINE",
"988 826 LINE",
"738 826 LINE",
"696 30 LINE",
"696 -294 LINE"
);
},
{
closed = 1;
nodes = (
"1173 0 LINE",
"1173 195 LINE",
"378 195 LINE",
"621 1133 LINE",
"321 1133 LINE",
"46 0 LINE"
);
}
);
width = 1227;
}
);
},
{
glyphname = five.osf;
lastChange = "2018-05-15 04:44:29 +0000";
layers = (
{
layerId = "B61D43DE-5272-4FF4-A680-608B6BF5ED9E";
paths = (
{
closed = 1;
nodes = (
"193 -410 OFFCURVE",
"346 -434 OFFCURVE",
"472 -434 CURVE SMOOTH",
"805 -434 OFFCURVE",
"1035 -254 OFFCURVE",
"1035 65 CURVE SMOOTH",
"1035 305 OFFCURVE",
"880 522 OFFCURVE",
"591 522 CURVE SMOOTH",
"519 522 OFFCURVE",
"459 515 OFFCURVE",
"396 497 CURVE",
"423 803 LINE",
"948 803 LINE",
"948 1020 LINE",
"183 1020 LINE",
"156 255 LINE",
"199 282 OFFCURVE",
"331 321 OFFCURVE",
"447 321 CURVE SMOOTH",
"646 321 OFFCURVE",
"757 216 OFFCURVE",
"757 55 CURVE SMOOTH",
"757 -188 OFFCURVE",
"567 -227 OFFCURVE",
"437 -227 CURVE SMOOTH",
"340 -227 OFFCURVE",
"227 -184 OFFCURVE",
"167 -130 CURVE",
"93 -343 LINE"
);
}
);
width = 1119;
}
);
},
{
glyphname = six.osf;
lastChange = "2018-05-15 04:44:29 +0000";
layers = (
{
layerId = "B61D43DE-5272-4FF4-A680-608B6BF5ED9E";
paths = (
{
closed = 1;
nodes = (
"109 150 OFFCURVE",
"420 -30 OFFCURVE",
"663 -30 CURVE SMOOTH",
"978 -30 OFFCURVE",
"1188 170 OFFCURVE",
"1188 485 CURVE SMOOTH",
"1188 734 OFFCURVE",
"1030 936 OFFCURVE",
"753 936 CURVE SMOOTH",
"605 936 OFFCURVE",
"463 875 OFFCURVE",
"390 734 CURVE",
"389 756 OFFCURVE",
"389 780 OFFCURVE",
"392 809 CURVE SMOOTH",
"412 1020 OFFCURVE",
"503 1248 OFFCURVE",
"716 1248 CURVE SMOOTH",
"793 1248 OFFCURVE",
"919 1233 OFFCURVE",
"984 1161 CURVE",
"1084 1358 LINE",
"1017 1422 OFFCURVE",
"901 1463 OFFCURVE",
"709 1463 CURVE SMOOTH",
"348 1463 OFFCURVE",
"109 1168 OFFCURVE",
"109 688 CURVE SMOOTH"
);
},
{
closed = 1;
nodes = (
"421 440 OFFCURVE",
"420 462 OFFCURVE",
"420 484 CURVE",
"428 616 OFFCURVE",
"564 728 OFFCURVE",
"693 728 CURVE SMOOTH",
"840 728 OFFCURVE",
"910 620 OFFCURVE",
"910 460 CURVE SMOOTH",
"910 284 OFFCURVE",
"798 181 OFFCURVE",
"669 181 CURVE SMOOTH",
"543 181 OFFCURVE",
"465 287 OFFCURVE",
"428 416 CURVE SMOOTH"
);
}
);
width = 1275;
}
);
},
{
glyphname = seven.osf;
lastChange = "2018-05-15 04:44:29 +0000";
layers = (
{
layerId = "B61D43DE-5272-4FF4-A680-608B6BF5ED9E";
paths = (
{
closed = 1;
nodes = (
"544 -407 LINE",
"646 -84 OFFCURVE",
"937 746 OFFCURVE",
"993 920 CURVE",
"931 1020 LINE",
"72 1020 LINE",
"72 798 LINE",
"699 798 LINE",
"247 -407 LINE"
);
}
);
width = 1080;
}
);
},
{
glyphname = eight.osf;
lastChange = "2018-05-15 04:44:29 +0000";
layers = (
{
layerId = "B61D43DE-5272-4FF4-A680-608B6BF5ED9E";
paths = (
{
closed = 1;
nodes = (
"425 1206 OFFCURVE",
"502 1274 OFFCURVE",
"639 1274 CURVE SMOOTH",
"777 1274 OFFCURVE",
"843 1206 OFFCURVE",
"843 1073 CURVE SMOOTH",
"843 925 OFFCURVE",
"746 843 OFFCURVE",
"639 843 CURVE SMOOTH",
"533 843 OFFCURVE",
"425 925 OFFCURVE",
"425 1074 CURVE SMOOTH"
);
},
{
closed = 1;
nodes = (
"157 820 OFFCURVE",
"356 694 OFFCURVE",
"637 694 CURVE SMOOTH",
"896 694 OFFCURVE",
"1110 820 OFFCURVE",
"1110 1091 CURVE SMOOTH",
"1110 1361 OFFCURVE",
"872 1463 OFFCURVE",
"636 1463 CURVE SMOOTH",
"400 1463 OFFCURVE",
"157 1361 OFFCURVE",
"157 1091 CURVE SMOOTH"
);
},
{
closed = 1;
nodes = (
"731 634 OFFCURVE",
"880 579 OFFCURVE",
"880 395 CURVE SMOOTH",
"880 243 OFFCURVE",
"790 169 OFFCURVE",
"635 169 CURVE SMOOTH",
"478 169 OFFCURVE",
"388 243 OFFCURVE",
"388 395 CURVE SMOOTH",
"388 579 OFFCURVE",
"537 634 OFFCURVE",
"634 634 CURVE SMOOTH"
);
},
{
closed = 1;
nodes = (
"891 -36 OFFCURVE",
"1171 82 OFFCURVE",
"1171 391 CURVE SMOOTH",
"1171 658 OFFCURVE",
"930 786 OFFCURVE",
"634 786 CURVE SMOOTH",
"338 786 OFFCURVE",
"97 658 OFFCURVE",
"97 391 CURVE SMOOTH",
"97 82 OFFCURVE",
"377 -36 OFFCURVE",
"635 -36 CURVE SMOOTH"
);
}
);
width = 1268;
}
);
},
{
glyphname = nine.osf;
lastChange = "2018-05-15 04:44:29 +0000";
layers = (
{
layerId = "B61D43DE-5272-4FF4-A680-608B6BF5ED9E";
paths = (
{
closed = 1;
nodes = (
"1174 874 OFFCURVE",
"883 1048 OFFCURVE",
"620 1048 CURVE SMOOTH",
"305 1048 OFFCURVE",
"95 848 OFFCURVE",
"95 533 CURVE SMOOTH",
"95 284 OFFCURVE",
"253 82 OFFCURVE",
"530 82 CURVE SMOOTH",
"678 82 OFFCURVE",
"820 143 OFFCURVE",
"893 284 CURVE",
"894 262 OFFCURVE",
"893 238 OFFCURVE",
"891 209 CURVE SMOOTH",
"878 -2 OFFCURVE",
"781 -230 OFFCURVE",
"537 -230 CURVE SMOOTH",
"469 -230 OFFCURVE",
"348 -205 OFFCURVE",
"289 -143 CURVE",
"189 -340 LINE",
"250 -394 OFFCURVE",
"367 -445 OFFCURVE",
"544 -445 CURVE SMOOTH",
"933 -445 OFFCURVE",
"1174 -154 OFFCURVE",
"1174 326 CURVE"
);
},
{
closed = 1;
nodes = (
"862 578 OFFCURVE",
"863 556 OFFCURVE",
"863 534 CURVE",
"855 402 OFFCURVE",
"719 290 OFFCURVE",
"590 290 CURVE SMOOTH",
"443 290 OFFCURVE",
"373 398 OFFCURVE",
"373 558 CURVE SMOOTH",
"373 734 OFFCURVE",
"485 837 OFFCURVE",
"614 837 CURVE SMOOTH",
"740 837 OFFCURVE",
"828 731 OFFCURVE",
"855 602 CURVE"
);
}
);
width = 1275;
}
);
},
{
glyphname = zero.slash;
layers = (
{
layerId = "B61D43DE-5272-4FF4-A680-608B6BF5ED9E";
paths = (
{
closed = 1;
nodes = (
"413 183 OFFCURVE",
"352 413 OFFCURVE",
"352 713 CURVE SMOOTH",
"352 1028 OFFCURVE",
"416 1248 OFFCURVE",
"589 1248 CURVE SMOOTH",
"762 1248 OFFCURVE",
"826 1028 OFFCURVE",
"826 713 CURVE SMOOTH",
"826 413 OFFCURVE",
"765 183 OFFCURVE",
"589 183 CURVE SMOOTH"
);
},
{
closed = 1;
nodes = (
"970 -36 OFFCURVE",
"1123 272 OFFCURVE",
"1123 710 CURVE SMOOTH",
"1123 1220 OFFCURVE",
"927 1463 OFFCURVE",
"598 1463 CURVE SMOOTH",
"269 1463 OFFCURVE",
"73 1220 OFFCURVE",
"73 710 CURVE SMOOTH",
"73 272 OFFCURVE",
"226 -36 OFFCURVE",
"598 -36 CURVE SMOOTH"
);
},
{
closed = 1;
nodes = (
"489 183 LINE",
"849 1248 LINE",
"689 1248 LINE",
"328 183 LINE"
);
}
);
width = 1192;
}
);
},
{
glyphname = zero.tf;
lastChange = "2018-05-15 04:48:33 +0000";
layers = (
{
layerId = "B61D43DE-5272-4FF4-A680-608B6BF5ED9E";
paths = (
{
closed = 1;
nodes = (
"413 183 OFFCURVE",
"352 413 OFFCURVE",
"352 713 CURVE SMOOTH",
"352 1028 OFFCURVE",
"416 1248 OFFCURVE",
"589 1248 CURVE SMOOTH",
"762 1248 OFFCURVE",
"826 1028 OFFCURVE",
"826 713 CURVE SMOOTH",
"826 413 OFFCURVE",
"765 183 OFFCURVE",
"589 183 CURVE SMOOTH"
);
},
{
closed = 1;
nodes = (
"970 -36 OFFCURVE",
"1123 272 OFFCURVE",
"1123 710 CURVE SMOOTH",
"1123 1220 OFFCURVE",
"927 1463 OFFCURVE",
"598 1463 CURVE SMOOTH",
"269 1463 OFFCURVE",
"73 1220 OFFCURVE",
"73 710 CURVE SMOOTH",
"73 272 OFFCURVE",
"226 -36 OFFCURVE",
"598 -36 CURVE SMOOTH"
);
}
);
width = 1192;
}
);
},
{
glyphname = one.tf;
lastChange = "2018-05-15 04:48:33 +0000";
layers = (
{
layerId = "B61D43DE-5272-4FF4-A680-608B6BF5ED9E";
paths = (
{
closed = 1;
nodes = (
"729 0 LINE",
"729 1461 LINE",
"453 1343 LINE",
"453 0 LINE"
);
},
{
closed = 1;
nodes = (
"984 0 LINE",
"984 200 LINE",
"181 200 LINE",
"181 0 LINE"
);
},
{
closed = 1;
nodes = (
"729 1221 LINE",
"729 1461 LINE",
"193 1366 LINE",
"193 1126 LINE"
);
}
);
width = 641;
}
);
},
{
glyphname = two.tf;
lastChange = "2018-05-15 04:48:33 +0000";
layers = (
{
layerId = "B61D43DE-5272-4FF4-A680-608B6BF5ED9E";
paths = (
{
closed = 1;
nodes = (
"1049 225 LINE",
"407 225 LINE",
"407 385 OFFCURVE",
"598 452 OFFCURVE",
"721 532 CURVE SMOOTH",
"902 650 OFFCURVE",
"1044 790 OFFCURVE",
"1044 1031 CURVE SMOOTH",
"1044 1212 OFFCURVE",
"938 1463 OFFCURVE",
"580 1463 CURVE SMOOTH",
"277 1463 OFFCURVE",
"113 1286 OFFCURVE",
"88 1073 CURVE",
"316 962 LINE",
"329 1091 OFFCURVE",
"391 1248 OFFCURVE",
"565 1248 CURVE SMOOTH",
"717 1248 OFFCURVE",
"765 1136 OFFCURVE",
"765 1021 CURVE SMOOTH",
"765 823 OFFCURVE",
"559 724 OFFCURVE",
"408 632 CURVE SMOOTH",
"155 480 OFFCURVE",
"115 317 OFFCURVE",
"115 131 CURVE SMOOTH",
"115 88 OFFCURVE",
"121 44 OFFCURVE",
"130 0 CURVE",
"1049 0 LINE"
);
}
);
width = 1149;
}
);
},
{
glyphname = three.tf;
lastChange = "2018-05-15 04:48:33 +0000";
layers = (
{
layerId = "B61D43DE-5272-4FF4-A680-608B6BF5ED9E";
paths = (
{
closed = 1;
nodes = (
"197 7 OFFCURVE",
"346 -30 OFFCURVE",
"502 -30 CURVE SMOOTH",
"795 -30 OFFCURVE",
"1032 131 OFFCURVE",
"1032 401 CURVE SMOOTH",
"1032 574 OFFCURVE",
"934 694 OFFCURVE",
"760 738 CURVE",
"911 777 OFFCURVE",
"998 910 OFFCURVE",
"998 1065 CURVE SMOOTH",
"998 1298 OFFCURVE",
"817 1463 OFFCURVE",
"535 1463 CURVE SMOOTH",
"362 1463 OFFCURVE",
"183 1407 OFFCURVE",
"99 1334 CURVE",
"181 1135 LINE",
"253 1216 OFFCURVE",
"369 1248 OFFCURVE",
"468 1248 CURVE SMOOTH",
"616 1248 OFFCURVE",
"701 1160 OFFCURVE",
"701 1024 CURVE SMOOTH",
"701 899 OFFCURVE",
"611 837 OFFCURVE",
"442 837 CURVE",
"442 837 OFFCURVE",
"352 839 OFFCURVE",
"352 837 CURVE",
"352 635 LINE",
"351 637 OFFCURVE",
"437 639 OFFCURVE",
"439 639 CURVE SMOOTH",
"596 643 OFFCURVE",
"743 583 OFFCURVE",
"743 409 CURVE SMOOTH",
"743 278 OFFCURVE",
"659 196 OFFCURVE",
"475 196 CURVE SMOOTH",
"366 196 OFFCURVE",
"240 232 OFFCURVE",
"161 307 CURVE",
"81 88 LINE"
);
}
);
width = 1116;
}
);
},
{
glyphname = four.tf;
lastChange = "2018-05-15 04:48:33 +0000";
layers = (
{
layerId = "B61D43DE-5272-4FF4-A680-608B6BF5ED9E";
paths = (
{
closed = 1;
nodes = (
"988 0 LINE",
"988 1080 LINE",
"738 1080 LINE",
"696 324 LINE",
"696 0 LINE"
);
},
{
closed = 1;
nodes = (
"1173 294 LINE",
"1173 489 LINE",
"378 489 LINE",
"621 1427 LINE",
"321 1427 LINE",
"46 294 LINE"
);
}
);
width = 1227;
}
);
},
{
glyphname = five.tf;
lastChange = "2018-05-15 04:48:33 +0000";
layers = (
{
layerId = "B61D43DE-5272-4FF4-A680-608B6BF5ED9E";
paths = (
{
closed = 1;
nodes = (
"193 -2 OFFCURVE",
"346 -26 OFFCURVE",
"472 -26 CURVE SMOOTH",
"805 -26 OFFCURVE",
"1035 154 OFFCURVE",
"1035 473 CURVE SMOOTH",
"1035 713 OFFCURVE",
"880 930 OFFCURVE",
"591 930 CURVE SMOOTH",
"519 930 OFFCURVE",
"459 923 OFFCURVE",
"396 905 CURVE",
"423 1211 LINE",
"948 1211 LINE",
"948 1428 LINE",
"183 1428 LINE",
"156 663 LINE",
"199 690 OFFCURVE",
"331 729 OFFCURVE",
"447 729 CURVE SMOOTH",
"646 729 OFFCURVE",
"757 624 OFFCURVE",
"757 463 CURVE SMOOTH",
"757 220 OFFCURVE",
"567 181 OFFCURVE",
"437 181 CURVE SMOOTH",
"340 181 OFFCURVE",
"227 224 OFFCURVE",
"167 278 CURVE",
"93 65 LINE"
);
}
);
width = 1119;
}
);
},
{
glyphname = six.tf;
lastChange = "2018-05-15 04:48:33 +0000";
layers = (
{
layerId = "B61D43DE-5272-4FF4-A680-608B6BF5ED9E";
paths = (
{
closed = 1;
nodes = (
"109 150 OFFCURVE",
"420 -30 OFFCURVE",
"663 -30 CURVE SMOOTH",
"978 -30 OFFCURVE",
"1188 170 OFFCURVE",
"1188 485 CURVE SMOOTH",
"1188 734 OFFCURVE",
"1030 936 OFFCURVE",
"753 936 CURVE SMOOTH",
"605 936 OFFCURVE",
"463 875 OFFCURVE",
"390 734 CURVE",
"389 756 OFFCURVE",
"389 780 OFFCURVE",
"392 809 CURVE SMOOTH",
"412 1020 OFFCURVE",
"503 1248 OFFCURVE",
"716 1248 CURVE SMOOTH",
"793 1248 OFFCURVE",
"919 1233 OFFCURVE",
"984 1161 CURVE",
"1084 1358 LINE",
"1017 1422 OFFCURVE",
"901 1463 OFFCURVE",
"709 1463 CURVE SMOOTH",
"348 1463 OFFCURVE",
"109 1168 OFFCURVE",
"109 688 CURVE SMOOTH"
);
},
{
closed = 1;
nodes = (
"421 440 OFFCURVE",
"420 462 OFFCURVE",
"420 484 CURVE",
"428 616 OFFCURVE",
"564 728 OFFCURVE",
"693 728 CURVE SMOOTH",
"840 728 OFFCURVE",
"910 620 OFFCURVE",
"910 460 CURVE SMOOTH",
"910 284 OFFCURVE",
"798 181 OFFCURVE",
"669 181 CURVE SMOOTH",
"543 181 OFFCURVE",
"465 287 OFFCURVE",
"428 416 CURVE SMOOTH"
);
}
);
width = 1275;
}
);
},
{
glyphname = seven.tf;
lastChange = "2018-05-15 04:48:33 +0000";
layers = (
{
layerId = "B61D43DE-5272-4FF4-A680-608B6BF5ED9E";
paths = (
{
closed = 1;
nodes = (
"544 1 LINE",
"646 324 OFFCURVE",
"937 1154 OFFCURVE",
"993 1328 CURVE",
"931 1428 LINE",
"72 1428 LINE",
"72 1206 LINE",
"699 1206 LINE",
"247 1 LINE"
);
}
);
width = 1080;
}
);
},
{
glyphname = eight.tf;
lastChange = "2018-05-15 04:48:33 +0000";
layers = (
{
layerId = "B61D43DE-5272-4FF4-A680-608B6BF5ED9E";
paths = (
{
closed = 1;
nodes = (
"425 1206 OFFCURVE",
"502 1274 OFFCURVE",
"639 1274 CURVE SMOOTH",
"777 1274 OFFCURVE",
"843 1206 OFFCURVE",
"843 1073 CURVE SMOOTH",
"843 925 OFFCURVE",
"746 843 OFFCURVE",
"639 843 CURVE SMOOTH",
"533 843 OFFCURVE",
"425 925 OFFCURVE",
"425 1074 CURVE SMOOTH"
);
},
{
closed = 1;
nodes = (
"157 820 OFFCURVE",
"356 694 OFFCURVE",
"637 694 CURVE SMOOTH",
"896 694 OFFCURVE",
"1110 820 OFFCURVE",
"1110 1091 CURVE SMOOTH",
"1110 1361 OFFCURVE",
"872 1463 OFFCURVE",
"636 1463 CURVE SMOOTH",
"400 1463 OFFCURVE",
"157 1361 OFFCURVE",
"157 1091 CURVE SMOOTH"
);
},
{
closed = 1;
nodes = (
"731 634 OFFCURVE",
"880 579 OFFCURVE",
"880 395 CURVE SMOOTH",
"880 243 OFFCURVE",
"790 169 OFFCURVE",
"635 169 CURVE SMOOTH",
"478 169 OFFCURVE",
"388 243 OFFCURVE",
"388 395 CURVE SMOOTH",
"388 579 OFFCURVE",
"537 634 OFFCURVE",
"634 634 CURVE SMOOTH"
);
},
{
closed = 1;
nodes = (
"891 -36 OFFCURVE",
"1171 82 OFFCURVE",
"1171 391 CURVE SMOOTH",
"1171 658 OFFCURVE",
"930 786 OFFCURVE",
"634 786 CURVE SMOOTH",
"338 786 OFFCURVE",
"97 658 OFFCURVE",
"97 391 CURVE SMOOTH",
"97 82 OFFCURVE",
"377 -36 OFFCURVE",
"635 -36 CURVE SMOOTH"
);
}
);
width = 1268;
}
);
},
{
glyphname = nine.tf;
lastChange = "2018-05-15 04:48:33 +0000";
layers = (
{
layerId = "B61D43DE-5272-4FF4-A680-608B6BF5ED9E";
paths = (
{
closed = 1;
nodes = (
"1174 1289 OFFCURVE",
"883 1463 OFFCURVE",
"620 1463 CURVE SMOOTH",
"305 1463 OFFCURVE",
"95 1263 OFFCURVE",
"95 948 CURVE SMOOTH",
"95 699 OFFCURVE",
"253 497 OFFCURVE",
"530 497 CURVE SMOOTH",
"678 497 OFFCURVE",
"820 558 OFFCURVE",
"893 699 CURVE",
"894 677 OFFCURVE",
"893 653 OFFCURVE",
"891 624 CURVE SMOOTH",
"878 413 OFFCURVE",
"781 185 OFFCURVE",
"537 185 CURVE SMOOTH",
"469 185 OFFCURVE",
"348 210 OFFCURVE",
"289 272 CURVE",
"189 75 LINE",
"250 21 OFFCURVE",
"367 -30 OFFCURVE",
"544 -30 CURVE SMOOTH",
"933 -30 OFFCURVE",
"1174 261 OFFCURVE",
"1174 741 CURVE"
);
},
{
closed = 1;
nodes = (
"862 993 OFFCURVE",
"863 971 OFFCURVE",
"863 949 CURVE",
"855 817 OFFCURVE",
"719 705 OFFCURVE",
"590 705 CURVE SMOOTH",
"443 705 OFFCURVE",
"373 813 OFFCURVE",
"373 973 CURVE SMOOTH",
"373 1149 OFFCURVE",
"485 1252 OFFCURVE",
"614 1252 CURVE SMOOTH",
"740 1252 OFFCURVE",
"828 1146 OFFCURVE",
"855 1017 CURVE"
);
}
);
width = 1275;
}
);
},
{
glyphname = zero.tosf;
lastChange = "2018-05-15 04:46:54 +0000";
layers = (
{
layerId = "B61D43DE-5272-4FF4-A680-608B6BF5ED9E";
paths = (
{
closed = 1;
nodes = (
"406 183 OFFCURVE",
"351 327 OFFCURVE",
"351 503 CURVE SMOOTH",
"351 692 OFFCURVE",
"409 828 OFFCURVE",
"568 828 CURVE SMOOTH",
"727 828 OFFCURVE",
"785 692 OFFCURVE",
"785 503 CURVE SMOOTH",
"785 327 OFFCURVE",
"730 183 OFFCURVE",
"568 183 CURVE SMOOTH"
);
},
{
closed = 1;
nodes = (
"935 -36 OFFCURVE",
"1082 188 OFFCURVE",
"1082 500 CURVE SMOOTH",
"1082 863 OFFCURVE",
"894 1043 OFFCURVE",
"577 1043 CURVE SMOOTH",
"260 1043 OFFCURVE",
"72 863 OFFCURVE",
"72 500 CURVE SMOOTH",
"72 188 OFFCURVE",
"219 -36 OFFCURVE",
"577 -36 CURVE SMOOTH"
);
}
);
width = 1155;
}
);
},
{
glyphname = one.tosf;
lastChange = "2018-05-15 04:46:54 +0000";
layers = (
{
layerId = "B61D43DE-5272-4FF4-A680-608B6BF5ED9E";
paths = (
{
closed = 1;
nodes = (
"755 0 LINE",
"755 1020 LINE",
"479 902 LINE",
"479 0 LINE"
);
},
{
closed = 1;
nodes = (
"984 0 LINE",
"984 200 LINE",
"181 200 LINE",
"181 0 LINE"
);
},
{
closed = 1;
nodes = (
"755 780 LINE",
"755 1020 LINE",
"219 925 LINE",
"219 685 LINE"
);
}
);
width = 1155;
}
);
},
{
glyphname = two.tosf;
lastChange = "2018-05-15 04:46:54 +0000";
layers = (
{
layerId = "B61D43DE-5272-4FF4-A680-608B6BF5ED9E";
paths = (
{
closed = 1;
nodes = (
"1050 225 LINE",
"398 225 LINE",
"398 265 OFFCURVE",
"594 317 OFFCURVE",
"732 362 CURVE SMOOTH",
"923 424 OFFCURVE",
"1025 510 OFFCURVE",
"1025 721 CURVE SMOOTH",
"1025 862 OFFCURVE",
"949 1046 OFFCURVE",
"591 1046 CURVE SMOOTH",
"288 1046 OFFCURVE",
"124 892 OFFCURVE",
"99 733 CURVE",
"327 622 LINE",
"340 706 OFFCURVE",
"402 831 OFFCURVE",
"576 831 CURVE SMOOTH",
"688 831 OFFCURVE",
"746 776 OFFCURVE",
"746 711 CURVE SMOOTH",
"746 547 OFFCURVE",
"574 531 OFFCURVE",
"439 482 CURVE SMOOTH",
"150 360 OFFCURVE",
"106 257 OFFCURVE",
"106 131 CURVE SMOOTH",
"106 88 OFFCURVE",
"112 44 OFFCURVE",
"121 0 CURVE",
"1050 0 LINE"
);
}
);
width = 1155;
}
);
},
{
glyphname = three.tosf;
lastChange = "2018-05-15 04:46:54 +0000";
layers = (
{
layerId = "B61D43DE-5272-4FF4-A680-608B6BF5ED9E";
paths = (
{
closed = 1;
nodes = (
"208 -410 OFFCURVE",
"367 -447 OFFCURVE",
"523 -447 CURVE SMOOTH",
"816 -447 OFFCURVE",
"1063 -296 OFFCURVE",
"1063 -26 CURVE SMOOTH",
"1063 167 OFFCURVE",
"955 277 OFFCURVE",
"781 321 CURVE",
"932 360 OFFCURVE",
"1019 493 OFFCURVE",
"1019 648 CURVE SMOOTH",
"1019 881 OFFCURVE",
"838 1046 OFFCURVE",
"556 1046 CURVE SMOOTH",
"383 1046 OFFCURVE",
"194 990 OFFCURVE",
"110 917 CURVE",
"192 718 LINE",
"264 799 OFFCURVE",
"390 831 OFFCURVE",
"489 831 CURVE SMOOTH",
"637 831 OFFCURVE",
"722 743 OFFCURVE",
"722 607 CURVE SMOOTH",
"722 482 OFFCURVE",
"622 420 OFFCURVE",
"453 420 CURVE",
"453 420 OFFCURVE",
"363 422 OFFCURVE",
"363 420 CURVE",
"363 218 LINE",
"362 220 OFFCURVE",
"448 222 OFFCURVE",
"450 222 CURVE SMOOTH",
"607 226 OFFCURVE",
"774 176 OFFCURVE",
"774 -18 CURVE SMOOTH",
"774 -149 OFFCURVE",
"680 -221 OFFCURVE",
"496 -221 CURVE SMOOTH",
"387 -221 OFFCURVE",
"251 -185 OFFCURVE",
"172 -110 CURVE",
"92 -329 LINE"
);
}
);
width = 1155;
}
);
},
{
glyphname = four.tosf;
lastChange = "2018-05-15 04:46:54 +0000";
layers = (
{
layerId = "B61D43DE-5272-4FF4-A680-608B6BF5ED9E";
paths = (
{
closed = 1;
nodes = (
"956 -294 LINE",
"956 826 LINE",
"706 826 LINE",
"664 30 LINE",
"664 -294 LINE"
);
},
{
closed = 1;
nodes = (
"1101 0 LINE",
"1101 195 LINE",
"396 195 LINE",
"589 1133 LINE",
"289 1133 LINE",
"64 0 LINE"
);
}
);
width = 1155;
}
);
},
{
glyphname = five.tosf;
lastChange = "2018-05-15 04:46:54 +0000";
layers = (
{
layerId = "B61D43DE-5272-4FF4-A680-608B6BF5ED9E";
paths = (
{
closed = 1;
nodes = (
"206 -410 OFFCURVE",
"359 -434 OFFCURVE",
"485 -434 CURVE SMOOTH",
"818 -434 OFFCURVE",
"1048 -254 OFFCURVE",
"1048 65 CURVE SMOOTH",
"1048 305 OFFCURVE",
"923 522 OFFCURVE",
"604 522 CURVE SMOOTH",
"532 522 OFFCURVE",
"472 515 OFFCURVE",
"409 497 CURVE",
"436 803 LINE",
"961 803 LINE",
"961 1020 LINE",
"196 1020 LINE",
"169 255 LINE",
"212 282 OFFCURVE",
"344 321 OFFCURVE",
"460 321 CURVE SMOOTH",
"689 321 OFFCURVE",
"770 216 OFFCURVE",
"770 55 CURVE SMOOTH",
"770 -188 OFFCURVE",
"580 -227 OFFCURVE",
"450 -227 CURVE SMOOTH",
"353 -227 OFFCURVE",
"240 -184 OFFCURVE",
"180 -130 CURVE",
"106 -343 LINE"
);
}
);
width = 1155;
}
);
},
{
glyphname = six.tosf;
lastChange = "2018-05-15 04:46:54 +0000";
layers = (
{
layerId = "B61D43DE-5272-4FF4-A680-608B6BF5ED9E";
paths = (
{
closed = 1;
nodes = (
"48 150 OFFCURVE",
"353 -30 OFFCURVE",
"592 -30 CURVE SMOOTH",
"901 -30 OFFCURVE",
"1107 189 OFFCURVE",
"1107 504 CURVE SMOOTH",
"1107 753 OFFCURVE",
"953 936 OFFCURVE",
"682 936 CURVE SMOOTH",
"538 936 OFFCURVE",
"380 885 OFFCURVE",
"309 754 CURVE",
"308 776 OFFCURVE",
"308 800 OFFCURVE",
"311 829 CURVE SMOOTH",
"330 1040 OFFCURVE",
"449 1258 OFFCURVE",
"675 1258 CURVE SMOOTH",
"752 1258 OFFCURVE",
"848 1233 OFFCURVE",
"913 1161 CURVE",
"1013 1358 LINE",
"946 1422 OFFCURVE",
"850 1463 OFFCURVE",
"658 1463 CURVE SMOOTH",
"273 1463 OFFCURVE",
"48 1168 OFFCURVE",
"48 688 CURVE SMOOTH"
);
},
{
closed = 1;
nodes = (
"340 450 OFFCURVE",
"339 472 OFFCURVE",
"339 494 CURVE",
"347 626 OFFCURVE",
"498 728 OFFCURVE",
"622 728 CURVE SMOOTH",
"762 728 OFFCURVE",
"829 620 OFFCURVE",
"829 460 CURVE SMOOTH",
"829 284 OFFCURVE",
"722 181 OFFCURVE",
"598 181 CURVE SMOOTH",
"477 181 OFFCURVE",
"383 297 OFFCURVE",
"347 426 CURVE SMOOTH"
);
}
);
width = 1155;
}
);
},
{
glyphname = seven.tosf;
lastChange = "2018-05-15 04:46:54 +0000";
layers = (
{
layerId = "B61D43DE-5272-4FF4-A680-608B6BF5ED9E";
paths = (
{
closed = 1;
nodes = (
"589 -407 LINE",
"691 -84 OFFCURVE",
"1032 746 OFFCURVE",
"1088 920 CURVE",
"1026 1020 LINE",
"117 1020 LINE",
"117 798 LINE",
"794 798 LINE",
"292 -407 LINE"
);
}
);
width = 1155;
}
);
},
{
glyphname = eight.tosf;
lastChange = "2018-05-15 04:46:54 +0000";
layers = (
{
layerId = "B61D43DE-5272-4FF4-A680-608B6BF5ED9E";
paths = (
{
closed = 1;
nodes = (
"388 1206 OFFCURVE",
"457 1274 OFFCURVE",
"582 1274 CURVE SMOOTH",
"706 1274 OFFCURVE",
"766 1206 OFFCURVE",
"766 1073 CURVE SMOOTH",
"766 925 OFFCURVE",
"679 843 OFFCURVE",
"582 843 CURVE SMOOTH",
"486 843 OFFCURVE",
"388 925 OFFCURVE",
"388 1074 CURVE SMOOTH"
);
},
{
closed = 1;
nodes = (
"120 820 OFFCURVE",
"311 694 OFFCURVE",
"580 694 CURVE SMOOTH",
"828 694 OFFCURVE",
"1033 820 OFFCURVE",
"1033 1091 CURVE SMOOTH",
"1033 1361 OFFCURVE",
"805 1463 OFFCURVE",
"579 1463 CURVE SMOOTH",
"353 1463 OFFCURVE",
"120 1361 OFFCURVE",
"120 1091 CURVE SMOOTH"
);
},
{
closed = 1;
nodes = (
"666 634 OFFCURVE",
"803 579 OFFCURVE",
"803 395 CURVE SMOOTH",
"803 243 OFFCURVE",
"720 169 OFFCURVE",
"578 169 CURVE SMOOTH",
"433 169 OFFCURVE",
"351 243 OFFCURVE",
"351 395 CURVE SMOOTH",
"351 579 OFFCURVE",
"488 634 OFFCURVE",
"577 634 CURVE SMOOTH"
);
},
{
closed = 1;
nodes = (
"824 -36 OFFCURVE",
"1094 82 OFFCURVE",
"1094 391 CURVE SMOOTH",
"1094 658 OFFCURVE",
"862 786 OFFCURVE",
"577 786 CURVE SMOOTH",
"293 786 OFFCURVE",
"60 658 OFFCURVE",
"60 391 CURVE SMOOTH",
"60 82 OFFCURVE",
"330 -36 OFFCURVE",
"578 -36 CURVE SMOOTH"
);
}
);
width = 1155;
}
);
},
{
glyphname = nine.tosf;
lastChange = "2018-05-15 04:46:54 +0000";
layers = (
{
layerId = "B61D43DE-5272-4FF4-A680-608B6BF5ED9E";
paths = (
{
closed = 1;
nodes = (
"1097 874 OFFCURVE",
"846 1048 OFFCURVE",
"563 1048 CURVE SMOOTH",
"260 1048 OFFCURVE",
"58 848 OFFCURVE",
"58 533 CURVE SMOOTH",
"58 284 OFFCURVE",
"208 82 OFFCURVE",
"473 82 CURVE SMOOTH",
"613 82 OFFCURVE",
"747 143 OFFCURVE",
"816 284 CURVE",
"817 262 OFFCURVE",
"816 238 OFFCURVE",
"814 209 CURVE SMOOTH",
"801 -2 OFFCURVE",
"710 -230 OFFCURVE",
"480 -230 CURVE SMOOTH",
"412 -230 OFFCURVE",
"291 -205 OFFCURVE",
"232 -143 CURVE",
"132 -340 LINE",
"193 -394 OFFCURVE",
"310 -445 OFFCURVE",
"487 -445 CURVE SMOOTH",
"864 -445 OFFCURVE",
"1097 -154 OFFCURVE",
"1097 326 CURVE"
);
},
{
closed = 1;
nodes = (
"785 578 OFFCURVE",
"786 556 OFFCURVE",
"786 534 CURVE",
"778 402 OFFCURVE",
"652 290 OFFCURVE",
"533 290 CURVE SMOOTH",
"400 290 OFFCURVE",
"336 398 OFFCURVE",
"336 558 CURVE SMOOTH",
"336 734 OFFCURVE",
"438 837 OFFCURVE",
"557 837 CURVE SMOOTH",
"713 837 OFFCURVE",
"753 731 OFFCURVE",
"778 602 CURVE"
);
}
);
width = 1155;
}
);
},
{
glyphname = zero.subs;
layers = (
{
layerId = "B61D43DE-5272-4FF4-A680-608B6BF5ED9E";
paths = (
{
closed = 1;
nodes = (
"413 183 OFFCURVE",
"352 413 OFFCURVE",
"352 713 CURVE SMOOTH",
"352 1028 OFFCURVE",
"416 1248 OFFCURVE",
"589 1248 CURVE SMOOTH",
"762 1248 OFFCURVE",
"826 1028 OFFCURVE",
"826 713 CURVE SMOOTH",
"826 413 OFFCURVE",
"765 183 OFFCURVE",
"589 183 CURVE SMOOTH"
);
},
{
closed = 1;
nodes = (
"970 -36 OFFCURVE",
"1123 272 OFFCURVE",
"1123 710 CURVE SMOOTH",
"1123 1220 OFFCURVE",
"927 1463 OFFCURVE",
"598 1463 CURVE SMOOTH",
"269 1463 OFFCURVE",
"73 1220 OFFCURVE",
"73 710 CURVE SMOOTH",
"73 272 OFFCURVE",
"226 -36 OFFCURVE",
"598 -36 CURVE SMOOTH"
);
}
);
width = 1192;
}
);
userData = {
com.typemytype.robofont.mark = (
0.967,
0.6,
1,
1
);
};
},
{
glyphname = one.subs;
layers = (
{
layerId = "B61D43DE-5272-4FF4-A680-608B6BF5ED9E";
paths = (
{
closed = 1;
nodes = (
"458 0 LINE",
"458 1464 LINE",
"182 1320 LINE",
"182 0 LINE"
);
}
);
width = 641;
}
);
userData = {
com.typemytype.robofont.mark = (
0.967,
0.6,
1,
1
);
};
},
{
glyphname = two.subs;
layers = (
{
layerId = "B61D43DE-5272-4FF4-A680-608B6BF5ED9E";
paths = (
{
closed = 1;
nodes = (
"1049 225 LINE",
"407 225 LINE",
"407 385 OFFCURVE",
"598 452 OFFCURVE",
"721 532 CURVE SMOOTH",
"902 650 OFFCURVE",
"1044 790 OFFCURVE",
"1044 1031 CURVE SMOOTH",
"1044 1212 OFFCURVE",
"938 1463 OFFCURVE",
"580 1463 CURVE SMOOTH",
"277 1463 OFFCURVE",
"113 1286 OFFCURVE",
"88 1073 CURVE",
"316 962 LINE",
"329 1091 OFFCURVE",
"391 1248 OFFCURVE",
"565 1248 CURVE SMOOTH",
"717 1248 OFFCURVE",
"765 1136 OFFCURVE",
"765 1021 CURVE SMOOTH",
"765 823 OFFCURVE",
"559 724 OFFCURVE",
"408 632 CURVE SMOOTH",
"155 480 OFFCURVE",
"115 317 OFFCURVE",
"115 131 CURVE SMOOTH",
"115 88 OFFCURVE",
"121 44 OFFCURVE",
"130 0 CURVE",
"1049 0 LINE"
);
}
);
width = 1149;
}
);
userData = {
com.typemytype.robofont.mark = (
0.967,
0.6,
1,
1
);
};
},
{
glyphname = three.subs;
layers = (
{
layerId = "B61D43DE-5272-4FF4-A680-608B6BF5ED9E";
paths = (
{
closed = 1;
nodes = (
"197 7 OFFCURVE",
"346 -30 OFFCURVE",
"502 -30 CURVE SMOOTH",
"795 -30 OFFCURVE",
"1032 131 OFFCURVE",
"1032 401 CURVE SMOOTH",
"1032 574 OFFCURVE",
"934 694 OFFCURVE",
"760 738 CURVE",
"911 777 OFFCURVE",
"998 910 OFFCURVE",
"998 1065 CURVE SMOOTH",
"998 1298 OFFCURVE",
"817 1463 OFFCURVE",
"535 1463 CURVE SMOOTH",
"362 1463 OFFCURVE",
"183 1407 OFFCURVE",
"99 1334 CURVE",
"181 1135 LINE",
"253 1216 OFFCURVE",
"369 1248 OFFCURVE",
"468 1248 CURVE SMOOTH",
"616 1248 OFFCURVE",
"701 1160 OFFCURVE",
"701 1024 CURVE SMOOTH",
"701 899 OFFCURVE",
"611 837 OFFCURVE",
"442 837 CURVE",
"442 837 OFFCURVE",
"352 839 OFFCURVE",
"352 837 CURVE",
"352 635 LINE",
"351 637 OFFCURVE",
"437 639 OFFCURVE",
"439 639 CURVE SMOOTH",
"596 643 OFFCURVE",
"743 583 OFFCURVE",
"743 409 CURVE SMOOTH",
"743 278 OFFCURVE",
"659 196 OFFCURVE",
"475 196 CURVE SMOOTH",
"366 196 OFFCURVE",
"240 232 OFFCURVE",
"161 307 CURVE",
"81 88 LINE"
);
}
);
width = 1116;
}
);
userData = {
com.typemytype.robofont.mark = (
0.967,
0.6,
1,
1
);
};
},
{
glyphname = four.subs;
layers = (
{
layerId = "B61D43DE-5272-4FF4-A680-608B6BF5ED9E";
paths = (
{
closed = 1;
nodes = (
"988 0 LINE",
"988 1080 LINE",
"738 1080 LINE",
"696 324 LINE",
"696 0 LINE"
);
},
{
closed = 1;
nodes = (
"1173 294 LINE",
"1173 489 LINE",
"378 489 LINE",
"621 1427 LINE",
"321 1427 LINE",
"46 294 LINE"
);
}
);
width = 1227;
}
);
userData = {
com.typemytype.robofont.mark = (
0.967,
0.6,
1,
1
);
};
},
{
glyphname = five.subs;
layers = (
{
layerId = "B61D43DE-5272-4FF4-A680-608B6BF5ED9E";
paths = (
{
closed = 1;
nodes = (
"193 -2 OFFCURVE",
"346 -26 OFFCURVE",
"472 -26 CURVE SMOOTH",
"805 -26 OFFCURVE",
"1035 154 OFFCURVE",
"1035 473 CURVE SMOOTH",
"1035 713 OFFCURVE",
"880 930 OFFCURVE",
"591 930 CURVE SMOOTH",
"519 930 OFFCURVE",
"459 923 OFFCURVE",
"396 905 CURVE",
"423 1211 LINE",
"948 1211 LINE",
"948 1428 LINE",
"183 1428 LINE",
"156 663 LINE",
"199 690 OFFCURVE",
"331 729 OFFCURVE",
"447 729 CURVE SMOOTH",
"646 729 OFFCURVE",
"757 624 OFFCURVE",
"757 463 CURVE SMOOTH",
"757 220 OFFCURVE",
"567 181 OFFCURVE",
"437 181 CURVE SMOOTH",
"340 181 OFFCURVE",
"227 224 OFFCURVE",
"167 278 CURVE",
"93 65 LINE"
);
}
);
width = 1119;
}
);
userData = {
com.typemytype.robofont.mark = (
0.967,
0.6,
1,
1
);
};
},
{
glyphname = six.subs;
layers = (
{
layerId = "B61D43DE-5272-4FF4-A680-608B6BF5ED9E";
paths = (
{
closed = 1;
nodes = (
"109 150 OFFCURVE",
"420 -30 OFFCURVE",
"663 -30 CURVE SMOOTH",
"978 -30 OFFCURVE",
"1188 170 OFFCURVE",
"1188 485 CURVE SMOOTH",
"1188 734 OFFCURVE",
"1030 936 OFFCURVE",
"753 936 CURVE SMOOTH",
"605 936 OFFCURVE",
"463 875 OFFCURVE",
"390 734 CURVE",
"389 756 OFFCURVE",
"389 780 OFFCURVE",
"392 809 CURVE SMOOTH",
"412 1020 OFFCURVE",
"503 1248 OFFCURVE",
"716 1248 CURVE SMOOTH",
"793 1248 OFFCURVE",
"919 1233 OFFCURVE",
"984 1161 CURVE",
"1084 1358 LINE",
"1017 1422 OFFCURVE",
"901 1463 OFFCURVE",
"709 1463 CURVE SMOOTH",
"348 1463 OFFCURVE",
"109 1168 OFFCURVE",
"109 688 CURVE SMOOTH"
);
},
{
closed = 1;
nodes = (
"421 440 OFFCURVE",
"420 462 OFFCURVE",
"420 484 CURVE",
"428 616 OFFCURVE",
"564 728 OFFCURVE",
"693 728 CURVE SMOOTH",
"840 728 OFFCURVE",
"910 620 OFFCURVE",
"910 460 CURVE SMOOTH",
"910 284 OFFCURVE",
"798 181 OFFCURVE",
"669 181 CURVE SMOOTH",
"543 181 OFFCURVE",
"465 287 OFFCURVE",
"428 416 CURVE SMOOTH"
);
}
);
width = 1275;
}
);
userData = {
com.typemytype.robofont.mark = (
0.967,
0.6,
1,
1
);
};
},
{
glyphname = seven.subs;
layers = (
{
layerId = "B61D43DE-5272-4FF4-A680-608B6BF5ED9E";
paths = (
{
closed = 1;
nodes = (
"544 1 LINE",
"646 324 OFFCURVE",
"937 1154 OFFCURVE",
"993 1328 CURVE",
"931 1428 LINE",
"72 1428 LINE",
"72 1206 LINE",
"699 1206 LINE",
"247 1 LINE"
);
}
);
width = 1080;
}
);
userData = {
com.typemytype.robofont.mark = (
0.967,
0.6,
1,
1
);
};
},
{
glyphname = eight.subs;
layers = (
{
layerId = "B61D43DE-5272-4FF4-A680-608B6BF5ED9E";
paths = (
{
closed = 1;
nodes = (
"425 1206 OFFCURVE",
"502 1274 OFFCURVE",
"639 1274 CURVE SMOOTH",
"777 1274 OFFCURVE",
"843 1206 OFFCURVE",
"843 1073 CURVE SMOOTH",
"843 925 OFFCURVE",
"746 843 OFFCURVE",
"639 843 CURVE SMOOTH",
"533 843 OFFCURVE",
"425 925 OFFCURVE",
"425 1074 CURVE SMOOTH"
);
},
{
closed = 1;
nodes = (
"157 820 OFFCURVE",
"356 694 OFFCURVE",
"637 694 CURVE SMOOTH",
"896 694 OFFCURVE",
"1110 820 OFFCURVE",
"1110 1091 CURVE SMOOTH",
"1110 1361 OFFCURVE",
"872 1463 OFFCURVE",
"636 1463 CURVE SMOOTH",
"400 1463 OFFCURVE",
"157 1361 OFFCURVE",
"157 1091 CURVE SMOOTH"
);
},
{
closed = 1;
nodes = (
"731 634 OFFCURVE",
"880 579 OFFCURVE",
"880 395 CURVE SMOOTH",
"880 243 OFFCURVE",
"790 169 OFFCURVE",
"635 169 CURVE SMOOTH",
"478 169 OFFCURVE",
"388 243 OFFCURVE",
"388 395 CURVE SMOOTH",
"388 579 OFFCURVE",
"537 634 OFFCURVE",
"634 634 CURVE SMOOTH"
);
},
{
closed = 1;
nodes = (
"891 -36 OFFCURVE",
"1171 82 OFFCURVE",
"1171 391 CURVE SMOOTH",
"1171 658 OFFCURVE",
"930 786 OFFCURVE",
"634 786 CURVE SMOOTH",
"338 786 OFFCURVE",
"97 658 OFFCURVE",
"97 391 CURVE SMOOTH",
"97 82 OFFCURVE",
"377 -36 OFFCURVE",
"635 -36 CURVE SMOOTH"
);
}
);
width = 1268;
}
);
userData = {
com.typemytype.robofont.mark = (
0.967,
0.6,
1,
1
);
};
},
{
glyphname = nine.subs;
layers = (
{
layerId = "B61D43DE-5272-4FF4-A680-608B6BF5ED9E";
paths = (
{
closed = 1;
nodes = (
"1174 1289 OFFCURVE",
"883 1463 OFFCURVE",
"620 1463 CURVE SMOOTH",
"305 1463 OFFCURVE",
"95 1263 OFFCURVE",
"95 948 CURVE SMOOTH",
"95 699 OFFCURVE",
"253 497 OFFCURVE",
"530 497 CURVE SMOOTH",
"678 497 OFFCURVE",
"820 558 OFFCURVE",
"893 699 CURVE",
"894 677 OFFCURVE",
"893 653 OFFCURVE",
"891 624 CURVE SMOOTH",
"878 413 OFFCURVE",
"781 185 OFFCURVE",
"537 185 CURVE SMOOTH",
"469 185 OFFCURVE",
"348 210 OFFCURVE",
"289 272 CURVE",
"189 75 LINE",
"250 21 OFFCURVE",
"367 -30 OFFCURVE",
"544 -30 CURVE SMOOTH",
"933 -30 OFFCURVE",
"1174 261 OFFCURVE",
"1174 741 CURVE"
);
},
{
closed = 1;
nodes = (
"862 993 OFFCURVE",
"863 971 OFFCURVE",
"863 949 CURVE",
"855 817 OFFCURVE",
"719 705 OFFCURVE",
"590 705 CURVE SMOOTH",
"443 705 OFFCURVE",
"373 813 OFFCURVE",
"373 973 CURVE SMOOTH",
"373 1149 OFFCURVE",
"485 1252 OFFCURVE",
"614 1252 CURVE SMOOTH",
"740 1252 OFFCURVE",
"828 1146 OFFCURVE",
"855 1017 CURVE"
);
}
);
width = 1275;
}
);
userData = {
com.typemytype.robofont.mark = (
0.967,
0.6,
1,
1
);
};
},
{
glyphname = zero.dnom;
layers = (
{
layerId = "B61D43DE-5272-4FF4-A680-608B6BF5ED9E";
paths = (
{
closed = 1;
nodes = (
"413 183 OFFCURVE",
"352 413 OFFCURVE",
"352 713 CURVE SMOOTH",
"352 1028 OFFCURVE",
"416 1248 OFFCURVE",
"589 1248 CURVE SMOOTH",
"762 1248 OFFCURVE",
"826 1028 OFFCURVE",
"826 713 CURVE SMOOTH",
"826 413 OFFCURVE",
"765 183 OFFCURVE",
"589 183 CURVE SMOOTH"
);
},
{
closed = 1;
nodes = (
"970 -36 OFFCURVE",
"1123 272 OFFCURVE",
"1123 710 CURVE SMOOTH",
"1123 1220 OFFCURVE",
"927 1463 OFFCURVE",
"598 1463 CURVE SMOOTH",
"269 1463 OFFCURVE",
"73 1220 OFFCURVE",
"73 710 CURVE SMOOTH",
"73 272 OFFCURVE",
"226 -36 OFFCURVE",
"598 -36 CURVE SMOOTH"
);
}
);
width = 1192;
}
);
userData = {
com.typemytype.robofont.mark = (
0.967,
0.6,
1,
1
);
};
},
{
glyphname = one.dnom;
layers = (
{
layerId = "B61D43DE-5272-4FF4-A680-608B6BF5ED9E";
paths = (
{
closed = 1;
nodes = (
"458 0 LINE",
"458 1464 LINE",
"182 1320 LINE",
"182 0 LINE"
);
}
);
width = 641;
}
);
userData = {
com.typemytype.robofont.mark = (
0.967,
0.6,
1,
1
);
};
},
{
glyphname = two.dnom;
layers = (
{
layerId = "B61D43DE-5272-4FF4-A680-608B6BF5ED9E";
paths = (
{
closed = 1;
nodes = (
"1049 225 LINE",
"407 225 LINE",
"407 385 OFFCURVE",
"598 452 OFFCURVE",
"721 532 CURVE SMOOTH",
"902 650 OFFCURVE",
"1044 790 OFFCURVE",
"1044 1031 CURVE SMOOTH",
"1044 1212 OFFCURVE",
"938 1463 OFFCURVE",
"580 1463 CURVE SMOOTH",
"277 1463 OFFCURVE",
"113 1286 OFFCURVE",
"88 1073 CURVE",
"316 962 LINE",
"329 1091 OFFCURVE",
"391 1248 OFFCURVE",
"565 1248 CURVE SMOOTH",
"717 1248 OFFCURVE",
"765 1136 OFFCURVE",
"765 1021 CURVE SMOOTH",
"765 823 OFFCURVE",
"559 724 OFFCURVE",
"408 632 CURVE SMOOTH",
"155 480 OFFCURVE",
"115 317 OFFCURVE",
"115 131 CURVE SMOOTH",
"115 88 OFFCURVE",
"121 44 OFFCURVE",
"130 0 CURVE",
"1049 0 LINE"
);
}
);
width = 1149;
}
);
userData = {
com.typemytype.robofont.mark = (
0.967,
0.6,
1,
1
);
};
},
{
glyphname = three.dnom;
layers = (
{
layerId = "B61D43DE-5272-4FF4-A680-608B6BF5ED9E";
paths = (
{
closed = 1;
nodes = (
"197 7 OFFCURVE",
"346 -30 OFFCURVE",
"502 -30 CURVE SMOOTH",
"795 -30 OFFCURVE",
"1032 131 OFFCURVE",
"1032 401 CURVE SMOOTH",
"1032 574 OFFCURVE",
"934 694 OFFCURVE",
"760 738 CURVE",
"911 777 OFFCURVE",
"998 910 OFFCURVE",
"998 1065 CURVE SMOOTH",
"998 1298 OFFCURVE",
"817 1463 OFFCURVE",
"535 1463 CURVE SMOOTH",
"362 1463 OFFCURVE",
"183 1407 OFFCURVE",
"99 1334 CURVE",
"181 1135 LINE",
"253 1216 OFFCURVE",
"369 1248 OFFCURVE",
"468 1248 CURVE SMOOTH",
"616 1248 OFFCURVE",
"701 1160 OFFCURVE",
"701 1024 CURVE SMOOTH",
"701 899 OFFCURVE",
"611 837 OFFCURVE",
"442 837 CURVE",
"442 837 OFFCURVE",
"352 839 OFFCURVE",
"352 837 CURVE",
"352 635 LINE",
"351 637 OFFCURVE",
"437 639 OFFCURVE",
"439 639 CURVE SMOOTH",
"596 643 OFFCURVE",
"743 583 OFFCURVE",
"743 409 CURVE SMOOTH",
"743 278 OFFCURVE",
"659 196 OFFCURVE",
"475 196 CURVE SMOOTH",
"366 196 OFFCURVE",
"240 232 OFFCURVE",
"161 307 CURVE",
"81 88 LINE"
);
}
);
width = 1116;
}
);
userData = {
com.typemytype.robofont.mark = (
0.967,
0.6,
1,
1
);
};
},
{
glyphname = four.dnom;
layers = (
{
layerId = "B61D43DE-5272-4FF4-A680-608B6BF5ED9E";
paths = (
{
closed = 1;
nodes = (
"988 0 LINE",
"988 1080 LINE",
"738 1080 LINE",
"696 324 LINE",
"696 0 LINE"
);
},
{
closed = 1;
nodes = (
"1173 294 LINE",
"1173 489 LINE",
"378 489 LINE",
"621 1427 LINE",
"321 1427 LINE",
"46 294 LINE"
);
}
);
width = 1227;
}
);
userData = {
com.typemytype.robofont.mark = (
0.967,
0.6,
1,
1
);
};
},
{
glyphname = five.dnom;
layers = (
{
layerId = "B61D43DE-5272-4FF4-A680-608B6BF5ED9E";
paths = (
{
closed = 1;
nodes = (
"193 -2 OFFCURVE",
"346 -26 OFFCURVE",
"472 -26 CURVE SMOOTH",
"805 -26 OFFCURVE",
"1035 154 OFFCURVE",
"1035 473 CURVE SMOOTH",
"1035 713 OFFCURVE",
"880 930 OFFCURVE",
"591 930 CURVE SMOOTH",
"519 930 OFFCURVE",
"459 923 OFFCURVE",
"396 905 CURVE",
"423 1211 LINE",
"948 1211 LINE",
"948 1428 LINE",
"183 1428 LINE",
"156 663 LINE",
"199 690 OFFCURVE",
"331 729 OFFCURVE",
"447 729 CURVE SMOOTH",
"646 729 OFFCURVE",
"757 624 OFFCURVE",
"757 463 CURVE SMOOTH",
"757 220 OFFCURVE",
"567 181 OFFCURVE",
"437 181 CURVE SMOOTH",
"340 181 OFFCURVE",
"227 224 OFFCURVE",
"167 278 CURVE",
"93 65 LINE"
);
}
);
width = 1119;
}
);
userData = {
com.typemytype.robofont.mark = (
0.967,
0.6,
1,
1
);
};
},
{
glyphname = six.dnom;
layers = (
{
layerId = "B61D43DE-5272-4FF4-A680-608B6BF5ED9E";
paths = (
{
closed = 1;
nodes = (
"109 150 OFFCURVE",
"420 -30 OFFCURVE",
"663 -30 CURVE SMOOTH",
"978 -30 OFFCURVE",
"1188 170 OFFCURVE",
"1188 485 CURVE SMOOTH",
"1188 734 OFFCURVE",
"1030 936 OFFCURVE",
"753 936 CURVE SMOOTH",
"605 936 OFFCURVE",
"463 875 OFFCURVE",
"390 734 CURVE",
"389 756 OFFCURVE",
"389 780 OFFCURVE",
"392 809 CURVE SMOOTH",
"412 1020 OFFCURVE",
"503 1248 OFFCURVE",
"716 1248 CURVE SMOOTH",
"793 1248 OFFCURVE",
"919 1233 OFFCURVE",
"984 1161 CURVE",
"1084 1358 LINE",
"1017 1422 OFFCURVE",
"901 1463 OFFCURVE",
"709 1463 CURVE SMOOTH",
"348 1463 OFFCURVE",
"109 1168 OFFCURVE",
"109 688 CURVE SMOOTH"
);
},
{
closed = 1;
nodes = (
"421 440 OFFCURVE",
"420 462 OFFCURVE",
"420 484 CURVE",
"428 616 OFFCURVE",
"564 728 OFFCURVE",
"693 728 CURVE SMOOTH",
"840 728 OFFCURVE",
"910 620 OFFCURVE",
"910 460 CURVE SMOOTH",
"910 284 OFFCURVE",
"798 181 OFFCURVE",
"669 181 CURVE SMOOTH",
"543 181 OFFCURVE",
"465 287 OFFCURVE",
"428 416 CURVE SMOOTH"
);
}
);
width = 1275;
}
);
userData = {
com.typemytype.robofont.mark = (
0.967,
0.6,
1,
1
);
};
},
{
glyphname = seven.dnom;
layers = (
{
layerId = "B61D43DE-5272-4FF4-A680-608B6BF5ED9E";
paths = (
{
closed = 1;
nodes = (
"544 1 LINE",
"646 324 OFFCURVE",
"937 1154 OFFCURVE",
"993 1328 CURVE",
"931 1428 LINE",
"72 1428 LINE",
"72 1206 LINE",
"699 1206 LINE",
"247 1 LINE"
);
}
);
width = 1080;
}
);
userData = {
com.typemytype.robofont.mark = (
0.967,
0.6,
1,
1
);
};
},
{
glyphname = eight.dnom;
layers = (
{
layerId = "B61D43DE-5272-4FF4-A680-608B6BF5ED9E";
paths = (
{
closed = 1;
nodes = (
"425 1206 OFFCURVE",
"502 1274 OFFCURVE",
"639 1274 CURVE SMOOTH",
"777 1274 OFFCURVE",
"843 1206 OFFCURVE",
"843 1073 CURVE SMOOTH",
"843 925 OFFCURVE",
"746 843 OFFCURVE",
"639 843 CURVE SMOOTH",
"533 843 OFFCURVE",
"425 925 OFFCURVE",
"425 1074 CURVE SMOOTH"
);
},
{
closed = 1;
nodes = (
"157 820 OFFCURVE",
"356 694 OFFCURVE",
"637 694 CURVE SMOOTH",
"896 694 OFFCURVE",
"1110 820 OFFCURVE",
"1110 1091 CURVE SMOOTH",
"1110 1361 OFFCURVE",
"872 1463 OFFCURVE",
"636 1463 CURVE SMOOTH",
"400 1463 OFFCURVE",
"157 1361 OFFCURVE",
"157 1091 CURVE SMOOTH"
);
},
{
closed = 1;
nodes = (
"731 634 OFFCURVE",
"880 579 OFFCURVE",
"880 395 CURVE SMOOTH",
"880 243 OFFCURVE",
"790 169 OFFCURVE",
"635 169 CURVE SMOOTH",
"478 169 OFFCURVE",
"388 243 OFFCURVE",
"388 395 CURVE SMOOTH",
"388 579 OFFCURVE",
"537 634 OFFCURVE",
"634 634 CURVE SMOOTH"
);
},
{
closed = 1;
nodes = (
"891 -36 OFFCURVE",
"1171 82 OFFCURVE",
"1171 391 CURVE SMOOTH",
"1171 658 OFFCURVE",
"930 786 OFFCURVE",
"634 786 CURVE SMOOTH",
"338 786 OFFCURVE",
"97 658 OFFCURVE",
"97 391 CURVE SMOOTH",
"97 82 OFFCURVE",
"377 -36 OFFCURVE",
"635 -36 CURVE SMOOTH"
);
}
);
width = 1268;
}
);
userData = {
com.typemytype.robofont.mark = (
0.967,
0.6,
1,
1
);
};
},
{
glyphname = nine.dnom;
layers = (
{
layerId = "B61D43DE-5272-4FF4-A680-608B6BF5ED9E";
paths = (
{
closed = 1;
nodes = (
"1174 1289 OFFCURVE",
"883 1463 OFFCURVE",
"620 1463 CURVE SMOOTH",
"305 1463 OFFCURVE",
"95 1263 OFFCURVE",
"95 948 CURVE SMOOTH",
"95 699 OFFCURVE",
"253 497 OFFCURVE",
"530 497 CURVE SMOOTH",
"678 497 OFFCURVE",
"820 558 OFFCURVE",
"893 699 CURVE",
"894 677 OFFCURVE",
"893 653 OFFCURVE",
"891 624 CURVE SMOOTH",
"878 413 OFFCURVE",
"781 185 OFFCURVE",
"537 185 CURVE SMOOTH",
"469 185 OFFCURVE",
"348 210 OFFCURVE",
"289 272 CURVE",
"189 75 LINE",
"250 21 OFFCURVE",
"367 -30 OFFCURVE",
"544 -30 CURVE SMOOTH",
"933 -30 OFFCURVE",
"1174 261 OFFCURVE",
"1174 741 CURVE"
);
},
{
closed = 1;
nodes = (
"862 993 OFFCURVE",
"863 971 OFFCURVE",
"863 949 CURVE",
"855 817 OFFCURVE",
"719 705 OFFCURVE",
"590 705 CURVE SMOOTH",
"443 705 OFFCURVE",
"373 813 OFFCURVE",
"373 973 CURVE SMOOTH",
"373 1149 OFFCURVE",
"485 1252 OFFCURVE",
"614 1252 CURVE SMOOTH",
"740 1252 OFFCURVE",
"828 1146 OFFCURVE",
"855 1017 CURVE"
);
}
);
width = 1275;
}
);
userData = {
com.typemytype.robofont.mark = (
0.967,
0.6,
1,
1
);
};
},
{
glyphname = zero.numr;
layers = (
{
layerId = "B61D43DE-5272-4FF4-A680-608B6BF5ED9E";
paths = (
{
closed = 1;
nodes = (
"413 183 OFFCURVE",
"352 413 OFFCURVE",
"352 713 CURVE SMOOTH",
"352 1028 OFFCURVE",
"416 1248 OFFCURVE",
"589 1248 CURVE SMOOTH",
"762 1248 OFFCURVE",
"826 1028 OFFCURVE",
"826 713 CURVE SMOOTH",
"826 413 OFFCURVE",
"765 183 OFFCURVE",
"589 183 CURVE SMOOTH"
);
},
{
closed = 1;
nodes = (
"970 -36 OFFCURVE",
"1123 272 OFFCURVE",
"1123 710 CURVE SMOOTH",
"1123 1220 OFFCURVE",
"927 1463 OFFCURVE",
"598 1463 CURVE SMOOTH",
"269 1463 OFFCURVE",
"73 1220 OFFCURVE",
"73 710 CURVE SMOOTH",
"73 272 OFFCURVE",
"226 -36 OFFCURVE",
"598 -36 CURVE SMOOTH"
);
}
);
width = 1192;
}
);
userData = {
com.typemytype.robofont.mark = (
0.967,
0.6,
1,
1
);
};
},
{
glyphname = one.numr;
layers = (
{
layerId = "B61D43DE-5272-4FF4-A680-608B6BF5ED9E";
paths = (
{
closed = 1;
nodes = (
"458 0 LINE",
"458 1464 LINE",
"182 1320 LINE",
"182 0 LINE"
);
}
);
width = 641;
}
);
userData = {
com.typemytype.robofont.mark = (
0.967,
0.6,
1,
1
);
};
},
{
glyphname = two.numr;
layers = (
{
layerId = "B61D43DE-5272-4FF4-A680-608B6BF5ED9E";
paths = (
{
closed = 1;
nodes = (
"1049 225 LINE",
"407 225 LINE",
"407 385 OFFCURVE",
"598 452 OFFCURVE",
"721 532 CURVE SMOOTH",
"902 650 OFFCURVE",
"1044 790 OFFCURVE",
"1044 1031 CURVE SMOOTH",
"1044 1212 OFFCURVE",
"938 1463 OFFCURVE",
"580 1463 CURVE SMOOTH",
"277 1463 OFFCURVE",
"113 1286 OFFCURVE",
"88 1073 CURVE",
"316 962 LINE",
"329 1091 OFFCURVE",
"391 1248 OFFCURVE",
"565 1248 CURVE SMOOTH",
"717 1248 OFFCURVE",
"765 1136 OFFCURVE",
"765 1021 CURVE SMOOTH",
"765 823 OFFCURVE",
"559 724 OFFCURVE",
"408 632 CURVE SMOOTH",
"155 480 OFFCURVE",
"115 317 OFFCURVE",
"115 131 CURVE SMOOTH",
"115 88 OFFCURVE",
"121 44 OFFCURVE",
"130 0 CURVE",
"1049 0 LINE"
);
}
);
width = 1149;
}
);
userData = {
com.typemytype.robofont.mark = (
0.967,
0.6,
1,
1
);
};
},
{
glyphname = three.numr;
layers = (
{
layerId = "B61D43DE-5272-4FF4-A680-608B6BF5ED9E";
paths = (
{
closed = 1;
nodes = (
"197 7 OFFCURVE",
"346 -30 OFFCURVE",
"502 -30 CURVE SMOOTH",
"795 -30 OFFCURVE",
"1032 131 OFFCURVE",
"1032 401 CURVE SMOOTH",
"1032 574 OFFCURVE",
"934 694 OFFCURVE",
"760 738 CURVE",
"911 777 OFFCURVE",
"998 910 OFFCURVE",
"998 1065 CURVE SMOOTH",
"998 1298 OFFCURVE",
"817 1463 OFFCURVE",
"535 1463 CURVE SMOOTH",
"362 1463 OFFCURVE",
"183 1407 OFFCURVE",
"99 1334 CURVE",
"181 1135 LINE",
"253 1216 OFFCURVE",
"369 1248 OFFCURVE",
"468 1248 CURVE SMOOTH",
"616 1248 OFFCURVE",
"701 1160 OFFCURVE",
"701 1024 CURVE SMOOTH",
"701 899 OFFCURVE",
"611 837 OFFCURVE",
"442 837 CURVE",
"442 837 OFFCURVE",
"352 839 OFFCURVE",
"352 837 CURVE",
"352 635 LINE",
"351 637 OFFCURVE",
"437 639 OFFCURVE",
"439 639 CURVE SMOOTH",
"596 643 OFFCURVE",
"743 583 OFFCURVE",
"743 409 CURVE SMOOTH",
"743 278 OFFCURVE",
"659 196 OFFCURVE",
"475 196 CURVE SMOOTH",
"366 196 OFFCURVE",
"240 232 OFFCURVE",
"161 307 CURVE",
"81 88 LINE"
);
}
);
width = 1116;
}
);
userData = {
com.typemytype.robofont.mark = (
0.967,
0.6,
1,
1
);
};
},
{
glyphname = four.numr;
layers = (
{
layerId = "B61D43DE-5272-4FF4-A680-608B6BF5ED9E";
paths = (
{
closed = 1;
nodes = (
"988 0 LINE",
"988 1080 LINE",
"738 1080 LINE",
"696 324 LINE",
"696 0 LINE"
);
},
{
closed = 1;
nodes = (
"1173 294 LINE",
"1173 489 LINE",
"378 489 LINE",
"621 1427 LINE",
"321 1427 LINE",
"46 294 LINE"
);
}
);
width = 1227;
}
);
userData = {
com.typemytype.robofont.mark = (
0.967,
0.6,
1,
1
);
};
},
{
glyphname = five.numr;
layers = (
{
layerId = "B61D43DE-5272-4FF4-A680-608B6BF5ED9E";
paths = (
{
closed = 1;
nodes = (
"193 -2 OFFCURVE",
"346 -26 OFFCURVE",
"472 -26 CURVE SMOOTH",
"805 -26 OFFCURVE",
"1035 154 OFFCURVE",
"1035 473 CURVE SMOOTH",
"1035 713 OFFCURVE",
"880 930 OFFCURVE",
"591 930 CURVE SMOOTH",
"519 930 OFFCURVE",
"459 923 OFFCURVE",
"396 905 CURVE",
"423 1211 LINE",
"948 1211 LINE",
"948 1428 LINE",
"183 1428 LINE",
"156 663 LINE",
"199 690 OFFCURVE",
"331 729 OFFCURVE",
"447 729 CURVE SMOOTH",
"646 729 OFFCURVE",
"757 624 OFFCURVE",
"757 463 CURVE SMOOTH",
"757 220 OFFCURVE",
"567 181 OFFCURVE",
"437 181 CURVE SMOOTH",
"340 181 OFFCURVE",
"227 224 OFFCURVE",
"167 278 CURVE",
"93 65 LINE"
);
}
);
width = 1119;
}
);
userData = {
com.typemytype.robofont.mark = (
0.967,
0.6,
1,
1
);
};
},
{
glyphname = six.numr;
layers = (
{
layerId = "B61D43DE-5272-4FF4-A680-608B6BF5ED9E";
paths = (
{
closed = 1;
nodes = (
"109 150 OFFCURVE",
"420 -30 OFFCURVE",
"663 -30 CURVE SMOOTH",
"978 -30 OFFCURVE",
"1188 170 OFFCURVE",
"1188 485 CURVE SMOOTH",
"1188 734 OFFCURVE",
"1030 936 OFFCURVE",
"753 936 CURVE SMOOTH",
"605 936 OFFCURVE",
"463 875 OFFCURVE",
"390 734 CURVE",
"389 756 OFFCURVE",
"389 780 OFFCURVE",
"392 809 CURVE SMOOTH",
"412 1020 OFFCURVE",
"503 1248 OFFCURVE",
"716 1248 CURVE SMOOTH",
"793 1248 OFFCURVE",
"919 1233 OFFCURVE",
"984 1161 CURVE",
"1084 1358 LINE",
"1017 1422 OFFCURVE",
"901 1463 OFFCURVE",
"709 1463 CURVE SMOOTH",
"348 1463 OFFCURVE",
"109 1168 OFFCURVE",
"109 688 CURVE SMOOTH"
);
},
{
closed = 1;
nodes = (
"421 440 OFFCURVE",
"420 462 OFFCURVE",
"420 484 CURVE",
"428 616 OFFCURVE",
"564 728 OFFCURVE",
"693 728 CURVE SMOOTH",
"840 728 OFFCURVE",
"910 620 OFFCURVE",
"910 460 CURVE SMOOTH",
"910 284 OFFCURVE",
"798 181 OFFCURVE",
"669 181 CURVE SMOOTH",
"543 181 OFFCURVE",
"465 287 OFFCURVE",
"428 416 CURVE SMOOTH"
);
}
);
width = 1275;
}
);
userData = {
com.typemytype.robofont.mark = (
0.967,
0.6,
1,
1
);
};
},
{
glyphname = seven.numr;
layers = (
{
layerId = "B61D43DE-5272-4FF4-A680-608B6BF5ED9E";
paths = (
{
closed = 1;
nodes = (
"544 1 LINE",
"646 324 OFFCURVE",
"937 1154 OFFCURVE",
"993 1328 CURVE",
"931 1428 LINE",
"72 1428 LINE",
"72 1206 LINE",
"699 1206 LINE",
"247 1 LINE"
);
}
);
width = 1080;
}
);
userData = {
com.typemytype.robofont.mark = (
0.967,
0.6,
1,
1
);
};
},
{
glyphname = eight.numr;
layers = (
{
layerId = "B61D43DE-5272-4FF4-A680-608B6BF5ED9E";
paths = (
{
closed = 1;
nodes = (
"425 1206 OFFCURVE",
"502 1274 OFFCURVE",
"639 1274 CURVE SMOOTH",
"777 1274 OFFCURVE",
"843 1206 OFFCURVE",
"843 1073 CURVE SMOOTH",
"843 925 OFFCURVE",
"746 843 OFFCURVE",
"639 843 CURVE SMOOTH",
"533 843 OFFCURVE",
"425 925 OFFCURVE",
"425 1074 CURVE SMOOTH"
);
},
{
closed = 1;
nodes = (
"157 820 OFFCURVE",
"356 694 OFFCURVE",
"637 694 CURVE SMOOTH",
"896 694 OFFCURVE",
"1110 820 OFFCURVE",
"1110 1091 CURVE SMOOTH",
"1110 1361 OFFCURVE",
"872 1463 OFFCURVE",
"636 1463 CURVE SMOOTH",
"400 1463 OFFCURVE",
"157 1361 OFFCURVE",
"157 1091 CURVE SMOOTH"
);
},
{
closed = 1;
nodes = (
"731 634 OFFCURVE",
"880 579 OFFCURVE",
"880 395 CURVE SMOOTH",
"880 243 OFFCURVE",
"790 169 OFFCURVE",
"635 169 CURVE SMOOTH",
"478 169 OFFCURVE",
"388 243 OFFCURVE",
"388 395 CURVE SMOOTH",
"388 579 OFFCURVE",
"537 634 OFFCURVE",
"634 634 CURVE SMOOTH"
);
},
{
closed = 1;
nodes = (
"891 -36 OFFCURVE",
"1171 82 OFFCURVE",
"1171 391 CURVE SMOOTH",
"1171 658 OFFCURVE",
"930 786 OFFCURVE",
"634 786 CURVE SMOOTH",
"338 786 OFFCURVE",
"97 658 OFFCURVE",
"97 391 CURVE SMOOTH",
"97 82 OFFCURVE",
"377 -36 OFFCURVE",
"635 -36 CURVE SMOOTH"
);
}
);
width = 1268;
}
);
userData = {
com.typemytype.robofont.mark = (
0.967,
0.6,
1,
1
);
};
},
{
glyphname = nine.numr;
layers = (
{
layerId = "B61D43DE-5272-4FF4-A680-608B6BF5ED9E";
paths = (
{
closed = 1;
nodes = (
"1174 1289 OFFCURVE",
"883 1463 OFFCURVE",
"620 1463 CURVE SMOOTH",
"305 1463 OFFCURVE",
"95 1263 OFFCURVE",
"95 948 CURVE SMOOTH",
"95 699 OFFCURVE",
"253 497 OFFCURVE",
"530 497 CURVE SMOOTH",
"678 497 OFFCURVE",
"820 558 OFFCURVE",
"893 699 CURVE",
"894 677 OFFCURVE",
"893 653 OFFCURVE",
"891 624 CURVE SMOOTH",
"878 413 OFFCURVE",
"781 185 OFFCURVE",
"537 185 CURVE SMOOTH",
"469 185 OFFCURVE",
"348 210 OFFCURVE",
"289 272 CURVE",
"189 75 LINE",
"250 21 OFFCURVE",
"367 -30 OFFCURVE",
"544 -30 CURVE SMOOTH",
"933 -30 OFFCURVE",
"1174 261 OFFCURVE",
"1174 741 CURVE"
);
},
{
closed = 1;
nodes = (
"862 993 OFFCURVE",
"863 971 OFFCURVE",
"863 949 CURVE",
"855 817 OFFCURVE",
"719 705 OFFCURVE",
"590 705 CURVE SMOOTH",
"443 705 OFFCURVE",
"373 813 OFFCURVE",
"373 973 CURVE SMOOTH",
"373 1149 OFFCURVE",
"485 1252 OFFCURVE",
"614 1252 CURVE SMOOTH",
"740 1252 OFFCURVE",
"828 1146 OFFCURVE",
"855 1017 CURVE"
);
}
);
width = 1275;
}
);
userData = {
com.typemytype.robofont.mark = (
0.967,
0.6,
1,
1
);
};
},
{
glyphname = zerosuperior;
lastChange = "2018-05-15 03:19:56 +0000";
layers = (
{
layerId = "B61D43DE-5272-4FF4-A680-608B6BF5ED9E";
paths = (
{
closed = 1;
nodes = (
"365 1085 OFFCURVE",
"315 1231 OFFCURVE",
"315 1422 CURVE SMOOTH",
"315 1622 OFFCURVE",
"368 1762 OFFCURVE",
"512 1762 CURVE SMOOTH",
"655 1762 OFFCURVE",
"708 1622 OFFCURVE",
"708 1422 CURVE SMOOTH",
"708 1231 OFFCURVE",
"658 1085 OFFCURVE",
"512 1085 CURVE SMOOTH"
);
},
{
closed = 1;
nodes = (
"828 946 OFFCURVE",
"955 1142 OFFCURVE",
"955 1420 CURVE SMOOTH",
"955 1745 OFFCURVE",
"792 1899 OFFCURVE",
"519 1899 CURVE SMOOTH",
"246 1899 OFFCURVE",
"83 1745 OFFCURVE",
"83 1420 CURVE SMOOTH",
"83 1142 OFFCURVE",
"210 946 OFFCURVE",
"519 946 CURVE SMOOTH"
);
}
);
width = 1012;
}
);
unicode = 2070;
},
{
glyphname = onesuperior;
lastChange = "2018-05-15 03:19:52 +0000";
layers = (
{
layerId = "B61D43DE-5272-4FF4-A680-608B6BF5ED9E";
paths = (
{
closed = 1;
nodes = (
"461 865 LINE",
"461 1898 LINE",
"214 1793 LINE",
"214 865 LINE"
);
}
);
width = 676;
}
);
unicode = 00B9;
},
{
glyphname = twosuperior;
lastChange = "2018-05-15 03:19:49 +0000";
layers = (
{
layerId = "B61D43DE-5272-4FF4-A680-608B6BF5ED9E";
paths = (
{
closed = 1;
nodes = (
"876 865 LINE",
"876 1070 LINE",
"246 1070 LINE",
"351 979 LINE",
"351 1041 OFFCURVE",
"325 1111 OFFCURVE",
"480 1182 CURVE SMOOTH",
"715 1289 OFFCURVE",
"859 1353 OFFCURVE",
"859 1559 CURVE SMOOTH",
"859 1805 OFFCURVE",
"679 1898 OFFCURVE",
"461 1898 CURVE SMOOTH",
"207 1898 OFFCURVE",
"75 1729 OFFCURVE",
"57 1615 CURVE",
"274 1535 LINE",
"280 1667 OFFCURVE",
"363 1710 OFFCURVE",
"449 1710 CURVE SMOOTH",
"522 1710 OFFCURVE",
"609 1679 OFFCURVE",
"609 1571 CURVE SMOOTH",
"609 1488 OFFCURVE",
"525 1413 OFFCURVE",
"357 1341 CURVE SMOOTH",
"98 1228 OFFCURVE",
"55 1064 OFFCURVE",
"98 865 CURVE"
);
}
);
width = 1031;
}
);
unicode = 00B2;
},
{
glyphname = threesuperior;
lastChange = "2018-05-15 03:19:47 +0000";
layers = (
{
layerId = "B61D43DE-5272-4FF4-A680-608B6BF5ED9E";
paths = (
{
closed = 1;
nodes = (
"176 883 OFFCURVE",
"302 857 OFFCURVE",
"440 857 CURVE SMOOTH",
"692 857 OFFCURVE",
"861 954 OFFCURVE",
"861 1171 CURVE SMOOTH",
"861 1284 OFFCURVE",
"799 1375 OFFCURVE",
"674 1401 CURVE",
"779 1440 OFFCURVE",
"824 1515 OFFCURVE",
"824 1617 CURVE SMOOTH",
"824 1796 OFFCURVE",
"704 1898 OFFCURVE",
"450 1898 CURVE SMOOTH",
"300 1898 OFFCURVE",
"148 1859 OFFCURVE",
"71 1806 CURVE",
"149 1630 LINE",
"210 1681 OFFCURVE",
"305 1715 OFFCURVE",
"381 1715 CURVE SMOOTH",
"466 1715 OFFCURVE",
"588 1695 OFFCURVE",
"588 1599 CURVE SMOOTH",
"588 1499 OFFCURVE",
"529 1487 OFFCURVE",
"419 1478 CURVE SMOOTH",
"386 1476 OFFCURVE",
"323 1476 OFFCURVE",
"288 1477 CURVE",
"288 1311 LINE",
"328 1313 OFFCURVE",
"389 1315 OFFCURVE",
"427 1315 CURVE SMOOTH",
"528 1314 OFFCURVE",
"593 1270 OFFCURVE",
"593 1185 CURVE SMOOTH",
"593 1092 OFFCURVE",
"526 1050 OFFCURVE",
"374 1050 CURVE SMOOTH",
"300 1050 OFFCURVE",
"194 1084 OFFCURVE",
"128 1138 CURVE",
"71 944 LINE"
);
}
);
width = 962;
}
);
unicode = 00B3;
},
{
glyphname = foursuperior;
lastChange = "2018-05-15 03:19:44 +0000";
layers = (
{
layerId = "B61D43DE-5272-4FF4-A680-608B6BF5ED9E";
paths = (
{
closed = 1;
nodes = (
"757 947 LINE",
"757 1731 LINE",
"565 1731 LINE",
"533 1174 LINE",
"533 947 LINE"
);
},
{
closed = 1;
nodes = (
"899 1153 LINE",
"899 1289 LINE",
"289 1289 LINE",
"478 1946 LINE",
"247 1946 LINE",
"35 1153 LINE"
);
}
);
width = 941;
}
);
unicode = 2074;
},
{
glyphname = fivesuperior;
lastChange = "2018-05-15 03:19:41 +0000";
layers = (
{
layerId = "B61D43DE-5272-4FF4-A680-608B6BF5ED9E";
paths = (
{
closed = 1;
nodes = (
"148 868 OFFCURVE",
"265 851 OFFCURVE",
"361 851 CURVE SMOOTH",
"616 851 OFFCURVE",
"793 977 OFFCURVE",
"793 1200 CURVE SMOOTH",
"793 1368 OFFCURVE",
"674 1520 OFFCURVE",
"455 1520 CURVE SMOOTH",
"397 1520 OFFCURVE",
"351 1515 OFFCURVE",
"303 1502 CURVE",
"324 1717 LINE",
"726 1717 LINE",
"726 1869 LINE",
"140 1869 LINE",
"120 1333 LINE",
"152 1352 OFFCURVE",
"253 1379 OFFCURVE",
"341 1379 CURVE SMOOTH",
"493 1379 OFFCURVE",
"580 1306 OFFCURVE",
"580 1193 CURVE SMOOTH",
"580 1023 OFFCURVE",
"435 996 OFFCURVE",
"334 996 CURVE SMOOTH",
"260 996 OFFCURVE",
"173 1026 OFFCURVE",
"127 1064 CURVE",
"71 914 LINE"
);
}
);
width = 857;
}
);
unicode = 2075;
},
{
glyphname = sixsuperior;
lastChange = "2018-05-15 03:19:38 +0000";
layers = (
{
layerId = "B61D43DE-5272-4FF4-A680-608B6BF5ED9E";
paths = (
{
closed = 1;
nodes = (
"83 980 OFFCURVE",
"322 854 OFFCURVE",
"508 854 CURVE SMOOTH",
"749 854 OFFCURVE",
"909 994 OFFCURVE",
"909 1214 CURVE SMOOTH",
"909 1389 OFFCURVE",
"789 1530 OFFCURVE",
"577 1530 CURVE SMOOTH",
"463 1530 OFFCURVE",
"355 1487 OFFCURVE",
"299 1389 CURVE",
"297 1404 OFFCURVE",
"297 1421 OFFCURVE",
"300 1441 CURVE SMOOTH",
"315 1589 OFFCURVE",
"385 1749 OFFCURVE",
"549 1749 CURVE SMOOTH",
"608 1749 OFFCURVE",
"703 1738 OFFCURVE",
"752 1688 CURVE",
"829 1826 LINE",
"778 1870 OFFCURVE",
"690 1899 OFFCURVE",
"542 1899 CURVE SMOOTH",
"266 1899 OFFCURVE",
"83 1693 OFFCURVE",
"83 1357 CURVE SMOOTH"
);
},
{
closed = 1;
nodes = (
"323 1183 OFFCURVE",
"322 1198 OFFCURVE",
"322 1214 CURVE",
"328 1306 OFFCURVE",
"433 1385 OFFCURVE",
"531 1385 CURVE SMOOTH",
"643 1385 OFFCURVE",
"697 1309 OFFCURVE",
"697 1197 CURVE SMOOTH",
"697 1074 OFFCURVE",
"611 1002 OFFCURVE",
"511 1002 CURVE SMOOTH",
"416 1002 OFFCURVE",
"356 1076 OFFCURVE",
"328 1166 CURVE SMOOTH"
);
}
);
width = 975;
}
);
unicode = 2076;
},
{
glyphname = sevensuperior;
lastChange = "2018-05-15 03:19:35 +0000";
layers = (
{
layerId = "B61D43DE-5272-4FF4-A680-608B6BF5ED9E";
paths = (
{
closed = 1;
nodes = (
"416 873 LINE",
"493 1099 OFFCURVE",
"716 1680 OFFCURVE",
"760 1802 CURVE",
"713 1872 LINE",
"54 1872 LINE",
"54 1716 LINE",
"534 1716 LINE",
"189 873 LINE"
);
}
);
width = 826;
}
);
unicode = 2077;
},
{
glyphname = eightsuperior;
lastChange = "2018-05-15 03:19:33 +0000";
layers = (
{
layerId = "B61D43DE-5272-4FF4-A680-608B6BF5ED9E";
paths = (
{
closed = 1;
nodes = (
"325 1719 OFFCURVE",
"384 1767 OFFCURVE",
"488 1767 CURVE SMOOTH",
"594 1767 OFFCURVE",
"646 1719 OFFCURVE",
"646 1626 CURVE SMOOTH",
"646 1522 OFFCURVE",
"571 1465 OFFCURVE",
"488 1465 CURVE SMOOTH",
"409 1465 OFFCURVE",
"325 1522 OFFCURVE",
"325 1627 CURVE SMOOTH"
);
},
{
closed = 1;
nodes = (
"120 1449 OFFCURVE",
"273 1361 OFFCURVE",
"487 1361 CURVE SMOOTH",
"687 1361 OFFCURVE",
"850 1449 OFFCURVE",
"850 1639 CURVE SMOOTH",
"850 1828 OFFCURVE",
"667 1899 OFFCURVE",
"487 1899 CURVE SMOOTH",
"307 1899 OFFCURVE",
"120 1828 OFFCURVE",
"120 1639 CURVE SMOOTH"
);
},
{
closed = 1;
nodes = (
"560 1319 OFFCURVE",
"674 1280 OFFCURVE",
"674 1151 CURVE SMOOTH",
"674 1045 OFFCURVE",
"605 993 OFFCURVE",
"486 993 CURVE SMOOTH",
"366 993 OFFCURVE",
"297 1045 OFFCURVE",
"297 1151 CURVE SMOOTH",
"297 1280 OFFCURVE",
"412 1319 OFFCURVE",
"485 1319 CURVE SMOOTH"
);
},
{
closed = 1;
nodes = (
"682 850 OFFCURVE",
"898 932 OFFCURVE",
"898 1149 CURVE SMOOTH",
"898 1336 OFFCURVE",
"712 1425 OFFCURVE",
"485 1425 CURVE SMOOTH",
"259 1425 OFFCURVE",
"73 1336 OFFCURVE",
"73 1149 CURVE SMOOTH",
"73 932 OFFCURVE",
"288 850 OFFCURVE",
"486 850 CURVE SMOOTH"
);
}
);
width = 971;
}
);
unicode = 2078;
},
{
glyphname = ninesuperior;
lastChange = "2018-05-15 03:19:29 +0000";
layers = (
{
layerId = "B61D43DE-5272-4FF4-A680-608B6BF5ED9E";
paths = (
{
closed = 1;
nodes = (
"899 1776 OFFCURVE",
"676 1898 OFFCURVE",
"477 1898 CURVE SMOOTH",
"234 1898 OFFCURVE",
"72 1758 OFFCURVE",
"72 1538 CURVE SMOOTH",
"72 1363 OFFCURVE",
"194 1222 OFFCURVE",
"406 1222 CURVE SMOOTH",
"518 1222 OFFCURVE",
"628 1265 OFFCURVE",
"685 1363 CURVE",
"685 1348 OFFCURVE",
"685 1331 OFFCURVE",
"682 1311 CURVE SMOOTH",
"672 1163 OFFCURVE",
"598 1003 OFFCURVE",
"412 1003 CURVE SMOOTH",
"358 1003 OFFCURVE",
"266 1021 OFFCURVE",
"222 1064 CURVE",
"145 926 LINE",
"191 889 OFFCURVE",
"281 853 OFFCURVE",
"416 853 CURVE SMOOTH",
"714 853 OFFCURVE",
"899 1057 OFFCURVE",
"899 1393 CURVE"
);
},
{
closed = 1;
nodes = (
"659 1569 OFFCURVE",
"661 1554 OFFCURVE",
"661 1538 CURVE",
"655 1446 OFFCURVE",
"551 1367 OFFCURVE",
"454 1367 CURVE SMOOTH",
"339 1367 OFFCURVE",
"286 1443 OFFCURVE",
"286 1555 CURVE SMOOTH",
"286 1678 OFFCURVE",
"372 1750 OFFCURVE",
"468 1750 CURVE SMOOTH",
"566 1750 OFFCURVE",
"634 1676 OFFCURVE",
"655 1586 CURVE"
);
}
);
width = 975;
}
);
unicode = 2079;
},
{
glyphname = fraction;
layers = (
{
layerId = "B61D43DE-5272-4FF4-A680-608B6BF5ED9E";
paths = (
{
closed = 1;
nodes = (
"39 -2 OFFCURVE",
"258 0 OFFCURVE",
"265 0 CURVE",
"1025 1562 LINE",
"789 1562 LINE",
"30 -2 LINE"
);
}
);
width = 1055;
}
);
unicode = 2044;
userData = {
com.typemytype.robofont.mark = (
0.656,
1,
0.6,
1
);
};
},
{
glyphname = onehalf;
layers = (
{
layerId = "B61D43DE-5272-4FF4-A680-608B6BF5ED9E";
paths = (
{
closed = 1;
nodes = (
"451 0 LINE",
"1240 1608 LINE",
"1004 1608 LINE",
"216 0 LINE"
);
},
{
closed = 1;
nodes = (
"1803 0 LINE",
"1803 205 LINE",
"1173 205 LINE",
"1278 114 LINE",
"1278 176 OFFCURVE",
"1252 246 OFFCURVE",
"1407 317 CURVE SMOOTH",
"1642 424 OFFCURVE",
"1786 488 OFFCURVE",
"1786 694 CURVE SMOOTH",
"1786 940 OFFCURVE",
"1606 1033 OFFCURVE",
"1388 1033 CURVE SMOOTH",
"1134 1033 OFFCURVE",
"1002 864 OFFCURVE",
"984 750 CURVE",
"1201 670 LINE",
"1207 802 OFFCURVE",
"1290 845 OFFCURVE",
"1376 845 CURVE SMOOTH",
"1449 845 OFFCURVE",
"1536 814 OFFCURVE",
"1536 706 CURVE SMOOTH",
"1536 623 OFFCURVE",
"1452 548 OFFCURVE",
"1284 476 CURVE SMOOTH",
"1025 363 OFFCURVE",
"982 199 OFFCURVE",
"1025 0 CURVE"
);
},
{
closed = 1;
nodes = (
"447 865 LINE",
"447 1898 LINE",
"200 1793 LINE",
"200 865 LINE"
);
}
);
width = 1973;
}
);
unicode = 00BD;
userData = {
com.typemytype.robofont.mark = (
0.656,
1,
0.6,
1
);
};
},
{
glyphname = onequarter;
layers = (
{
layerId = "B61D43DE-5272-4FF4-A680-608B6BF5ED9E";
paths = (
{
closed = 1;
nodes = (
"1675 0 LINE",
"1675 778 LINE",
"1489 778 LINE",
"1452 216 LINE",
"1452 0 LINE"
);
},
{
closed = 1;
nodes = (
"1833 223 LINE",
"1833 369 LINE",
"1211 369 LINE",
"1376 1021 LINE",
"1151 1021 LINE",
"912 223 LINE"
);
},
{
closed = 1;
nodes = (
"451 0 LINE",
"1240 1608 LINE",
"1004 1608 LINE",
"216 0 LINE"
);
},
{
closed = 1;
nodes = (
"447 865 LINE",
"447 1898 LINE",
"200 1793 LINE",
"200 865 LINE"
);
}
);
width = 1973;
}
);
unicode = 00BC;
userData = {
com.typemytype.robofont.mark = (
0.656,
1,
0.6,
1
);
};
},
{
glyphname = threequarters;
layers = (
{
layerId = "B61D43DE-5272-4FF4-A680-608B6BF5ED9E";
paths = (
{
closed = 1;
nodes = (
"1993 0 LINE",
"1993 778 LINE",
"1807 778 LINE",
"1770 216 LINE",
"1770 0 LINE"
);
},
{
closed = 1;
nodes = (
"2151 223 LINE",
"2151 369 LINE",
"1529 369 LINE",
"1694 1021 LINE",
"1469 1021 LINE",
"1230 223 LINE"
);
},
{
closed = 1;
nodes = (
"769 0 LINE",
"1558 1608 LINE",
"1322 1608 LINE",
"534 0 LINE"
);
},
{
closed = 1;
nodes = (
"275 900 OFFCURVE",
"401 874 OFFCURVE",
"539 874 CURVE SMOOTH",
"791 874 OFFCURVE",
"960 971 OFFCURVE",
"960 1188 CURVE SMOOTH",
"960 1301 OFFCURVE",
"898 1392 OFFCURVE",
"773 1418 CURVE",
"878 1457 OFFCURVE",
"923 1532 OFFCURVE",
"923 1634 CURVE SMOOTH",
"923 1813 OFFCURVE",
"803 1915 OFFCURVE",
"549 1915 CURVE SMOOTH",
"399 1915 OFFCURVE",
"247 1876 OFFCURVE",
"170 1823 CURVE",
"248 1647 LINE",
"309 1698 OFFCURVE",
"404 1732 OFFCURVE",
"480 1732 CURVE SMOOTH",
"565 1732 OFFCURVE",
"687 1712 OFFCURVE",
"687 1616 CURVE SMOOTH",
"687 1516 OFFCURVE",
"628 1504 OFFCURVE",
"518 1495 CURVE SMOOTH",
"485 1493 OFFCURVE",
"422 1493 OFFCURVE",
"387 1494 CURVE",
"387 1328 LINE",
"427 1330 OFFCURVE",
"488 1332 OFFCURVE",
"526 1332 CURVE SMOOTH",
"627 1331 OFFCURVE",
"692 1287 OFFCURVE",
"692 1202 CURVE SMOOTH",
"692 1109 OFFCURVE",
"625 1067 OFFCURVE",
"473 1067 CURVE SMOOTH",
"399 1067 OFFCURVE",
"293 1101 OFFCURVE",
"227 1155 CURVE",
"170 961 LINE"
);
}
);
width = 2291;
}
);
unicode = 00BE;
userData = {
com.typemytype.robofont.mark = (
0.656,
1,
0.6,
1
);
};
},
{
glyphname = period;
layers = (
{
layerId = "B61D43DE-5272-4FF4-A680-608B6BF5ED9E";
paths = (
{
closed = 1;
nodes = (
"356 0 LINE",
"356 265 LINE",
"83 265 LINE",
"83 0 LINE"
);
}
);
width = 439;
}
);
unicode = 002E;
userData = {
com.typemytype.robofont.mark = (
0.656,
1,
0.6,
1
);
};
},
{
glyphname = comma;
layers = (
{
layerId = "B61D43DE-5272-4FF4-A680-608B6BF5ED9E";
paths = (
{
closed = 1;
nodes = (
"102 0 LINE",
"102 -103 OFFCURVE",
"70 -233 OFFCURVE",
"48 -289 CURVE",
"232 -289 LINE",
"279 -258 OFFCURVE",
"360 -98 OFFCURVE",
"360 78 CURVE",
"360 220 LINE",
"103 220 LINE"
);
}
);
width = 439;
}
);
unicode = 002C;
userData = {
com.typemytype.robofont.mark = (
0.656,
1,
0.6,
1
);
};
},
{
glyphname = ellipsis;
layers = (
{
layerId = "B61D43DE-5272-4FF4-A680-608B6BF5ED9E";
paths = (
{
closed = 1;
nodes = (
"356 0 LINE",
"356 265 LINE",
"83 265 LINE",
"83 0 LINE"
);
},
{
closed = 1;
nodes = (
"795 0 LINE",
"795 265 LINE",
"522 265 LINE",
"522 0 LINE"
);
},
{
closed = 1;
nodes = (
"1234 0 LINE",
"1234 265 LINE",
"961 265 LINE",
"961 0 LINE"
);
}
);
width = 1317;
}
);
unicode = 2026;
userData = {
com.typemytype.robofont.mark = (
0.656,
1,
0.6,
1
);
};
},
{
glyphname = exclam;
layers = (
{
layerId = "B61D43DE-5272-4FF4-A680-608B6BF5ED9E";
paths = (
{
closed = 1;
nodes = (
"483 477 LINE",
"532 1575 LINE",
"210 1575 LINE",
"259 477 LINE"
);
},
{
closed = 1;
nodes = (
"507 0 LINE",
"507 265 LINE",
"234 265 LINE",
"234 0 LINE"
);
}
);
width = 742;
}
);
unicode = 0021;
userData = {
com.typemytype.robofont.mark = (
0.656,
1,
0.6,
1
);
};
},
{
glyphname = question;
layers = (
{
layerId = "B61D43DE-5272-4FF4-A680-608B6BF5ED9E";
paths = (
{
closed = 1;
nodes = (
"587 461 LINE",
"570 660 OFFCURVE",
"599 728 OFFCURVE",
"735 806 CURVE SMOOTH",
"866 881 OFFCURVE",
"1003 995 OFFCURVE",
"1003 1211 CURVE SMOOTH",
"1003 1441 OFFCURVE",
"837 1591 OFFCURVE",
"510 1591 CURVE SMOOTH",
"231 1591 OFFCURVE",
"58 1454 OFFCURVE",
"0 1392 CURVE",
"186 1183 LINE",
"235 1268 OFFCURVE",
"337 1384 OFFCURVE",
"492 1384 CURVE SMOOTH",
"668 1384 OFFCURVE",
"707 1312 OFFCURVE",
"707 1185 CURVE SMOOTH",
"707 1040 OFFCURVE",
"612 955 OFFCURVE",
"534 921 CURVE SMOOTH",
"412 850 OFFCURVE",
"332 803 OFFCURVE",
"343 621 CURVE SMOOTH",
"345 596 OFFCURVE",
"359 492 OFFCURVE",
"366 461 CURVE"
);
},
{
closed = 1;
nodes = (
"619 0 LINE",
"619 265 LINE",
"346 265 LINE",
"346 0 LINE"
);
}
);
width = 1054;
}
);
unicode = 003F;
userData = {
com.typemytype.robofont.mark = (
0.656,
1,
0.6,
1
);
};
},
{
glyphname = bullet;
layers = (
{
layerId = "B61D43DE-5272-4FF4-A680-608B6BF5ED9E";
paths = (
{
closed = 1;
nodes = (
"451 574 OFFCURVE",
"534 625 OFFCURVE",
"534 773 CURVE SMOOTH",
"534 914 OFFCURVE",
"448 973 OFFCURVE",
"345 973 CURVE SMOOTH",
"243 973 OFFCURVE",
"157 914 OFFCURVE",
"157 773 CURVE SMOOTH",
"157 625 OFFCURVE",
"242 574 OFFCURVE",
"345 574 CURVE SMOOTH"
);
}
);
width = 691;
}
);
unicode = 2022;
userData = {
com.typemytype.robofont.mark = (
0.656,
1,
0.6,
1
);
};
},
{
glyphname = asterisk;
layers = (
{
layerId = "B61D43DE-5272-4FF4-A680-608B6BF5ED9E";
paths = (
{
closed = 1;
nodes = (
"530 1071 LINE",
"484 1069 LINE",
"684 753 LINE",
"851 872 LINE",
"615 1154 LINE",
"615 1114 LINE",
"942 1208 LINE",
"877 1397 LINE",
"563 1267 LINE",
"589 1237 LINE",
"608 1589 LINE",
"402 1589 LINE",
"424 1237 LINE",
"446 1269 LINE",
"134 1401 LINE",
"73 1212 LINE",
"397 1116 LINE",
"396 1155 LINE",
"160 874 LINE",
"329 754 LINE"
);
}
);
width = 1014;
}
);
unicode = 002A;
userData = {
com.typemytype.robofont.mark = (
0.656,
1,
0.6,
1
);
};
},
{
glyphname = numbersign;
layers = (
{
layerId = "B61D43DE-5272-4FF4-A680-608B6BF5ED9E";
paths = (
{
closed = 1;
nodes = (
"289 421 LINE",
"251 467 LINE",
"210 131 LINE",
"382 131 LINE",
"423 471 LINE",
"382 421 LINE",
"770 421 LINE",
"726 459 LINE",
"688 131 LINE",
"864 131 LINE",
"903 472 LINE",
"857 421 LINE",
"1129 421 LINE",
"1129 580 LINE",
"872 580 LINE",
"912 536 LINE",
"959 1027 LINE",
"889 977 LINE",
"1182 977 LINE",
"1182 1133 LINE",
"931 1133 LINE",
"965 1083 LINE",
"1001 1428 LINE",
"825 1428 LINE",
"789 1091 LINE",
"820 1133 LINE",
"458 1133 LINE",
"485 1076 LINE",
"523 1428 LINE",
"351 1428 LINE",
"312 1073 LINE",
"348 1133 LINE",
"97 1133 LINE",
"97 977 LINE",
"339 977 LINE",
"303 1010 LINE",
"259 544 LINE",
"311 580 LINE",
"44 580 LINE",
"44 421 LINE"
);
},
{
closed = 1;
nodes = (
"430 532 LINE",
"476 1020 LINE",
"424 977 LINE",
"809 977 LINE",
"783 1025 LINE",
"737 540 LINE",
"787 580 LINE",
"371 580 LINE"
);
}
);
width = 1243;
}
);
unicode = 0023;
userData = {
com.typemytype.robofont.mark = (
0.656,
1,
0.6,
1
);
};
},
{
glyphname = slash;
layers = (
{
layerId = "B61D43DE-5272-4FF4-A680-608B6BF5ED9E";
paths = (
{
closed = 1;
nodes = (
"270 0 LINE",
"622 1428 LINE",
"422 1428 LINE",
"69 2 LINE"
);
}
);
width = 714;
}
);
unicode = 002F;
userData = {
com.typemytype.robofont.mark = (
0.656,
1,
0.6,
1
);
};
},
{
glyphname = bullet.cap;
layers = (
{
layerId = "B61D43DE-5272-4FF4-A680-608B6BF5ED9E";
paths = (
{
closed = 1;
nodes = (
"451 574 OFFCURVE",
"534 625 OFFCURVE",
"534 773 CURVE SMOOTH",
"534 914 OFFCURVE",
"448 973 OFFCURVE",
"345 973 CURVE SMOOTH",
"243 973 OFFCURVE",
"157 914 OFFCURVE",
"157 773 CURVE SMOOTH",
"157 625 OFFCURVE",
"242 574 OFFCURVE",
"345 574 CURVE SMOOTH"
);
}
);
width = 691;
}
);
},
{
glyphname = parenleft;
layers = (
{
layerId = "B61D43DE-5272-4FF4-A680-608B6BF5ED9E";
paths = (
{
closed = 1;
nodes = (
"129 76 OFFCURVE",
"483 -252 OFFCURVE",
"660 -302 CURVE",
"749 -211 LINE",
"668 -154 OFFCURVE",
"387 55 OFFCURVE",
"387 678 CURVE SMOOTH",
"387 1301 OFFCURVE",
"658 1531 OFFCURVE",
"749 1568 CURVE",
"660 1659 LINE",
"483 1629 OFFCURVE",
"129 1279 OFFCURVE",
"129 678 CURVE SMOOTH"
);
}
);
width = 791;
}
);
unicode = 0028;
userData = {
com.typemytype.robofont.mark = (
0.656,
1,
0.6,
1
);
};
},
{
glyphname = braceleft;
layers = (
{
layerId = "B61D43DE-5272-4FF4-A680-608B6BF5ED9E";
paths = (
{
closed = 1;
nodes = (
"224 -161 OFFCURVE",
"415 -325 OFFCURVE",
"708 -285 CURVE",
"710 -154 LINE",
"463 -202 OFFCURVE",
"455 -23 OFFCURVE",
"455 214 CURVE SMOOTH",
"455 396 LINE SMOOTH",
"455 584 OFFCURVE",
"342 664 OFFCURVE",
"272 682 CURVE",
"350 702 OFFCURVE",
"455 781 OFFCURVE",
"455 1001 CURVE SMOOTH",
"455 1159 LINE SMOOTH",
"455 1397 OFFCURVE",
"461 1575 OFFCURVE",
"708 1527 CURVE",
"706 1658 LINE",
"413 1698 OFFCURVE",
"224 1535 OFFCURVE",
"224 1291 CURVE SMOOTH",
"224 919 LINE SMOOTH",
"224 762 OFFCURVE",
"94 762 OFFCURVE",
"37 762 CURVE",
"37 608 LINE",
"94 608 OFFCURVE",
"224 606 OFFCURVE",
"224 440 CURVE SMOOTH",
"224 82 LINE"
);
}
);
width = 791;
}
);
unicode = 007B;
userData = {
com.typemytype.robofont.mark = (
0.656,
1,
0.6,
1
);
};
},
{
glyphname = bracketleft;
layers = (
{
layerId = "B61D43DE-5272-4FF4-A680-608B6BF5ED9E";
paths = (
{
closed = 1;
nodes = (
"440 -190 LINE",
"440 1558 LINE",
"402 1510 LINE",
"701 1510 LINE",
"701 1659 LINE",
"216 1659 LINE",
"216 -292 LINE",
"701 -292 LINE",
"701 -143 LINE",
"402 -144 LINE"
);
}
);
width = 791;
}
);
unicode = 005B;
userData = {
com.typemytype.robofont.mark = (
0.656,
1,
0.6,
1
);
};
},
{
glyphname = parenleft.cap;
layers = (
{
layerId = "B61D43DE-5272-4FF4-A680-608B6BF5ED9E";
paths = (
{
closed = 1;
nodes = (
"129 116 OFFCURVE",
"483 -212 OFFCURVE",
"660 -262 CURVE",
"749 -171 LINE",
"668 -114 OFFCURVE",
"387 95 OFFCURVE",
"387 718 CURVE SMOOTH",
"387 1341 OFFCURVE",
"658 1571 OFFCURVE",
"749 1608 CURVE",
"660 1699 LINE",
"483 1669 OFFCURVE",
"129 1319 OFFCURVE",
"129 718 CURVE SMOOTH"
);
}
);
width = 791;
}
);
},
{
glyphname = braceleft.cap;
layers = (
{
layerId = "B61D43DE-5272-4FF4-A680-608B6BF5ED9E";
paths = (
{
closed = 1;
nodes = (
"224 -121 OFFCURVE",
"415 -285 OFFCURVE",
"708 -245 CURVE",
"710 -114 LINE",
"463 -162 OFFCURVE",
"455 17 OFFCURVE",
"455 254 CURVE SMOOTH",
"455 436 LINE SMOOTH",
"455 624 OFFCURVE",
"342 704 OFFCURVE",
"272 722 CURVE",
"350 742 OFFCURVE",
"455 821 OFFCURVE",
"455 1041 CURVE SMOOTH",
"455 1199 LINE SMOOTH",
"455 1437 OFFCURVE",
"461 1615 OFFCURVE",
"708 1567 CURVE",
"706 1698 LINE",
"413 1738 OFFCURVE",
"224 1575 OFFCURVE",
"224 1331 CURVE SMOOTH",
"224 959 LINE SMOOTH",
"224 802 OFFCURVE",
"94 802 OFFCURVE",
"37 802 CURVE",
"37 648 LINE",
"94 648 OFFCURVE",
"224 646 OFFCURVE",
"224 480 CURVE SMOOTH",
"224 122 LINE"
);
}
);
width = 791;
}
);
},
{
glyphname = bracketleft.cap;
layers = (
{
layerId = "B61D43DE-5272-4FF4-A680-608B6BF5ED9E";
paths = (
{
closed = 1;
nodes = (
"440 -150 LINE",
"440 1598 LINE",
"402 1550 LINE",
"701 1550 LINE",
"701 1699 LINE",
"216 1699 LINE",
"216 -252 LINE",
"701 -252 LINE",
"701 -103 LINE",
"402 -104 LINE"
);
}
);
width = 791;
}
);
},
{
glyphname = hyphen;
layers = (
{
layerId = "B61D43DE-5272-4FF4-A680-608B6BF5ED9E";
paths = (
{
closed = 1;
nodes = (
"780 504 LINE",
"780 704 LINE",
"127 704 LINE",
"127 504 LINE"
);
}
);
width = 907;
}
);
unicode = 002D;
userData = {
com.typemytype.robofont.mark = (
0.656,
1,
0.6,
1
);
};
},
{
glyphname = softhyphen;
lastChange = "2018-05-15 03:18:55 +0000";
layers = (
{
layerId = "B61D43DE-5272-4FF4-A680-608B6BF5ED9E";
paths = (
{
closed = 1;
nodes = (
"780 504 LINE",
"780 704 LINE",
"127 704 LINE",
"127 504 LINE"
);
}
);
width = 907;
}
);
unicode = 00AD;
userData = {
com.typemytype.robofont.mark = (
0.656,
1,
0.6,
1
);
};
},
{
glyphname = endash;
layers = (
{
layerId = "B61D43DE-5272-4FF4-A680-608B6BF5ED9E";
paths = (
{
closed = 1;
nodes = (
"1178 504 LINE",
"1178 704 LINE",
"127 704 LINE",
"127 504 LINE"
);
}
);
width = 1305;
}
);
unicode = 2013;
userData = {
com.typemytype.robofont.mark = (
0.656,
1,
0.6,
1
);
};
},
{
glyphname = emdash;
layers = (
{
layerId = "B61D43DE-5272-4FF4-A680-608B6BF5ED9E";
paths = (
{
closed = 1;
nodes = (
"1800 504 LINE",
"1800 704 LINE",
"127 704 LINE",
"127 504 LINE"
);
}
);
width = 1927;
}
);
unicode = 2014;
userData = {
com.typemytype.robofont.mark = (
0.656,
1,
0.6,
1
);
};
},
{
glyphname = underscore;
layers = (
{
layerId = "B61D43DE-5272-4FF4-A680-608B6BF5ED9E";
paths = (
{
closed = 1;
nodes = (
"-24 -355 LINE",
"1028 -355 LINE",
"1028 -215 LINE",
"-24 -215 LINE"
);
}
);
width = 1004;
}
);
unicode = 005F;
userData = {
com.typemytype.robofont.mark = (
0.656,
1,
0.6,
1
);
};
},
{
glyphname = hyphen.cap;
layers = (
{
layerId = "B61D43DE-5272-4FF4-A680-608B6BF5ED9E";
paths = (
{
closed = 1;
nodes = (
"780 604 LINE",
"780 804 LINE",
"127 804 LINE",
"127 604 LINE"
);
}
);
width = 907;
}
);
},
{
glyphname = endash.cap;
layers = (
{
layerId = "B61D43DE-5272-4FF4-A680-608B6BF5ED9E";
paths = (
{
closed = 1;
nodes = (
"1178 604 LINE",
"1178 804 LINE",
"127 804 LINE",
"127 604 LINE"
);
}
);
width = 1305;
}
);
},
{
glyphname = emdash.cap;
layers = (
{
layerId = "B61D43DE-5272-4FF4-A680-608B6BF5ED9E";
paths = (
{
closed = 1;
nodes = (
"1800 604 LINE",
"1800 804 LINE",
"127 804 LINE",
"127 604 LINE"
);
}
);
width = 1927;
}
);
},
{
glyphname = quoteleft;
layers = (
{
layerId = "B61D43DE-5272-4FF4-A680-608B6BF5ED9E";
paths = (
{
closed = 1;
nodes = (
"458 772 LINE",
"447 799 OFFCURVE",
"403 985 OFFCURVE",
"403 1222 CURVE",
"403 1428 LINE",
"156 1428 LINE",
"156 1177 LINE",
"164 898 OFFCURVE",
"261 788 OFFCURVE",
"270 772 CURVE"
);
}
);
width = 597;
}
);
unicode = 2018;
userData = {
com.typemytype.robofont.mark = (
0.656,
1,
0.6,
1
);
};
},
{
glyphname = guilsinglleft;
layers = (
{
layerId = "B61D43DE-5272-4FF4-A680-608B6BF5ED9E";
paths = (
{
closed = 1;
nodes = (
"468 50 LINE",
"756 50 LINE",
"393 538 LINE",
"393 480 LINE",
"761 968 LINE",
"473 968 LINE",
"141 507 LINE"
);
}
);
width = 923;
}
);
unicode = 2039;
userData = {
com.typemytype.robofont.mark = (
0.656,
1,
0.6,
1
);
};
},
{
glyphname = quotesingle;
layers = (
{
layerId = "B61D43DE-5272-4FF4-A680-608B6BF5ED9E";
paths = (
{
closed = 1;
nodes = (
"411 797 LINE",
"433 1428 LINE",
"167 1428 LINE",
"193 797 LINE"
);
}
);
width = 600;
}
);
unicode = 0027;
userData = {
com.typemytype.robofont.mark = (
0.656,
1,
0.6,
1
);
};
},
{
glyphname = guilsinglleft.cap;
layers = (
{
layerId = "B61D43DE-5272-4FF4-A680-608B6BF5ED9E";
paths = (
{
closed = 1;
nodes = (
"468 50 LINE",
"756 50 LINE",
"393 538 LINE",
"393 480 LINE",
"761 968 LINE",
"473 968 LINE",
"141 507 LINE"
);
}
);
width = 923;
}
);
},
{
glyphname = .notdef;
layers = (
{
layerId = "B61D43DE-5272-4FF4-A680-608B6BF5ED9E";
paths = (
{
closed = 1;
nodes = (
"1885 0 LINE",
"1885 1699 LINE",
"236 1699 LINE",
"236 0 LINE"
);
},
{
closed = 1;
nodes = (
"647 376 OFFCURVE",
"612 414 OFFCURVE",
"569 466 CURVE",
"959 846 LINE",
"568 1249 LINE",
"683 1373 LINE",
"1062 952 LINE",
"1436 1372 LINE",
"1556 1249 LINE",
"1160 850 LINE",
"1555 438 LINE",
"1442 319 LINE",
"1058 743 LINE",
"690 323 LINE"
);
}
);
width = 2124;
}
);
},
{
glyphname = cent;
layers = (
{
layerId = "B61D43DE-5272-4FF4-A680-608B6BF5ED9E";
paths = (
{
closed = 1;
nodes = (
"125 423 OFFCURVE",
"284 224 OFFCURVE",
"612 224 CURVE SMOOTH",
"804 224 OFFCURVE",
"904 282 OFFCURVE",
"946 322 CURVE",
"866 504 LINE",
"808 453 OFFCURVE",
"739 416 OFFCURVE",
"652 415 CURVE SMOOTH",
"499 415 OFFCURVE",
"421 528 OFFCURVE",
"421 702 CURVE SMOOTH",
"421 864 OFFCURVE",
"497 991 OFFCURVE",
"643 991 CURVE SMOOTH",
"718 991 OFFCURVE",
"793 958 OFFCURVE",
"860 897 CURVE",
"943 1090 LINE",
"892 1143 OFFCURVE",
"764 1177 OFFCURVE",
"613 1177 CURVE SMOOTH",
"308 1177 OFFCURVE",
"125 991 OFFCURVE",
"125 700 CURVE SMOOTH"
);
},
{
closed = 1;
nodes = (
"712 0 LINE",
"712 265 LINE",
"469 265 LINE",
"469 0 LINE"
);
},
{
closed = 1;
nodes = (
"712 1131 LINE",
"712 1426 LINE",
"469 1426 LINE",
"469 1131 LINE"
);
}
);
width = 1080;
}
);
unicode = 00A2;
userData = {
com.typemytype.robofont.mark = (
0.656,
1,
0.6,
1
);
};
},
{
color = 0;
glyphname = colonmonetary;
lastChange = "2018-05-15 04:21:11 +0000";
layers = (
{
anchors = (
{
name = btm;
position = "{583, -170}";
},
{
name = top;
position = "{680, 1700}";
}
);
layerId = "B61D43DE-5272-4FF4-A680-608B6BF5ED9E";
paths = (
{
closed = 1;
nodes = (
"1047 -36 OFFCURVE",
"1177 42 OFFCURVE",
"1242 88 CURVE",
"1127 297 LINE",
"1086 260 OFFCURVE",
"972 183 OFFCURVE",
"772 183 CURVE SMOOTH",
"544 183 OFFCURVE",
"366 383 OFFCURVE",
"366 728 CURVE SMOOTH",
"366 1000 OFFCURVE",
"492 1247 OFFCURVE",
"771 1247 CURVE SMOOTH",
"971 1247 OFFCURVE",
"1085 1170 OFFCURVE",
"1126 1133 CURVE",
"1241 1342 LINE",
"1176 1388 OFFCURVE",
"1055 1463 OFFCURVE",
"764 1463 CURVE SMOOTH",
"395 1463 OFFCURVE",
"80 1194 OFFCURVE",
"80 728 CURVE SMOOTH",
"80 217 OFFCURVE",
"409 -36 OFFCURVE",
"756 -36 CURVE SMOOTH"
);
},
{
closed = 1;
nodes = (
"530 -250 LINE",
"821 1699 LINE",
"661 1699 LINE",
"369 -249 LINE"
);
},
{
closed = 1;
nodes = (
"816 -250 LINE",
"1107 1699 LINE",
"947 1699 LINE",
"655 -249 LINE"
);
}
);
width = 1118;
}
);
unicode = 20A1;
userData = {
com.typemytype.robofont.mark = (
0.6,
0.986,
1,
1
);
};
},
{
color = 0;
glyphname = currency;
lastChange = "2018-05-15 04:21:11 +0000";
layers = (
{
layerId = "B61D43DE-5272-4FF4-A680-608B6BF5ED9E";
paths = (
{
closed = 1;
nodes = (
"472 1022 LINE",
"240 1264 LINE",
"84 1099 LINE",
"334 878 LINE"
);
},
{
closed = 1;
nodes = (
"1037 114 LINE",
"1191 277 LINE",
"940 501 LINE",
"803 355 LINE"
);
},
{
closed = 1;
nodes = (
"234 117 LINE",
"470 357 LINE",
"329 502 LINE",
"80 279 LINE"
);
},
{
closed = 1;
nodes = (
"932 889 LINE",
"1182 1112 LINE",
"1029 1275 LINE",
"795 1034 LINE"
);
},
{
closed = 1;
nodes = (
"189 444 OFFCURVE",
"389 244 OFFCURVE",
"635 244 CURVE SMOOTH",
"881 244 OFFCURVE",
"1081 444 OFFCURVE",
"1081 689 CURVE SMOOTH",
"1081 935 OFFCURVE",
"881 1135 OFFCURVE",
"635 1135 CURVE SMOOTH",
"389 1135 OFFCURVE",
"189 935 OFFCURVE",
"189 689 CURVE SMOOTH"
);
},
{
closed = 1;
nodes = (
"362 840 OFFCURVE",
"483 963 OFFCURVE",
"635 963 CURVE SMOOTH",
"787 963 OFFCURVE",
"906 840 OFFCURVE",
"906 689 CURVE SMOOTH",
"906 539 OFFCURVE",
"787 416 OFFCURVE",
"635 416 CURVE SMOOTH",
"483 416 OFFCURVE",
"362 539 OFFCURVE",
"362 689 CURVE"
);
}
);
width = 1271;
}
);
unicode = 00A4;
userData = {
com.typemytype.robofont.mark = (
0.656,
1,
0.6,
1
);
};
},
{
color = 0;
glyphname = dollar;
lastChange = "2018-05-15 04:21:11 +0000";
layers = (
{
layerId = "B61D43DE-5272-4FF4-A680-608B6BF5ED9E";
paths = (
{
closed = 1;
nodes = (
"240 156 OFFCURVE",
"412 120 OFFCURVE",
"565 120 CURVE SMOOTH",
"830 120 OFFCURVE",
"1001 252 OFFCURVE",
"1007 463 CURVE SMOOTH",
"1012 639 OFFCURVE",
"884 751 OFFCURVE",
"672 816 CURVE SMOOTH",
"579 846 OFFCURVE",
"384 874 OFFCURVE",
"390 1010 CURVE SMOOTH",
"396 1109 OFFCURVE",
"485 1157 OFFCURVE",
"594 1157 CURVE SMOOTH",
"716 1157 OFFCURVE",
"835 1077 OFFCURVE",
"857 1049 CURVE",
"937 1206 LINE",
"895 1262 OFFCURVE",
"750 1340 OFFCURVE",
"554 1336 CURVE SMOOTH",
"288 1331 OFFCURVE",
"138 1188 OFFCURVE",
"134 1004 CURVE SMOOTH",
"128 764 OFFCURVE",
"307 678 OFFCURVE",
"493 622 CURVE SMOOTH",
"613 590 OFFCURVE",
"740 549 OFFCURVE",
"740 451 CURVE SMOOTH",
"739 331 OFFCURVE",
"636 290 OFFCURVE",
"537 290 CURVE SMOOTH",
"387 290 OFFCURVE",
"249 369 OFFCURVE",
"198 415 CURVE",
"125 249 LINE"
);
},
{
closed = 1;
nodes = (
"694 -30 LINE",
"694 285 LINE",
"451 285 LINE",
"451 -30 LINE"
);
},
{
closed = 1;
nodes = (
"694 1201 LINE",
"694 1523 LINE",
"451 1523 LINE",
"451 1201 LINE"
);
}
);
width = 1088;
}
);
unicode = 0024;
userData = {
com.typemytype.robofont.mark = (
0.656,
1,
0.6,
1
);
};
},
{
color = 0;
glyphname = dong;
lastChange = "2018-05-15 04:20:42 +0000";
layers = (
{
anchors = (
{
name = top;
position = "{411, 1700}";
}
);
layerId = "B61D43DE-5272-4FF4-A680-608B6BF5ED9E";
paths = (
{
closed = 1;
nodes = (
"94 185 OFFCURVE",
"250 -30 OFFCURVE",
"499 -30 CURVE SMOOTH",
"643 -30 OFFCURVE",
"728 52 OFFCURVE",
"772 139 CURVE",
"768 67 LINE",
"768 0 LINE",
"1012 0 LINE",
"1012 1576 LINE",
"751 1576 LINE",
"751 994 LINE",
"767 893 LINE",
"728 963 OFFCURVE",
"643 1044 OFFCURVE",
"502 1044 CURVE SMOOTH",
"230 1044 OFFCURVE",
"94 843 OFFCURVE",
"94 508 CURVE SMOOTH"
);
},
{
closed = 1;
nodes = (
"363 758 OFFCURVE",
"470 838 OFFCURVE",
"566 838 CURVE SMOOTH",
"690 838 OFFCURVE",
"744 716 OFFCURVE",
"744 504 CURVE SMOOTH",
"744 270 OFFCURVE",
"658 175 OFFCURVE",
"560 175 CURVE SMOOTH",
"447 175 OFFCURVE",
"363 283 OFFCURVE",
"363 509 CURVE SMOOTH"
);
}
);
width = 1168;
}
);
unicode = 20AB;
userData = {
com.typemytype.robofont.mark = (
0.6,
0.986,
1,
1
);
};
},
{
glyphname = euro;
lastChange = "2018-05-15 03:17:55 +0000";
layers = (
{
layerId = "B61D43DE-5272-4FF4-A680-608B6BF5ED9E";
paths = (
{
closed = 1;
nodes = (
"222 228 OFFCURVE",
"444 -19 OFFCURVE",
"776 -19 CURVE SMOOTH",
"942 -19 OFFCURVE",
"1069 25 OFFCURVE",
"1199 134 CURVE",
"1114 316 LINE",
"1046 236 OFFCURVE",
"941 172 OFFCURVE",
"829 172 CURVE SMOOTH",
"587 172 OFFCURVE",
"513 382 OFFCURVE",
"513 729 CURVE SMOOTH",
"513 1177 OFFCURVE",
"718 1270 OFFCURVE",
"820 1270 CURVE SMOOTH",
"953 1270 OFFCURVE",
"1026 1199 OFFCURVE",
"1074 1126 CURVE",
"1166 1306 LINE",
"1117 1368 OFFCURVE",
"982 1452 OFFCURVE",
"773 1452 CURVE SMOOTH",
"353 1452 OFFCURVE",
"222 1112 OFFCURVE",
"222 729 CURVE SMOOTH"
);
},
{
closed = 1;
nodes = (
"964 796 LINE",
"962 965 LINE",
"121 965 LINE",
"121 796 LINE"
);
},
{
closed = 1;
nodes = (
"950 487 LINE",
"950 657 LINE",
"104 657 LINE",
"104 487 LINE"
);
}
);
width = 1296;
}
);
unicode = 20AC;
userData = {
com.typemytype.robofont.mark = (
0.656,
1,
0.6,
1
);
};
},
{
glyphname = florin;
layers = (
{
layerId = "B61D43DE-5272-4FF4-A680-608B6BF5ED9E";
paths = (
{
closed = 1;
nodes = (
"391 -204 LINE",
"453 836 LINE",
"669 836 LINE",
"680 1008 LINE",
"464 1008 LINE",
"466 1043 OFFCURVE",
"469 1096 OFFCURVE",
"470 1103 CURVE SMOOTH",
"484 1361 OFFCURVE",
"560 1400 OFFCURVE",
"642 1400 CURVE SMOOTH",
"685 1400 OFFCURVE",
"737 1379 OFFCURVE",
"791 1344 CURVE",
"805 1550 LINE",
"750 1566 OFFCURVE",
"689 1576 OFFCURVE",
"632 1576 CURVE SMOOTH",
"380 1576 OFFCURVE",
"215 1453 OFFCURVE",
"196 1136 CURVE SMOOTH",
"194 1115 OFFCURVE",
"190 1028 OFFCURVE",
"188 1008 CURVE",
"47 1008 LINE",
"36 836 LINE",
"179 836 LINE",
"116 -204 LINE"
);
}
);
width = 745;
}
);
unicode = 0192;
userData = {
com.typemytype.robofont.mark = (
0.6,
0.986,
1,
1
);
};
},
{
glyphname = franc;
layers = (
{
layerId = "B61D43DE-5272-4FF4-A680-608B6BF5ED9E";
paths = (
{
closed = 1;
nodes = (
"421 0 LINE",
"421 733 LINE",
"383 703 LINE",
"839 703 LINE",
"839 920 LINE",
"383 920 LINE",
"421 884 LINE",
"421 1258 LINE",
"387 1221 LINE",
"901 1221 LINE",
"901 1428 LINE",
"155 1428 LINE",
"155 0 LINE"
);
},
{
closed = 1;
nodes = (
"652 178 LINE",
"652 378 LINE",
"-1 378 LINE",
"-1 178 LINE"
);
}
);
width = 950;
}
);
unicode = 20A3;
userData = {
com.typemytype.robofont.mark = (
0.6,
0.986,
1,
1
);
};
},
{
color = 0;
glyphname = kip;
lastChange = "2018-05-15 04:20:37 +0000";
layers = (
{
components = (
{
name = K;
transform = "{1, 0, 0, 1, 61, 0}";
}
);
layerId = "B61D43DE-5272-4FF4-A680-608B6BF5ED9E";
paths = (
{
closed = 1;
nodes = (
"1210 625 LINE",
"1210 825 LINE",
"60 825 LINE",
"60 625 LINE"
);
}
);
width = 1336;
}
);
unicode = 20AD;
userData = {
com.typemytype.robofont.mark = (
0.6,
0.609,
1,
1
);
};
},
{
glyphname = lira;
layers = (
{
layerId = "B61D43DE-5272-4FF4-A680-608B6BF5ED9E";
paths = (
{
closed = 1;
nodes = (
"1060 0 LINE",
"1060 206 LINE",
"449 206 LINE",
"489 306 OFFCURVE",
"543 437 OFFCURVE",
"543 611 CURVE SMOOTH",
"543 770 OFFCURVE",
"476 870 OFFCURVE",
"476 1016 CURVE SMOOTH",
"476 1189 OFFCURVE",
"550 1274 OFFCURVE",
"703 1274 CURVE SMOOTH",
"815 1274 OFFCURVE",
"935 1210 OFFCURVE",
"980 1135 CURVE",
"1084 1301 LINE",
"1043 1356 OFFCURVE",
"913 1450 OFFCURVE",
"672 1450 CURVE SMOOTH",
"324 1450 OFFCURVE",
"192 1290 OFFCURVE",
"192 1060 CURVE SMOOTH",
"192 865 OFFCURVE",
"284 750 OFFCURVE",
"284 527 CURVE SMOOTH",
"284 294 OFFCURVE",
"179 82 OFFCURVE",
"144 0 CURVE"
);
},
{
closed = 1;
nodes = (
"884 459 LINE",
"884 629 LINE",
"97 629 LINE",
"97 459 LINE"
);
},
{
closed = 1;
nodes = (
"884 789 LINE",
"884 959 LINE",
"97 959 LINE",
"97 789 LINE"
);
}
);
width = 1212;
}
);
unicode = 20A4;
userData = {
com.typemytype.robofont.mark = (
0.6,
0.986,
1,
1
);
};
},
{
glyphname = peseta;
layers = (
{
layerId = "B61D43DE-5272-4FF4-A680-608B6BF5ED9E";
paths = (
{
closed = 1;
nodes = (
"421 0 LINE",
"421 462 LINE",
"390 358 LINE",
"547 358 LINE",
"910 358 OFFCURVE",
"1059 644 OFFCURVE",
"1059 905 CURVE SMOOTH",
"1059 1265 OFFCURVE",
"829 1428 OFFCURVE",
"539 1428 CURVE SMOOTH",
"155 1428 LINE",
"155 0 LINE"
);
},
{
closed = 1;
nodes = (
"421 543 LINE",
"421 1257 LINE",
"389 1221 LINE",
"533 1221 LINE SMOOTH",
"738 1221 OFFCURVE",
"798 1085 OFFCURVE",
"798 892 CURVE SMOOTH",
"798 702 OFFCURVE",
"720 567 OFFCURVE",
"539 567 CURVE SMOOTH",
"384 567 LINE"
);
},
{
closed = 1;
nodes = (
"1281 128 OFFCURVE",
"1363 -30 OFFCURVE",
"1627 -30 CURVE SMOOTH",
"1689 -30 OFFCURVE",
"1821 -4 OFFCURVE",
"1876 41 CURVE",
"1828 271 LINE",
"1789 229 OFFCURVE",
"1713 181 OFFCURVE",
"1653 181 CURVE SMOOTH",
"1579 181 OFFCURVE",
"1542 251 OFFCURVE",
"1542 407 CURVE",
"1542 848 LINE",
"1851 848 LINE",
"1851 1020 LINE",
"1542 1020 LINE",
"1542 1426 LINE",
"1281 1297 LINE",
"1281 1020 LINE",
"1148 1020 LINE",
"1148 848 LINE",
"1281 848 LINE",
"1281 371 LINE SMOOTH"
);
},
{
closed = 1;
nodes = (
"1993 46 OFFCURVE",
"2133 -36 OFFCURVE",
"2332 -36 CURVE SMOOTH",
"2615 -36 OFFCURVE",
"2727 127 OFFCURVE",
"2727 286 CURVE SMOOTH",
"2727 444 OFFCURVE",
"2628 523 OFFCURVE",
"2481 593 CURVE SMOOTH",
"2367 647 OFFCURVE",
"2265 683 OFFCURVE",
"2265 763 CURVE SMOOTH",
"2265 812 OFFCURVE",
"2292 847 OFFCURVE",
"2391 847 CURVE SMOOTH",
"2468 847 OFFCURVE",
"2579 816 OFFCURVE",
"2625 763 CURVE",
"2699 960 LINE",
"2663 998 OFFCURVE",
"2538 1044 OFFCURVE",
"2380 1044 CURVE SMOOTH",
"2122 1044 OFFCURVE",
"2000 923 OFFCURVE",
"2000 746 CURVE SMOOTH",
"2000 548 OFFCURVE",
"2166 460 OFFCURVE",
"2266 413 CURVE SMOOTH",
"2402 350 OFFCURVE",
"2462 320 OFFCURVE",
"2462 252 CURVE SMOOTH",
"2462 186 OFFCURVE",
"2396 158 OFFCURVE",
"2307 158 CURVE SMOOTH",
"2166 158 OFFCURVE",
"2083 227 OFFCURVE",
"2040 272 CURVE",
"1962 82 LINE"
);
}
);
width = 2797;
}
);
unicode = 20A7;
userData = {
com.typemytype.robofont.mark = (
0.6,
0.986,
1,
1
);
};
},
{
glyphname = sterling;
layers = (
{
layerId = "B61D43DE-5272-4FF4-A680-608B6BF5ED9E";
paths = (
{
closed = 1;
nodes = (
"1060 0 LINE",
"1060 206 LINE",
"449 206 LINE",
"489 306 OFFCURVE",
"543 437 OFFCURVE",
"543 611 CURVE SMOOTH",
"543 770 OFFCURVE",
"476 870 OFFCURVE",
"476 1016 CURVE SMOOTH",
"476 1189 OFFCURVE",
"550 1274 OFFCURVE",
"703 1274 CURVE SMOOTH",
"815 1274 OFFCURVE",
"935 1210 OFFCURVE",
"980 1135 CURVE",
"1084 1301 LINE",
"1043 1356 OFFCURVE",
"913 1450 OFFCURVE",
"672 1450 CURVE SMOOTH",
"324 1450 OFFCURVE",
"192 1290 OFFCURVE",
"192 1060 CURVE SMOOTH",
"192 865 OFFCURVE",
"284 750 OFFCURVE",
"284 527 CURVE SMOOTH",
"284 294 OFFCURVE",
"179 82 OFFCURVE",
"144 0 CURVE"
);
},
{
closed = 1;
nodes = (
"884 589 LINE",
"884 759 LINE",
"97 759 LINE",
"97 589 LINE"
);
}
);
width = 1212;
}
);
unicode = 00A3;
userData = {
com.typemytype.robofont.mark = (
0.656,
1,
0.6,
1
);
};
},
{
glyphname = uni20A6;
layers = (
{
anchors = (
{
name = btm;
position = "{660, -170}";
},
{
name = top;
position = "{660, 1700}";
}
);
layerId = "B61D43DE-5272-4FF4-A680-608B6BF5ED9E";
paths = (
{
closed = 1;
nodes = (
"416 0 LINE",
"416 1033 LINE",
"253 975 LINE",
"1165 -40 LINE",
"1165 1428 LINE",
"904 1428 LINE",
"904 388 LINE",
"1056 440 LINE",
"155 1464 LINE",
"155 0 LINE"
);
},
{
closed = 1;
nodes = (
"1351 349 LINE",
"1351 519 LINE",
"-40 519 LINE",
"-40 349 LINE"
);
},
{
closed = 1;
nodes = (
"1351 879 LINE",
"1351 1049 LINE",
"-40 1049 LINE",
"-40 879 LINE"
);
}
);
width = 1320;
}
);
unicode = 20A6;
userData = {
com.typemytype.robofont.mark = (
0.6,
0.986,
1,
1
);
};
},
{
glyphname = uni20AA;
layers = (
{
layerId = "B61D43DE-5272-4FF4-A680-608B6BF5ED9E";
paths = (
{
closed = 1;
nodes = (
"1349 215 LINE",
"984 215 LINE SMOOTH",
"809 215 OFFCURVE",
"779 254 OFFCURVE",
"779 395 CURVE SMOOTH",
"779 1004 LINE",
"524 1004 LINE",
"524 424 LINE SMOOTH",
"524 114 OFFCURVE",
"646 0 OFFCURVE",
"864 0 CURVE SMOOTH",
"1597 0 LINE",
"1597 1428 LINE",
"1349 1428 LINE {name = hr00;}"
);
},
{
closed = 1;
nodes = (
"387 1194 LINE",
"821 1194 LINE",
"958 1194 OFFCURVE",
"951 1115 OFFCURVE",
"951 974 CURVE SMOOTH",
"951 395 LINE",
"1201 395 LINE",
"1201 1005 LINE SMOOTH",
"1201 1318 OFFCURVE",
"1135 1428 OFFCURVE",
"932 1428 CURVE",
"139 1428 LINE",
"139 0 LINE",
"387 0 LINE"
);
}
);
width = 1736;
}
);
unicode = 20AA;
},
{
glyphname = uni20B1;
layers = (
{
anchors = (
{
name = top;
position = "{602, 1700}";
}
);
layerId = "B61D43DE-5272-4FF4-A680-608B6BF5ED9E";
paths = (
{
closed = 1;
nodes = (
"421 0 LINE",
"421 322 LINE",
"390 218 LINE",
"547 218 LINE",
"910 218 OFFCURVE",
"1059 529 OFFCURVE",
"1059 815 CURVE SMOOTH",
"1059 1238 OFFCURVE",
"829 1428 OFFCURVE",
"539 1428 CURVE SMOOTH",
"155 1428 LINE",
"155 0 LINE"
);
},
{
closed = 1;
nodes = (
"421 403 LINE",
"421 1257 LINE",
"389 1221 LINE",
"533 1221 LINE SMOOTH",
"738 1221 OFFCURVE",
"798 1049 OFFCURVE",
"798 802 CURVE SMOOTH",
"798 582 OFFCURVE",
"720 427 OFFCURVE",
"539 427 CURVE SMOOTH",
"384 427 LINE"
);
},
{
closed = 1;
nodes = (
"1190 886 LINE",
"1189 1046 LINE",
"34 1046 LINE",
"34 886 LINE"
);
},
{
closed = 1;
nodes = (
"1190 572 LINE",
"1189 732 LINE",
"34 732 LINE",
"34 572 LINE"
);
}
);
width = 1096;
}
);
unicode = 20B1;
userData = {
com.typemytype.robofont.mark = (
0.6,
0.986,
1,
1
);
};
},
{
color = 0;
glyphname = uni20BC;
lastChange = "2018-05-15 04:18:58 +0000";
layers = (
{
anchors = (
{
name = top;
position = "{644, 1700}";
}
);
components = (
{
name = bar;
transform = "{1, 0, 0, 1, 217, 0}";
}
);
layerId = "B61D43DE-5272-4FF4-A680-608B6BF5ED9E";
paths = (
{
closed = 1;
nodes = (
"1145 1292 OFFCURVE",
"917 1428 OFFCURVE",
"637 1428 CURVE SMOOTH",
"364 1428 OFFCURVE",
"143 1292 OFFCURVE",
"143 883 CURVE SMOOTH",
"143 -36 LINE",
"409 -36 LINE",
"409 911 LINE SMOOTH",
"409 1154 OFFCURVE",
"541 1208 OFFCURVE",
"640 1208 CURVE SMOOTH",
"738 1208 OFFCURVE",
"879 1152 OFFCURVE",
"879 911 CURVE SMOOTH",
"879 -36 LINE",
"1145 -36 LINE",
"1145 883 LINE"
);
}
);
width = 1288;
}
);
unicode = 20BC;
userData = {
com.typemytype.robofont.mark = (
0.6,
0.609,
1,
1
);
};
},
{
color = 0;
glyphname = uni20BD;
lastChange = "2018-05-15 04:23:07 +0000";
layers = (
{
anchors = (
{
name = top;
position = "{612, 1700}";
}
);
layerId = "B61D43DE-5272-4FF4-A680-608B6BF5ED9E";
paths = (
{
closed = 1;
nodes = (
"431 0 LINE",
"431 621 LINE",
"400 517 LINE",
"557 517 LINE",
"920 517 OFFCURVE",
"1073 731 OFFCURVE",
"1073 1012 CURVE SMOOTH",
"1073 1344 OFFCURVE",
"839 1428 OFFCURVE",
"549 1428 CURVE SMOOTH",
"165 1428 LINE",
"165 0 LINE"
);
},
{
closed = 1;
nodes = (
"431 702 LINE",
"431 1257 LINE",
"399 1221 LINE",
"543 1221 LINE SMOOTH",
"748 1221 OFFCURVE",
"808 1150 OFFCURVE",
"808 998 CURVE SMOOTH",
"808 793 OFFCURVE",
"730 726 OFFCURVE",
"549 726 CURVE SMOOTH",
"394 726 LINE"
);
},
{
closed = 1;
nodes = (
"557 517 LINE",
"636 725 LINE",
"-33 725 LINE",
"-33 518 LINE"
);
},
{
closed = 1;
nodes = (
"739 212 LINE",
"739 420 LINE",
"-41 420 LINE",
"-41 213 LINE"
);
}
);
width = 1111;
}
);
unicode = 20BD;
userData = {
com.typemytype.robofont.mark = (
0.6,
0.609,
1,
1
);
};
},
{
color = 0;
glyphname = won;
lastChange = "2018-05-15 04:23:13 +0000";
layers = (
{
anchors = (
{
name = top;
position = "{955, 1700}";
}
);
layerId = "B61D43DE-5272-4FF4-A680-608B6BF5ED9E";
paths = (
{
closed = 1;
nodes = (
"697 447 LINE",
"398 1428 LINE",
"115 1428 LINE",
"608 -36 LINE",
"991 907 LINE",
"919 907 LINE",
"1308 -36 LINE",
"1795 1428 LINE",
"1516 1428 LINE",
"1228 431 LINE",
"1348 431 LINE",
"961 1463 LINE",
"595 471 LINE"
);
},
{
closed = 1;
nodes = (
"1924 1113 LINE",
"1923 1273 LINE",
"-14 1273 LINE",
"-14 1113 LINE"
);
},
{
closed = 1;
nodes = (
"1924 799 LINE",
"1923 959 LINE",
"-14 959 LINE",
"-14 799 LINE"
);
}
);
width = 1910;
}
);
unicode = 20A9;
userData = {
com.typemytype.robofont.guides = (
{
angle = 0;
isGlobal = 0;
magnetic = 5;
x = 0;
y = 615;
}
);
};
},
{
glyphname = yen;
layers = (
{
layerId = "B61D43DE-5272-4FF4-A680-608B6BF5ED9E";
paths = (
{
closed = 1;
nodes = (
"824 0 LINE",
"824 605 LINE",
"1261 1428 LINE",
"970 1428 LINE",
"663 785 LINE",
"699 785 LINE",
"382 1428 LINE",
"90 1428 LINE",
"541 612 LINE",
"541 0 LINE"
);
},
{
closed = 1;
nodes = (
"1129 578 LINE",
"1128 738 LINE",
"216 738 LINE",
"216 578 LINE"
);
},
{
closed = 1;
nodes = (
"1129 264 LINE",
"1128 424 LINE",
"216 424 LINE",
"216 264 LINE"
);
}
);
width = 1351;
}
);
unicode = 00A5;
userData = {
com.typemytype.robofont.mark = (
0.656,
1,
0.6,
1
);
};
},
{
glyphname = plus;
layers = (
{
layerId = "B61D43DE-5272-4FF4-A680-608B6BF5ED9E";
paths = (
{
closed = 1;
nodes = (
"690 91 LINE",
"690 560 LINE",
"654 503 LINE",
"1087 503 LINE",
"1087 704 LINE",
"656 704 LINE",
"690 656 LINE",
"690 1115 LINE",
"469 1115 LINE",
"469 658 LINE",
"502 704 LINE",
"85 704 LINE",
"85 503 LINE",
"505 503 LINE",
"469 559 LINE",
"469 91 LINE"
);
}
);
width = 1172;
}
);
unicode = 002B;
userData = {
com.typemytype.robofont.mark = (
0.656,
1,
0.6,
1
);
};
},
{
glyphname = minus;
layers = (
{
layerId = "B61D43DE-5272-4FF4-A680-608B6BF5ED9E";
paths = (
{
closed = 1;
nodes = (
"830 504 LINE",
"830 704 LINE",
"127 704 LINE",
"127 504 LINE"
);
}
);
width = 957;
}
);
unicode = 2212;
userData = {
com.typemytype.robofont.mark = (
0.656,
1,
0.6,
1
);
};
},
{
glyphname = multiply;
layers = (
{
layerId = "B61D43DE-5272-4FF4-A680-608B6BF5ED9E";
paths = (
{
closed = 1;
nodes = (
"313 162 LINE",
"624 494 LINE",
"559 483 LINE",
"875 160 LINE",
"1017 302 LINE",
"702 623 LINE",
"692 561 LINE",
"997 886 LINE",
"841 1042 LINE",
"537 719 LINE",
"593 728 LINE",
"284 1042 LINE",
"142 901 LINE",
"450 584 LINE",
"467 649 LINE",
"156 318 LINE"
);
}
);
width = 1198;
}
);
unicode = 00D7;
userData = {
com.typemytype.robofont.mark = (
0.656,
1,
0.6,
1
);
};
},
{
glyphname = divide;
layers = (
{
layerId = "B61D43DE-5272-4FF4-A680-608B6BF5ED9E";
paths = (
{
closed = 1;
nodes = (
"691 0 LINE",
"691 265 LINE",
"418 265 LINE",
"418 0 LINE"
);
},
{
closed = 1;
nodes = (
"989 504 LINE",
"989 704 LINE",
"121 704 LINE",
"121 504 LINE"
);
},
{
closed = 1;
nodes = (
"691 946 LINE",
"691 1211 LINE",
"418 1211 LINE",
"418 946 LINE"
);
}
);
width = 1110;
}
);
unicode = 00F7;
userData = {
com.typemytype.robofont.mark = (
0.656,
1,
0.6,
1
);
};
},
{
glyphname = equal;
layers = (
{
layerId = "B61D43DE-5272-4FF4-A680-608B6BF5ED9E";
paths = (
{
closed = 1;
nodes = (
"989 234 LINE",
"989 434 LINE",
"121 434 LINE",
"121 234 LINE"
);
},
{
closed = 1;
nodes = (
"989 774 LINE",
"989 974 LINE",
"121 974 LINE",
"121 774 LINE"
);
}
);
width = 1172;
}
);
unicode = 003D;
userData = {
com.typemytype.robofont.mark = (
0.656,
1,
0.6,
1
);
};
},
{
glyphname = notequal;
layers = (
{
components = (
{
name = equal;
}
);
layerId = "B61D43DE-5272-4FF4-A680-608B6BF5ED9E";
paths = (
{
closed = 1;
nodes = (
"444 0 LINE",
"828 1188 LINE",
"638 1188 LINE",
"254 0 LINE"
);
}
);
width = 1172;
}
);
unicode = 2260;
userData = {
com.typemytype.robofont.mark = (
0.6,
0.986,
1,
1
);
};
},
{
glyphname = less;
layers = (
{
layerId = "B61D43DE-5272-4FF4-A680-608B6BF5ED9E";
paths = (
{
closed = 1;
nodes = (
"925 935 LINE",
"925 1164 LINE",
"164 698 LINE",
"164 512 LINE",
"925 46 LINE",
"925 275 LINE",
"332 637 LINE",
"332 573 LINE"
);
}
);
width = 1089;
}
);
unicode = 003C;
userData = {
com.typemytype.robofont.mark = (
0.656,
1,
0.6,
1
);
};
},
{
glyphname = lessequal;
layers = (
{
layerId = "B61D43DE-5272-4FF4-A680-608B6BF5ED9E";
paths = (
{
closed = 1;
nodes = (
"959 1173 LINE",
"959 1402 LINE",
"198 936 LINE",
"198 750 LINE",
"959 284 LINE",
"959 513 LINE",
"366 875 LINE",
"366 811 LINE"
);
},
{
closed = 1;
nodes = (
"1006 191 LINE",
"164 191 LINE",
"164 0 LINE",
"1006 0 LINE"
);
}
);
width = 1170;
}
);
unicode = 2264;
userData = {
com.typemytype.robofont.mark = (
0.6,
0.986,
1,
1
);
};
},
{
glyphname = plusminus;
layers = (
{
layerId = "B61D43DE-5272-4FF4-A680-608B6BF5ED9E";
paths = (
{
closed = 1;
nodes = (
"690 338 LINE",
"690 807 LINE",
"654 750 LINE",
"1087 750 LINE",
"1087 951 LINE",
"656 951 LINE",
"690 903 LINE",
"690 1362 LINE",
"469 1362 LINE",
"469 905 LINE",
"502 951 LINE",
"85 951 LINE",
"85 750 LINE",
"505 750 LINE",
"469 806 LINE",
"469 338 LINE"
);
},
{
closed = 1;
nodes = (
"1087 191 LINE",
"85 191 LINE",
"85 0 LINE",
"1087 0 LINE"
);
}
);
width = 1172;
}
);
unicode = 00B1;
userData = {
com.typemytype.robofont.mark = (
0.656,
1,
0.6,
1
);
};
},
{
glyphname = asciitilde;
layers = (
{
layerId = "B61D43DE-5272-4FF4-A680-608B6BF5ED9E";
paths = (
{
closed = 1;
nodes = (
"647 671 OFFCURVE",
"594 846 OFFCURVE",
"390 846 CURVE SMOOTH",
"231 846 OFFCURVE",
"71 709 OFFCURVE",
"50 571 CURVE",
"197 472 LINE",
"228 559 OFFCURVE",
"280 636 OFFCURVE",
"372 635 CURVE SMOOTH",
"522 633 OFFCURVE",
"590 460 OFFCURVE",
"789 460 CURVE SMOOTH",
"948 460 OFFCURVE",
"1108 597 OFFCURVE",
"1129 735 CURVE",
"982 834 LINE",
"951 747 OFFCURVE",
"899 670 OFFCURVE",
"807 671 CURVE"
);
}
);
width = 1179;
}
);
unicode = 007E;
userData = {
com.typemytype.robofont.mark = (
0.656,
1,
0.6,
1
);
};
},
{
glyphname = logicalnot;
layers = (
{
layerId = "B61D43DE-5272-4FF4-A680-608B6BF5ED9E";
paths = (
{
closed = 1;
nodes = (
"1006 146 LINE",
"1006 503 LINE",
"803 658 LINE",
"803 146 LINE"
);
},
{
closed = 1;
nodes = (
"1006 704 LINE",
"164 704 LINE",
"164 503 LINE",
"1006 503 LINE"
);
}
);
width = 1170;
}
);
unicode = 00AC;
userData = {
com.typemytype.robofont.mark = (
0.656,
1,
0.6,
1
);
};
},
{
glyphname = asciicircum;
layers = (
{
layerId = "B61D43DE-5272-4FF4-A680-608B6BF5ED9E";
paths = (
{
closed = 1;
nodes = (
"253 295 LINE",
"503 1084 LINE",
"466 1084 LINE",
"709 295 LINE",
"938 295 LINE",
"550 1428 LINE",
"417 1428 LINE",
"24 295 LINE"
);
}
);
width = 962;
}
);
unicode = 005E;
userData = {
com.typemytype.robofont.mark = (
0.656,
1,
0.6,
1
);
};
},
{
glyphname = infinity;
layers = (
{
layerId = "B61D43DE-5272-4FF4-A680-608B6BF5ED9E";
paths = (
{
closed = 1;
nodes = (
"723 197 OFFCURVE",
"829 324 OFFCURVE",
"903 459 CURVE",
"969 362 OFFCURVE",
"1083 197 OFFCURVE",
"1270 197 CURVE SMOOTH",
"1531 197 OFFCURVE",
"1701 383 OFFCURVE",
"1701 665 CURVE SMOOTH",
"1701 874 OFFCURVE",
"1597 1127 OFFCURVE",
"1296 1127 CURVE SMOOTH",
"1104 1127 OFFCURVE",
"988 999 OFFCURVE",
"910 861 CURVE",
"846 960 OFFCURVE",
"732 1127 OFFCURVE",
"541 1127 CURVE SMOOTH",
"282 1127 OFFCURVE",
"110 941 OFFCURVE",
"110 659 CURVE SMOOTH",
"110 450 OFFCURVE",
"224 197 OFFCURVE",
"525 197 CURVE SMOOTH"
);
},
{
closed = 1;
nodes = (
"1076 833 OFFCURVE",
"1172 965 OFFCURVE",
"1278 965 CURVE SMOOTH",
"1382 965 OFFCURVE",
"1489 859 OFFCURVE",
"1489 659 CURVE SMOOTH",
"1489 469 OFFCURVE",
"1392 402 OFFCURVE",
"1288 402 CURVE SMOOTH",
"1167 402 OFFCURVE",
"1066 593 OFFCURVE",
"1003 709 CURVE"
);
},
{
closed = 1;
nodes = (
"431 359 OFFCURVE",
"323 465 OFFCURVE",
"323 664 CURVE SMOOTH",
"323 855 OFFCURVE",
"429 922 OFFCURVE",
"534 922 CURVE SMOOTH",
"654 922 OFFCURVE",
"746 730 OFFCURVE",
"809 614 CURVE",
"735 492 OFFCURVE",
"637 359 OFFCURVE",
"534 359 CURVE SMOOTH"
);
}
);
width = 1810;
}
);
unicode = 221E;
userData = {
com.typemytype.robofont.mark = (
1,
0.741,
0.6,
1
);
};
},
{
glyphname = emptyset;
lastChange = "2018-05-15 03:50:09 +0000";
layers = (
{
layerId = "B61D43DE-5272-4FF4-A680-608B6BF5ED9E";
paths = (
{
closed = 1;
nodes = (
"183 342 OFFCURVE",
"466 55 OFFCURVE",
"830 55 CURVE SMOOTH",
"1194 55 OFFCURVE",
"1475 342 OFFCURVE",
"1475 715 CURVE SMOOTH",
"1475 1088 OFFCURVE",
"1194 1375 OFFCURVE",
"830 1375 CURVE SMOOTH",
"466 1375 OFFCURVE",
"183 1088 OFFCURVE",
"183 715 CURVE SMOOTH"
);
},
{
closed = 1;
nodes = (
"345 994 OFFCURVE",
"541 1223 OFFCURVE",
"830 1223 CURVE SMOOTH",
"1118 1223 OFFCURVE",
"1315 994 OFFCURVE",
"1315 715 CURVE SMOOTH",
"1315 436 OFFCURVE",
"1118 207 OFFCURVE",
"830 207 CURVE SMOOTH",
"541 207 OFFCURVE",
"345 436 OFFCURVE",
"345 715 CURVE SMOOTH"
);
},
{
closed = 1;
nodes = (
"352 0 LINE",
"1475 1428 LINE",
"1285 1428 LINE",
"161 2 LINE"
);
}
);
width = 1658;
}
);
unicode = 2205;
userData = {
com.typemytype.robofont.mark = (
0.967,
0.6,
1,
1
);
};
},
